<svg width="32" height="32" viewBox="0 0 32 32" fill="none"
    xmlns="http://www.w3.org/2000/svg">
    <rect width="32" height="32" rx="16" fill="#009DFF"/>
    <path d="M4.60766 23.1029C4.22145 23.1293 4.1466 22.9997 4.05449 22.5749C3.94566 22.0712 3.84639 21.5653 3.66696 21.0795C3.64705 21.0324 3.63288 20.983 3.62475 20.9325C3.60644 20.7656 3.63909 20.627 3.90903 20.6033C4.22756 20.575 4.549 20.5555 4.86752 20.5206C5.46395 20.4552 5.99747 20.2466 6.41155 19.7983C6.6016 19.5926 6.73565 19.3495 6.75131 19.0665C6.76485 18.8196 6.66239 18.6039 6.50552 18.4152C6.17319 18.0147 5.73151 17.7749 5.26461 17.5632C4.7417 17.3256 4.18243 17.1762 3.67412 16.9061C3.09463 16.6039 2.63013 16.1219 2.3512 15.5332C2.19032 15.2068 2.08382 14.8566 2.03586 14.4962C1.95331 13.8439 2.00932 13.2002 2.24529 12.579C2.386 12.2129 2.58891 11.8735 2.84517 11.5758C3.32295 11.011 3.94221 10.6649 4.62757 10.416C4.97874 10.2882 5.32221 10.1385 5.68612 10.0464C5.79191 10.0166 5.90109 10.0003 6.01101 9.99805C6.14108 9.99805 6.24566 10.0472 6.29662 10.171C6.53949 10.7616 6.85138 11.3215 7.0762 11.9198C7.16751 12.1634 7.14415 12.3316 6.82245 12.4554C6.46942 12.5917 6.09489 12.6381 5.73416 12.7395C5.3461 12.8488 5.02333 13.0532 4.78815 13.3853C4.49246 13.8032 4.62518 14.2467 5.01377 14.5105C5.46953 14.8202 5.98261 15.0269 6.47367 15.274C6.92198 15.4997 7.4072 15.6542 7.81862 15.9504C8.46283 16.4142 8.85966 17.05 9.08687 17.795C9.2407 18.2931 9.29569 18.8162 9.24879 19.3352C9.17075 20.1991 8.87479 20.9721 8.23483 21.5841C7.80771 21.9931 7.3172 22.3311 6.7821 22.5852C6.33558 22.7974 5.86088 22.945 5.37238 23.0237C5.11915 23.0649 4.86513 23.1008 4.60766 23.1029Z" fill="white"/>
    <path d="M21.6145 16.5398C21.6145 17.4668 21.6267 18.3942 21.6102 19.3209C21.5986 19.9788 21.5261 20.6327 21.271 21.2505C21.0199 21.8577 20.6212 22.3353 20.0389 22.6648C19.6269 22.8979 19.1831 23.0326 18.7271 23.1239C18.3536 23.1989 17.9687 23.1913 17.5857 23.1847C17.0347 23.1751 16.5022 23.0651 15.9851 22.8879C15.749 22.8065 15.5251 22.6936 15.3194 22.5524C15.2345 22.4943 15.1769 22.4235 15.2223 22.2947C15.3646 21.8881 15.4877 21.4763 15.6252 21.067C15.6669 20.9414 15.7919 20.9086 15.9145 20.9905C16.1744 21.1623 16.4454 21.3073 16.7464 21.3984C17.3147 21.5702 17.8904 21.636 18.4749 21.5019C19.1061 21.358 19.4783 20.9514 19.6314 20.3357C19.6511 20.2565 19.6654 20.1773 19.6797 20.0981C19.6865 20.0702 19.6846 20.0409 19.6741 20.0142C19.6636 19.9875 19.6451 19.9646 19.6211 19.9487C19.568 19.9149 19.5046 19.8882 19.4377 19.9302C19.0594 20.1678 18.6342 20.2893 18.1994 20.3262C17.6837 20.3719 17.1727 20.3144 16.6817 20.109C15.9137 19.7882 15.3842 19.2293 15.0222 18.5056C14.8468 18.1517 14.7358 17.7698 14.6941 17.3775C14.6702 17.1621 14.6304 16.9472 14.6389 16.7307C14.6728 15.8637 14.8584 15.041 15.3845 14.3245C15.9106 13.608 16.6095 13.1824 17.4849 13.0296C18.044 12.9277 18.6202 12.9737 19.1558 13.1632C19.3194 13.224 19.4767 13.3007 19.6253 13.392C19.7649 13.4744 19.8671 13.4258 19.895 13.2645C19.9133 13.1589 19.9919 13.128 20.0856 13.1267C20.2756 13.1238 20.4657 13.1249 20.656 13.1249C20.9214 13.1249 21.1869 13.1249 21.4523 13.1249C21.6503 13.1249 21.6854 13.17 21.6724 13.3664C21.6424 13.8168 21.6169 14.2672 21.6179 14.719C21.619 15.3255 21.619 15.9318 21.6179 16.538L21.6145 16.5398ZM19.7034 16.6779V15.982C19.7047 15.8766 19.6909 15.7715 19.6625 15.6699C19.5014 15.1155 19.1582 14.7319 18.5763 14.6186C17.9467 14.4961 17.4124 14.6796 17.0209 15.201C16.7191 15.6029 16.614 16.0723 16.5935 16.5615C16.5715 17.0934 16.6493 17.6043 16.9463 18.0618C17.3006 18.6081 17.9406 18.8523 18.601 18.6991C19.1813 18.5642 19.6062 18.0729 19.6872 17.4435C19.7222 17.1721 19.6919 16.8997 19.7034 16.6779Z" fill="white"/>
    <path d="M25.6614 20.5055C24.8298 20.5142 24.1485 20.3225 23.5358 19.9096C23.1126 19.6236 22.7604 19.2456 22.5057 18.8042C22.2604 18.3847 22.1306 17.9269 22.0489 17.4559C21.9974 17.1594 22.012 16.8556 22.0197 16.5541C22.0334 15.7909 22.2763 15.0492 22.717 14.4243C23.2107 13.7189 23.8968 13.2851 24.7361 13.0895C25.0913 13.0052 25.4563 12.9686 25.8212 12.9807C26.8397 13.0174 27.7252 13.3603 28.4095 14.1315C28.8629 14.6424 29.1235 15.2472 29.2379 15.9189C29.3018 16.2947 29.3186 16.677 29.2881 17.057C29.2106 18.0338 28.8745 18.8969 28.1326 19.5696C27.5843 20.067 26.9318 20.3539 26.1995 20.4672C26.0212 20.4916 25.8414 20.5044 25.6614 20.5055ZM23.9478 16.7698C23.9441 17.2648 24.046 17.7545 24.3343 18.1896C24.6894 18.7255 25.1855 18.9964 25.8409 18.9124C26.4047 18.8404 26.7964 18.5093 27.0425 18.0214C27.4725 17.1703 27.4587 16.3014 27.0518 15.4481C26.7909 14.9006 26.3518 14.5753 25.7204 14.5587C25.0653 14.5415 24.5848 14.8317 24.269 15.3951C24.0325 15.8146 23.9467 16.2726 23.9478 16.7698Z" fill="white"/>
    <path d="M14.2434 16.7535V20.1016C14.2434 20.3025 14.1874 20.359 13.987 20.359C13.505 20.359 13.0229 20.359 12.5407 20.359C12.3835 20.359 12.3326 20.3062 12.3323 20.1478C12.3323 17.9247 12.3312 15.7014 12.3291 13.4779C12.3291 13.1812 12.474 13.1241 12.6816 13.1254C13.1238 13.1278 13.566 13.1254 14.0088 13.1254C14.1925 13.1254 14.2439 13.1804 14.2439 13.3631C14.2439 14.4942 14.2438 15.6244 14.2434 16.7535Z" fill="white"/>
    <path d="M9.67338 16.7522V13.4711C9.67338 13.2071 9.75062 13.1279 10.0184 13.1279C10.4254 13.1258 10.8324 13.1258 11.2394 13.1279C11.4863 13.1279 11.5866 13.2335 11.5866 13.4832V20.0042C11.5866 20.255 11.4805 20.3585 11.2246 20.3585C10.8089 20.3585 10.3931 20.3585 9.97704 20.3585C9.76761 20.3585 9.67524 20.2672 9.67497 20.0591C9.67285 18.9568 9.67232 17.8545 9.67338 16.7522Z" fill="white"/>
    <path d="M7.81486 11.7848C7.41459 11.1473 7.1826 10.4329 6.83594 9.77072C7.17516 9.97533 7.42255 10.2758 7.7278 10.5274C7.79044 10.1929 7.84857 9.86286 7.96669 9.55054C8.16311 9.02781 8.42271 8.54256 8.78211 8.10562C9.34934 7.41551 10.0586 6.92973 10.8705 6.57226C11.4049 6.33721 11.9657 6.16677 12.5409 6.06457C12.8692 6.00325 13.2042 5.9855 13.5371 6.01177C13.7991 6.03421 14.0632 6.03817 14.3257 6.06906C14.8645 6.1307 15.3926 6.26389 15.8958 6.46508C16.5004 6.70876 17.0427 7.05091 17.4993 7.51504C18.0126 8.03698 18.3943 8.64024 18.5907 9.34963C18.608 9.41273 18.635 9.42435 18.6929 9.41511C19.0192 9.36293 19.3494 9.33969 19.6798 9.34567C21.0046 9.37207 22.2094 9.76017 23.2733 10.554C23.5509 10.7624 23.8068 10.998 24.0369 11.2574C24.0842 11.3102 24.1224 11.3231 24.1917 11.2975C24.391 11.2241 24.6034 11.2053 24.8125 11.19C25.2901 11.1551 25.77 11.1698 26.2445 11.2339C26.8582 11.3162 27.4443 11.4807 27.99 11.7709C28.9279 12.2695 29.5572 13.0244 29.8778 14.0355C29.9321 14.1918 29.9729 14.3525 29.9996 14.5157C29.8404 13.97 29.5917 13.4647 29.224 13.0336C28.8665 12.6085 28.4207 12.2653 27.9173 12.0277C27.4578 11.8134 26.984 11.6444 26.4757 11.5742C26.248 11.5428 26.0202 11.5214 25.793 11.495C25.5056 11.4612 25.2234 11.4833 24.941 11.5045C24.6288 11.5274 24.3185 11.5808 24.0268 11.7035C23.9578 11.7326 23.9257 11.7223 23.8763 11.6621C23.6737 11.417 23.4518 11.1884 23.2127 10.9783C22.99 10.7825 22.7516 10.6049 22.5 10.4474C22.1273 10.2112 21.7247 10.0254 21.3027 9.89481C20.8946 9.77116 20.4752 9.68837 20.0506 9.6477C19.6961 9.60914 19.3388 9.60393 18.9833 9.63212C18.6891 9.65324 18.3965 9.69292 18.1074 9.75092C18.0312 9.76729 18.003 9.74221 17.9903 9.6741C17.8841 9.10621 17.6452 8.59457 17.3084 8.12806C16.8503 7.49207 16.2549 7.02636 15.5287 6.71905C15.1501 6.55539 14.751 6.44357 14.3422 6.38667C13.9915 6.33994 13.6366 6.30984 13.2804 6.33386C12.5638 6.38376 11.8596 6.50494 11.1946 6.78954C10.4733 7.0951 9.83397 7.56446 9.32784 8.16001C8.61117 8.9985 8.19258 9.97559 7.95076 11.0377C7.89263 11.2843 7.84726 11.5336 7.81486 11.7848Z" fill="white"/>
    <path d="M13.2482 12.6096C12.5846 12.621 12.1023 12.0948 12.1475 11.4197C12.187 10.832 12.5958 10.3917 13.3098 10.398C13.877 10.4028 14.4676 10.8109 14.3999 11.6257C14.3569 12.1442 13.8967 12.631 13.2482 12.6096Z" fill="white"/>
    <path d="M9.48879 11.491C9.48879 10.8165 9.96657 10.3917 10.6371 10.398C11.2829 10.4044 11.7665 10.8761 11.7458 11.5346C11.7269 12.1312 11.2592 12.6035 10.6044 12.6117C9.93339 12.6194 9.47074 12.104 9.48879 11.491Z" fill="white"/>
</svg>
