<?xml version="1.0" encoding="utf-8"?>
<!-- Generator: Adobe Illustrator 24.0.1, SVG Export Plug-In . SVG Version: 6.00 Build 0)  -->
<svg version="1.1" id="Capa_1" xmlns="http://www.w3.org/2000/svg" xmlns:xlink="http://www.w3.org/1999/xlink" x="0px" y="0px"
	 viewBox="0 0 169.1 167.8" style="enable-background:new 0 0 169.1 167.8;" xml:space="preserve">
<style type="text/css">
	.st0{fill:#0070B3;}
	.st1{fill:#878787;}
</style>
<path class="st0" d="M167.2,0h-64c-1.1,0-1.4,1.6-0.4,2c29.8,14.5,48.8,32,64.3,63.7c0.4,1,2,0.7,2-0.4V1.8
	C169.1,0.7,168.2,0,167.2,0z"/>
<path class="st1" d="M122.1,33.7c-13.7-10-27.4-12.4-38.4-12.3c-7.6,0,0,0-14.4,0c-19.2,0-35.5,7.1-49.1,21.2S0,74,0,94.6
	c0,20.4,6.8,37.8,20.3,51.9c13.5,14.2,29.9,21.3,49.1,21.3c21.2,0,37.4-7.9,48.8-23.7v23.7h30V84.7c0-13-4.5-25-8.2-30.9
	C135.4,45.4,128.7,38.5,122.1,33.7z M105.6,126.5c-8.3,8.5-18.9,12.7-31.4,12.7c-12.7,0-23.1-4.2-31.4-12.7
	c-8.3-8.5-12.5-19-12.5-31.9s4.2-23.4,12.5-31.9s18.9-12.7,31.4-12.7c12.7,0,23.1,4.2,31.4,12.7c8.3,8.5,12.5,19,12.5,31.9
	S113.9,118,105.6,126.5z"/>
</svg>
