<svg width="297" height="237" viewBox="0 0 297 237" fill="none"
  xmlns="http://www.w3.org/2000/svg">
  <path d="M8.10649 236.073H284.387L296.085 149.055C296.401 146.763 296.137 144.445 295.373 142.258L250.982 17.6724C249.006 12.1663 243.921 8.37257 238.073 8.05643L82.5841 0.021175C78.2371 -0.215931 74.0219 1.54919 71.0976 4.76329L4.73432 78.0817C2.1525 80.9269 0.808904 84.6679 0.99332 88.5143L8.10649 236.073Z" fill="#F4F4F4"/>
  <path d="M273.243 204.143C273.191 204.143 273.138 204.117 273.112 204.09L259.333 190.233C259.254 190.154 259.254 190.048 259.333 189.969C259.412 189.89 259.518 189.89 259.597 189.969L273.375 203.827C273.454 203.906 273.454 204.011 273.375 204.09C273.349 204.117 273.296 204.143 273.243 204.143Z" fill="#21252B"/>
  <path d="M286.759 195.344C286.68 195.291 286.548 195.317 286.495 195.396L276.379 210.703L278.882 149.134C278.882 149.029 278.803 148.95 278.697 148.95C278.592 148.95 278.513 149.029 278.513 149.134L275.641 219.766C275.641 219.871 275.72 219.95 275.826 219.95C275.931 219.95 276.01 219.871 276.01 219.766L276.352 211.414L286.785 195.607C286.864 195.502 286.838 195.396 286.759 195.344Z" fill="#21252B"/>
  <path d="M277.274 186.597C277.221 186.597 277.195 186.571 277.142 186.544C277.063 186.465 277.063 186.36 277.116 186.281L292.897 168.261C292.976 168.182 293.081 168.182 293.16 168.235C293.239 168.314 293.239 168.419 293.186 168.498L277.406 186.518C277.379 186.571 277.327 186.597 277.274 186.597Z" fill="#21252B"/>
  <path d="M292.022 178.091C295.744 173.714 296.859 168.545 294.511 166.546C292.161 164.548 287.238 166.476 283.512 170.853C279.79 175.23 278.675 180.399 281.023 182.398C283.373 184.396 288.297 182.468 292.022 178.091Z" fill="#0070b3"/>
  <path opacity="0.3" d="M294.662 166.68L280.937 182.329C280.963 182.356 280.989 182.382 281.016 182.408C283.36 184.41 288.287 182.461 292.001 178.088C295.663 173.793 296.823 168.761 294.662 166.68Z" fill="black"/>
  <path d="M267.574 198.197C269.468 196.367 268.235 192.016 264.818 188.479C261.401 184.941 257.096 183.557 255.202 185.386C253.308 187.216 254.543 191.567 257.958 195.104C261.375 198.642 265.68 200.026 267.574 198.197Z" fill="#0070b3"/>
  <path opacity="0.3" d="M255.065 185.491L267.632 198.11C267.606 198.136 267.579 198.163 267.579 198.189C265.683 200.007 261.388 198.637 257.963 195.08C254.591 191.629 253.353 187.388 255.065 185.491Z" fill="black"/>
  <path d="M283.947 154.451C284.208 148.709 281.979 143.944 278.971 143.807C275.962 143.67 273.312 148.214 273.051 153.955C272.79 159.697 275.016 164.462 278.025 164.599C281.034 164.735 283.687 160.192 283.947 154.451Z" fill="#0070b3"/>
  <path opacity="0.3" d="M273.032 153.956C273.296 148.212 275.957 143.681 278.96 143.813L278.012 164.599C275.008 164.467 272.769 159.699 273.032 153.956Z" fill="black"/>
  <path d="M287.812 201.442C290.101 197.863 290.349 193.932 288.362 192.662C286.376 191.393 282.911 193.264 280.622 196.843C278.333 200.422 278.088 204.353 280.071 205.623C282.058 206.893 285.522 205.021 287.812 201.442Z" fill="#0070b3"/>
  <path opacity="0.3" d="M280.62 196.845C278.381 200.349 278.091 204.196 279.935 205.539L288.366 192.656L287.865 192.419C285.837 191.682 282.728 193.552 280.62 196.845Z" fill="black"/>
  <path d="M274.692 219.081C274.587 219.081 274.508 219.002 274.508 218.923L270.003 172.397C270.003 172.292 270.056 172.213 270.161 172.186C270.266 172.186 270.345 172.239 270.372 172.344L274.877 218.87C274.903 219.002 274.824 219.081 274.692 219.081C274.719 219.081 274.719 219.081 274.692 219.081Z" fill="#21252B"/>
  <path d="M271.14 182.604C273.627 182.304 275.174 178.208 274.6 173.455C274.025 168.702 271.543 165.093 269.059 165.394C266.575 165.695 265.028 169.791 265.603 174.543C266.177 179.296 268.656 182.905 271.14 182.604Z" fill="#0070b3"/>
  <path opacity="0.3" d="M265.576 174.557C264.997 169.815 266.551 165.705 269.054 165.416L271.135 182.619C268.632 182.909 266.156 179.3 265.576 174.557Z" fill="black"/>
  <path d="M271.162 236.179H280.541C282.306 236.179 283.729 234.756 283.729 232.991V220.582H267.975V232.991C267.975 234.756 269.397 236.179 271.162 236.179Z" fill="#868A91"/>
  <path d="M284.071 218.896H267.632C267.184 218.896 266.789 219.265 266.789 219.739C266.789 220.187 267.157 220.582 267.632 220.582H284.071C284.519 220.582 284.914 220.213 284.914 219.739C284.914 219.291 284.519 218.896 284.071 218.896Z" fill="#868A91"/>
  <path d="M283.729 220.582H269.397C268.949 220.582 268.554 220.213 268.554 219.739C268.554 219.291 268.923 218.896 269.397 218.896H267.658C267.211 218.896 266.815 219.265 266.815 219.739C266.815 220.187 267.184 220.582 267.658 220.582H268.001V220.846V233.017C268.001 234.782 269.424 236.205 271.189 236.205H276.194C276.273 236.205 276.3 236.205 276.3 236.205C274.087 236.205 272.163 234.624 271.742 232.438L269.476 220.846H283.755V220.582H283.729Z" fill="#61656D"/>
  <path d="M149.737 17.6197H111.985V48.9704H149.737V17.6197Z" fill="#0070b3"/>
  <path opacity="0.8" d="M149.737 17.6197H111.985V48.9704H149.737V17.6197Z" fill="white"/>
  <path d="M147.05 20.4387H114.672V46.1515H147.05V20.4387Z" fill="white"/>
  <path d="M114.672 37.4839L118.202 34.7704C121.917 31.9251 127.054 31.8197 130.874 34.5333L133.798 32.0832C137.592 28.9218 143.072 28.7637 147.024 31.7407L147.05 31.767V46.1251H114.672V37.4839Z" fill="#0070b3"/>
  <path opacity="0.5" d="M114.672 37.4839L118.202 34.7704C121.917 31.9251 127.054 31.8197 130.874 34.5333L133.798 32.0832C137.592 28.9218 143.072 28.7637 147.024 31.7407L147.05 31.767V46.1251H114.672V37.4839Z" fill="white"/>
  <path d="M129.61 29.6331C130.92 29.6331 131.981 28.5716 131.981 27.262C131.981 25.9524 130.92 24.891 129.61 24.891C128.301 24.891 127.239 25.9524 127.239 27.262C127.239 28.5716 128.301 29.6331 129.61 29.6331Z" fill="#B2B6BB"/>
  <path d="M131.507 34.0327L128.582 36.4301L128.345 36.0613L131.138 33.743L131.507 34.0327Z" fill="white"/>
  <path d="M111.985 17.6197H111.168V48.9704H111.985V17.6197Z" fill="#B2B6BB"/>
  <path d="M31.3428 146.236H13.6653C13.1647 146.236 12.7695 145.841 12.7695 145.341C12.7695 144.84 13.1647 144.445 13.6653 144.445H31.3428V146.236Z" fill="#B2B6BB"/>
  <path d="M95.3875 145.367H15.957V219.95H95.3875V145.367Z" fill="#B2B6BB"/>
  <path d="M172.394 145.367H33.2397V219.95H172.394V145.367Z" fill="#DADDDF"/>
  <path d="M36.0063 151.69H169.839V215.761H36.0063V151.69ZM169.471 152.085H36.4279V215.366H169.471V152.085Z" fill="#B2B6BB"/>
  <path d="M174.449 146.236H31.3161C30.8156 146.236 30.4204 145.841 30.4204 145.341C30.4204 144.84 30.8156 144.445 31.3161 144.445H174.423C174.923 144.445 175.318 144.84 175.318 145.341C175.318 145.841 174.923 146.236 174.449 146.236Z" fill="#DADDDF"/>
  <path d="M169.839 193.921H36.0063V194.316H169.839V193.921Z" fill="#B2B6BB"/>
  <path d="M169.839 172.713H36.0063V173.108H169.839V172.713Z" fill="#B2B6BB"/>
  <path d="M106.426 158.671C107.183 158.671 107.796 158.058 107.796 157.301C107.796 156.545 107.183 155.931 106.426 155.931C105.669 155.931 105.056 156.545 105.056 157.301C105.056 158.058 105.669 158.671 106.426 158.671Z" fill="#B2B6BB"/>
  <path opacity="0.15" d="M105.926 157.301C105.926 156.695 106.321 156.195 106.848 156.01C106.716 155.958 106.558 155.931 106.4 155.931C105.636 155.931 105.03 156.537 105.03 157.301C105.03 158.065 105.636 158.671 106.4 158.671C106.558 158.671 106.69 158.645 106.848 158.592C106.321 158.408 105.926 157.907 105.926 157.301Z" fill="black"/>
  <path d="M106.426 179.589C107.183 179.589 107.796 178.976 107.796 178.219C107.796 177.463 107.183 176.849 106.426 176.849C105.669 176.849 105.056 177.463 105.056 178.219C105.056 178.976 105.669 179.589 106.426 179.589Z" fill="#B2B6BB"/>
  <path opacity="0.15" d="M105.926 178.219C105.926 177.613 106.321 177.113 106.848 176.929C106.716 176.876 106.558 176.849 106.4 176.849C105.636 176.849 105.03 177.455 105.03 178.219C105.03 178.983 105.636 179.589 106.4 179.589C106.558 179.589 106.69 179.563 106.848 179.51C106.321 179.326 105.926 178.799 105.926 178.219Z" fill="black"/>
  <path d="M106.426 200.771C107.183 200.771 107.796 200.157 107.796 199.401C107.796 198.644 107.183 198.031 106.426 198.031C105.669 198.031 105.056 198.644 105.056 199.401C105.056 200.157 105.669 200.771 106.426 200.771Z" fill="#B2B6BB"/>
  <path opacity="0.15" d="M105.926 199.401C105.926 198.795 106.321 198.294 106.848 198.11C106.716 198.057 106.558 198.031 106.4 198.031C105.636 198.031 105.03 198.637 105.03 199.401C105.03 200.165 105.636 200.771 106.4 200.771C106.558 200.771 106.69 200.744 106.848 200.692C106.321 200.534 105.926 200.007 105.926 199.401Z" fill="black"/>
  <path d="M30.4473 148.081L33.2398 146.237H172.421V147.08L30.4473 148.081Z" fill="#B2B6BB"/>
  <path d="M19.4609 219.95L18.0909 235.151C17.9856 235.704 18.4071 236.231 18.9603 236.231C19.3292 236.231 19.6716 235.994 19.8034 235.625L23.7815 219.95H19.4609Z" fill="#DADDDF"/>
  <path d="M19.9877 228.776L21.6475 228.38L23.7814 219.95H19.4608L18.0909 235.151C18.0118 235.573 18.249 235.994 18.6178 236.152L19.9877 228.776Z" fill="#B2B6BB"/>
  <path d="M34.9785 219.95L33.6085 235.151C33.5031 235.704 33.9247 236.231 34.4779 236.231C34.8467 236.231 35.1892 235.994 35.3209 235.625L39.2991 219.95H34.9785Z" fill="#DADDDF"/>
  <path d="M36.4269 221.61L38.9034 221.136L39.3249 219.924H35.0043L33.6343 235.125C33.5553 235.546 33.7924 235.968 34.1612 236.126L36.4269 221.61Z" fill="#B2B6BB"/>
  <path d="M153.794 219.95L155.164 235.151C155.27 235.704 154.848 236.231 154.295 236.231C153.926 236.231 153.583 235.994 153.452 235.625L149.474 219.95H153.794Z" fill="#DADDDF"/>
  <path d="M153.03 228.038L154.506 227.669L153.794 219.95H149.474L153.452 235.625C153.583 235.994 153.926 236.231 154.295 236.231C154.321 236.231 154.321 236.231 154.347 236.231L153.03 228.038Z" fill="#B2B6BB"/>
  <path d="M169.734 219.95L171.104 235.151C171.209 235.704 170.787 236.231 170.234 236.231C169.865 236.231 169.523 235.994 169.391 235.625L165.413 219.95H169.734Z" fill="#DADDDF"/>
  <path d="M168.048 221.267L169.944 220.925L169.734 219.95H165.413L169.391 235.625C169.523 235.994 169.865 236.231 170.234 236.231C170.261 236.231 170.261 236.231 170.287 236.231L168.048 221.267Z" fill="#B2B6BB"/>
  <path d="M120.863 119.417H137.803C137.987 119.417 138.145 119.575 138.172 119.76L138.198 120.339C138.198 120.524 138.066 120.682 137.882 120.682H120.942C120.758 120.682 120.6 120.524 120.573 120.339L120.547 119.76C120.547 119.549 120.679 119.417 120.863 119.417Z" fill="#21252B"/>
  <path d="M130.4 119.417H168.732C168.917 119.417 169.075 119.575 169.101 119.76L169.127 120.339C169.127 120.524 168.996 120.682 168.811 120.682H130.479C130.295 120.682 130.137 120.524 130.11 120.339L130.084 119.76C130.084 119.549 130.216 119.417 130.4 119.417Z" fill="#3F4249"/>
  <path d="M168.258 119.654H129.188C129.136 119.654 129.057 119.602 129.057 119.549C129.057 119.496 129.109 119.443 129.162 119.443H168.232C168.284 119.443 168.364 119.496 168.364 119.549C168.364 119.602 168.311 119.654 168.258 119.654Z" fill="#21252B"/>
  <path d="M130.321 119.417H136.301C136.749 119.417 137.144 119.101 137.197 118.627L139.278 94.1786C139.357 93.599 138.857 93.0457 138.277 93.0457H132.297C131.849 93.0457 131.454 93.3619 131.401 93.8361L129.32 118.284C129.214 118.864 129.715 119.417 130.321 119.417Z" fill="#21252B"/>
  <path d="M131.165 119.417H168.232C168.68 119.417 169.075 119.101 169.128 118.627L171.209 94.1786C171.288 93.599 170.788 93.0457 170.208 93.0457H133.14C132.693 93.0457 132.297 93.3619 132.245 93.8361L130.163 118.284C130.084 118.864 130.559 119.417 131.165 119.417Z" fill="#3F4249"/>
  <path opacity="0.6" d="M152.187 104.506C151.977 105.033 152.266 105.481 152.82 105.507C152.846 105.507 152.872 105.507 152.899 105.507C152.319 106.218 151.397 106.693 150.58 106.666C149.448 106.64 148.868 105.718 149.289 104.585C149.711 103.452 150.976 102.556 152.108 102.583C152.846 102.609 153.347 102.978 153.478 103.557C152.951 103.584 152.372 103.979 152.187 104.506Z" fill="black"/>
  <path d="M82.8999 122.052C86.5882 89.4101 79.9492 69.4669 77.6045 62.5908L81.3192 61.5897L93.596 61.6951L95.1503 62.2483C95.4665 68.3604 99.8398 95.7593 104.055 122.025H82.8999V122.052Z" fill="white"/>
  <path d="M100.657 230.488L117.755 230.91L110.931 226.036C109.798 225.219 109.087 223.928 109.034 222.532L108.797 217.184L99.4976 217.21L100.657 230.488Z" fill="#FC9D9D"/>
  <path opacity="0.15" d="M102.553 224.244V224.139C102.501 223.533 102.922 223.006 103.502 222.927L108.955 222.137L108.903 221.057H99.7871L100.604 230.119L108.059 229.303L105.609 228.328C103.897 227.643 102.711 226.062 102.553 224.244Z" fill="black"/>
  <path d="M69.8594 230.172H77.5521L78.9748 217.157L69.8857 217.184L69.8594 230.172Z" fill="#FC9D9D"/>
  <path opacity="0.15" d="M71.7821 227.985L71.9665 223.981C71.9929 223.454 72.388 223.032 72.9149 222.953L78.4474 222.11L78.5791 221.004L69.9116 221.03L69.8853 230.251L71.7821 227.985Z" fill="black"/>
  <path d="M69.3589 114.649V221.056H79.3437L88.0376 134.302C88.0903 133.723 88.5644 133.301 89.144 133.301C89.6973 133.301 90.1715 133.723 90.2242 134.302L99.4713 221.056H109.456L105.847 114.649H69.3589Z" fill="#0070b3"/>
  <path opacity="0.2" d="M69.3589 114.649V221.056H79.3437L88.0376 134.302C88.0903 133.723 88.5644 133.301 89.144 133.301C89.6973 133.301 90.1715 133.723 90.2242 134.302L99.4713 221.056H109.456L105.847 114.649H69.3589Z" fill="white"/>
  <path d="M70.4389 225.588L70.676 225.351C72.4674 223.559 75.5498 223.586 77.2886 225.43L77.4203 225.588C77.8682 226.062 78.1053 226.668 78.1053 227.274V228.275C78.1053 228.855 78.1843 229.434 78.3687 229.988L79.1854 232.701C79.3962 233.36 79.5016 234.045 79.5016 234.73V235.072C79.5016 235.599 79.0274 236.021 78.4741 236.021H69.0162C68.4366 236.021 67.9888 235.599 67.9888 235.072V234.94C67.9888 234.15 68.1205 233.36 68.3839 232.596L69.3324 229.935C69.5431 229.329 69.6749 228.697 69.6749 228.038L69.7012 227.274C69.7275 226.668 69.991 226.062 70.4389 225.588Z" fill="#3F4249"/>
  <path d="M69.0947 221.057H79.7381L79.9489 218.87H69.1211L69.0947 221.057Z" fill="#0070b3"/>
  <path opacity="0.15" d="M69.0947 221.057H73.5471L73.6524 218.87H69.1211L69.0947 221.057Z" fill="black"/>
  <path opacity="0.5" d="M67.9888 234.94V235.072C67.9888 235.599 68.463 236.021 69.0162 236.021H78.4741C79.0537 236.021 79.5016 235.599 79.5016 235.072V234.73C79.5016 234.598 79.5016 234.466 79.4752 234.334H67.9888C67.9888 234.519 67.9888 234.73 67.9888 234.94Z" fill="black"/>
  <path d="M99.4712 227.458V234.124C99.4712 235.204 100.341 236.073 101.421 236.073H124.078C124.525 236.073 124.894 235.704 124.894 235.257C124.894 233.676 123.867 232.253 122.365 231.753L117.254 230.067L110.773 225.035C110.115 224.508 109.166 224.534 108.508 225.087L105.636 227.537C105.214 227.906 104.635 228.012 104.108 227.854L100.472 226.721C99.9454 226.589 99.4712 226.958 99.4712 227.458Z" fill="#3F4249"/>
  <path d="M101.421 236.073H124.078C124.525 236.073 124.894 235.704 124.894 235.257C124.894 234.967 124.868 234.703 124.789 234.44H99.4976C99.6556 235.362 100.446 236.073 101.421 236.073Z" fill="black"/>
  <path d="M110.641 227.695C110.589 227.695 110.536 227.669 110.509 227.643C110.43 227.564 110.43 227.432 110.509 227.353L111.879 225.878C111.958 225.799 112.09 225.799 112.169 225.878C112.248 225.957 112.248 226.088 112.169 226.167L110.799 227.643C110.747 227.669 110.694 227.695 110.641 227.695Z" fill="white"/>
  <path d="M111.722 228.539C111.669 228.539 111.616 228.512 111.59 228.486C111.511 228.407 111.511 228.275 111.59 228.196L112.96 226.721C113.039 226.642 113.171 226.642 113.25 226.721C113.329 226.8 113.329 226.931 113.25 227.011L111.88 228.486C111.827 228.512 111.774 228.539 111.722 228.539Z" fill="white"/>
  <path d="M112.801 229.382C112.749 229.382 112.696 229.355 112.67 229.329C112.591 229.25 112.591 229.118 112.67 229.039L114.04 227.564C114.119 227.485 114.25 227.485 114.329 227.564C114.408 227.643 114.408 227.775 114.329 227.854L112.959 229.329C112.933 229.355 112.88 229.382 112.801 229.382Z" fill="white"/>
  <path d="M75.7077 227.827C75.6814 227.827 75.6287 227.827 75.6023 227.801C73.8109 226.905 72.1248 227.801 72.1248 227.801C72.0194 227.854 71.8613 227.827 71.8086 227.695C71.756 227.59 71.7823 227.432 71.914 227.379C71.9931 227.327 73.8109 226.378 75.8394 227.379C75.9448 227.432 75.9975 227.59 75.9448 227.695C75.8921 227.774 75.8131 227.827 75.7077 227.827Z" fill="white"/>
  <path d="M75.7077 229.039C75.6814 229.039 75.6287 229.039 75.6023 229.013C73.7845 228.117 72.1248 229.013 72.1248 229.013C72.0194 229.065 71.8613 229.039 71.8086 228.907C71.756 228.802 71.7823 228.644 71.914 228.591C71.9931 228.539 73.8109 227.59 75.8394 228.591C75.9448 228.644 75.9975 228.802 75.9448 228.907C75.8921 228.986 75.8131 229.039 75.7077 229.039Z" fill="white"/>
  <path d="M75.7077 230.225C75.6814 230.225 75.6287 230.225 75.6023 230.198C73.8109 229.303 72.1248 230.198 72.1248 230.198C72.0194 230.251 71.8613 230.225 71.8086 230.093C71.756 229.988 71.7823 229.829 71.914 229.777C71.9931 229.724 73.8109 228.776 75.8394 229.777C75.9448 229.829 75.9975 229.988 75.9448 230.093C75.8921 230.172 75.8131 230.225 75.7077 230.225Z" fill="white"/>
  <path opacity="0.15" d="M105.425 219.845L95.5723 137.938C95.2561 135.303 93.0168 133.327 90.3823 133.327H89.144C89.6973 133.327 90.1715 133.749 90.2242 134.328L99.4186 220.609L105.425 219.845Z" fill="black"/>
  <path d="M99.2078 221.057H109.825L109.667 218.87H98.9971L99.2078 221.057Z" fill="#0070b3"/>
  <path opacity="0.15" d="M99.2078 221.057H105.531L105.294 218.87H98.9971L99.2078 221.057Z" fill="black"/>
  <path d="M132.508 70.468L133.43 68.1759C133.773 67.3329 134.194 66.5162 134.721 65.7522L137.092 62.8015C137.145 62.7225 137.224 62.6698 137.329 62.6962C138.067 63.065 138.146 63.75 137.883 64.514C137.698 64.9882 137.329 65.7258 137.066 66.121C136.855 66.4635 137.198 66.5162 137.329 66.3318L142.519 60.9574C142.757 60.7203 143.152 60.6939 143.389 60.9047C143.652 61.1418 143.705 61.537 143.468 61.8004C142.572 62.8806 140.517 65.3834 140.517 65.3834L144.601 62.0112C144.864 61.8004 145.259 61.8268 145.496 62.0639C145.786 62.38 145.76 62.8542 145.47 63.144C144.285 64.3032 141.571 67.0431 141.571 67.0431L145.207 64.1715C145.47 63.9871 145.813 64.0398 146.023 64.3032C146.234 64.5667 146.208 64.9355 145.971 65.1726C144.917 66.121 142.915 68.2286 142.915 68.2286L145.207 66.4108C145.417 66.2791 145.707 66.3581 145.839 66.5425C145.971 66.7533 145.944 67.0168 145.786 67.2012L137.856 75.1837L135.433 78.5822L126.712 77.9236L132.508 70.468Z" fill="#FC9D9D"/>
  <g opacity="0.15">
    <path opacity="0.15" d="M137.54 71.6008C137.514 71.6008 137.487 71.6008 137.461 71.6008C137.356 71.5745 137.303 71.4427 137.329 71.3374C138.383 68.4131 137.066 66.806 137.013 66.7533C136.934 66.6743 136.96 66.5426 137.039 66.4635C137.118 66.3845 137.25 66.4108 137.329 66.4899C137.382 66.5689 138.857 68.334 137.724 71.4954C137.724 71.5481 137.645 71.6008 137.54 71.6008Z" fill="black"/>
  </g>
  <path d="M108.691 69.7567L117.122 89.8316L132.376 70.6261L137.566 75.5263L122.048 101.924C119.572 106.113 113.46 105.955 111.221 101.608L102.237 84.0884L108.691 69.7567Z" fill="#21252B"/>
  <path d="M93.3854 47.3107C93.3854 47.3107 82.6366 40.5663 82.2151 48.8124L82.057 50.9463L81.3193 61.7478C81.3193 62.0639 81.4247 62.3537 81.6091 62.5645L87.8266 66.8061C88.011 66.9378 88.2744 66.9114 88.4325 66.7797L93.0429 62.8543C93.359 62.5908 93.5171 62.1693 93.4644 61.7741L92.7795 55.3723C92.9112 54.819 92.9902 54.1868 92.9902 53.4754C93.0956 50.235 93.3854 47.3107 93.3854 47.3107Z" fill="#FC9D9D"/>
  <path d="M94.3339 47.8112C96.3419 47.8112 97.9695 46.1833 97.9695 44.1756C97.9695 42.1676 96.3419 40.5399 94.3339 40.5399C92.3258 40.5399 90.6982 42.1676 90.6982 44.1756C90.6982 46.1833 92.3258 47.8112 94.3339 47.8112Z" fill="#3F4249"/>
  <path d="M94.5966 41.4884C94.5966 41.4884 98.4167 57.5062 90.197 58.5864C83.0838 59.5348 82.2935 48.4435 82.2935 48.4435L82.636 41.2513L94.5966 41.4884Z" fill="#FC9D9D"/>
  <path d="M94.1227 42.4895L86.8514 43.0164C85.9557 43.0955 85.2707 43.8858 85.3234 44.7815C85.4024 45.6773 84.7175 46.4676 83.7954 46.5467C83.5583 46.573 83.3739 46.7838 83.3739 47.0209L83.4792 48.6279C83.5056 48.8387 83.3475 49.0231 83.1368 49.0231C82.9523 49.0494 82.7943 48.9177 82.7416 48.7333L82.4254 47.2053L82.1093 46.7047L80.3969 47.7585C80.3969 47.7585 77.6307 43.4906 78.9479 39.5916C79.7119 37.3786 81.8985 36.5882 82.9523 36.4565C83.2948 36.4038 83.5846 36.2194 83.7691 35.9296C84.1906 35.2183 85.218 33.9801 87.5101 34.0591C89.2752 34.1118 90.2499 35.0866 90.7505 35.8506C91.0403 36.2984 91.6462 36.4828 92.1468 36.2457C92.8845 35.9032 93.9646 35.7188 95.2292 36.4828C97.6002 37.9845 96.6518 42.0943 94.1227 42.4895Z" fill="#3F4249"/>
  <path opacity="0.15" d="M82.057 51.4732C82.057 51.4732 82.742 51.5259 83.1109 51.2361L81.9517 53.0275L82.057 51.4732Z" fill="black"/>
  <path d="M82.4517 47.2053C82.4517 47.2053 81.9248 45.7036 80.3441 46.3886C78.5526 47.1789 78.9214 51.2361 81.9511 51.4732C83.5318 51.6049 83.2157 50.6828 82.9522 49.4446C82.4517 47.2053 82.4517 47.2053 82.4517 47.2053Z" fill="#FC9D9D"/>
  <path opacity="0.3" d="M80.2657 47.4424C80.5818 47.2317 80.8716 47.1526 81.135 47.2053C81.3985 47.258 81.6356 47.4424 81.82 47.7586C82.0044 48.0747 82.1098 48.4435 82.1098 48.8651L82.1361 49.2075C82.1361 49.3129 82.0571 49.392 81.9517 49.392C81.8463 49.392 81.7673 49.3129 81.7673 49.2075L81.741 48.8651C81.741 48.7597 81.6883 48.2328 81.5039 47.943C81.3721 47.7322 81.2141 47.6005 81.056 47.5478C80.8979 47.5215 80.6872 47.5742 80.4764 47.7059C80.3974 47.7586 80.2656 47.7322 80.213 47.6532C80.1603 47.6268 80.1866 47.5215 80.2657 47.4424Z" fill="black"/>
  <path d="M94.1759 42.832L93.3329 42.911C93.2538 42.911 93.1484 42.8584 93.1484 42.753C93.1484 42.6476 93.2011 42.5686 93.3065 42.5686L94.1495 42.4895C94.2549 42.4895 94.3603 42.4632 94.4657 42.4368C94.6765 42.3578 95.0716 42.2261 95.4405 41.9626C95.5195 41.9099 95.6249 41.9363 95.6776 42.0153C95.7303 42.0944 95.7039 42.1997 95.6249 42.2524C95.2297 42.5159 94.7818 42.7003 94.5711 42.753C94.4394 42.7793 94.3076 42.8057 94.1759 42.832Z" fill="#FC9D9D"/>
  <path opacity="0.15" d="M93.3066 59.8772L93.0432 57.2954C92.3582 58.0067 90.3823 59.0342 88.143 58.5073C88.143 58.5073 88.1166 58.481 88.143 58.5073C86.773 58.1648 85.851 57.4008 85.2714 56.7158C85.2187 56.6368 85.1133 56.6368 85.0343 56.6895C84.9552 56.7422 84.9552 56.8476 85.0079 56.9266C85.7192 57.7433 86.9311 58.7181 88.8016 58.9552C91.0936 60.4832 93.3066 59.8772 93.3066 59.8772Z" fill="black"/>
  <g opacity="0.3">
    <path opacity="0.3" d="M90.8037 55.3196C90.8037 55.3459 90.7773 55.3459 90.8037 55.3196C90.1187 55.3723 89.8025 55.3986 89.8025 55.3986C89.6708 55.3986 89.5918 55.3196 89.5654 55.1878C89.5654 55.0561 89.6445 54.9507 89.7762 54.9507C89.7762 54.9507 90.0923 54.9244 90.751 54.8717C90.8827 54.8717 90.9881 54.9507 90.9881 55.0561C90.9881 55.2142 90.909 55.3196 90.8037 55.3196Z" fill="black"/>
  </g>
  <g opacity="0.3">
    <path opacity="0.3" d="M91.1724 54.3711C89.3809 54.6346 88.5642 53.6598 88.2744 53.1856C88.2217 53.0802 88.248 52.9748 88.3534 52.8958C88.4588 52.8431 88.5642 52.8694 88.6432 52.9748C88.9067 53.449 89.8024 54.4765 91.9627 53.7652C92.0681 53.7388 92.1735 53.7915 92.2262 53.8969C92.2525 54.0023 92.1998 54.1077 92.0944 54.1604C91.7519 54.2657 91.4358 54.3448 91.1724 54.3711Z" fill="black"/>
  </g>
  <path d="M88.6957 49.629C89.0596 49.629 89.3544 49.3342 89.3544 48.9704C89.3544 48.6065 89.0596 48.3117 88.6957 48.3117C88.3319 48.3117 88.0371 48.6065 88.0371 48.9704C88.0371 49.3342 88.3319 49.629 88.6957 49.629Z" fill="#21252B"/>
  <path d="M88.9857 48.8914C89.0584 48.8914 89.1175 48.8324 89.1175 48.7597C89.1175 48.6869 89.0584 48.6279 88.9857 48.6279C88.913 48.6279 88.854 48.6869 88.854 48.7597C88.854 48.8324 88.913 48.8914 88.9857 48.8914Z" fill="white"/>
  <path d="M93.912 49.6553C94.2759 49.6553 94.5707 49.3605 94.5707 48.9967C94.5707 48.6329 94.2759 48.3381 93.912 48.3381C93.5482 48.3381 93.2534 48.6329 93.2534 48.9967C93.2534 49.3605 93.5482 49.6553 93.912 49.6553Z" fill="#21252B"/>
  <path d="M94.2025 48.9177C94.2752 48.9177 94.3343 48.8587 94.3343 48.786C94.3343 48.7132 94.2752 48.6542 94.2025 48.6542C94.1298 48.6542 94.0708 48.7132 94.0708 48.786C94.0708 48.8587 94.1298 48.9177 94.2025 48.9177Z" fill="white"/>
  <g opacity="0.3">
    <path opacity="0.3" d="M91.6465 52.7641L90.7772 52.8168C90.6718 52.8168 90.5928 52.7377 90.5664 52.6324C90.5664 52.527 90.6454 52.448 90.7508 52.4216L91.6202 52.3689C91.831 52.3426 92.0154 52.1582 91.989 51.9474C91.9627 51.7366 91.7783 51.5522 91.5675 51.5786C91.4621 51.5786 91.3831 51.4995 91.3568 51.3942C91.3304 51.2888 91.4358 51.2097 91.5412 51.1834C91.9627 51.157 92.3315 51.4732 92.3842 51.8947C92.3842 52.3689 92.0681 52.7377 91.6465 52.7641Z" fill="black"/>
  </g>
  <path d="M95.7826 47.2843H92.911H92.5159H90.0131H89.9867H86.7463C86.2194 47.2843 85.7979 47.7058 85.7979 48.2327V48.9704C85.7979 50.393 86.957 51.5522 88.3797 51.5522C89.8023 51.5522 90.9615 50.393 90.9615 48.9704V48.2327C90.9615 48.022 90.8825 47.8112 90.7507 47.6531H91.7518C91.6201 47.8112 91.5674 48.022 91.5674 48.2327V48.9704C91.5674 50.393 92.7266 51.5522 94.1492 51.5522C95.5719 51.5522 96.7311 50.393 96.7311 48.9704V48.2327C96.7311 47.7058 96.3095 47.2843 95.7826 47.2843ZM90.5926 48.2327V48.9704C90.5926 50.1823 89.6179 51.1834 88.406 51.1834C87.1941 51.1834 86.193 50.2086 86.193 48.9967V48.2591C86.193 47.9429 86.4565 47.6795 86.7726 47.6795H90.0131H90.0394C90.3292 47.6795 90.5926 47.9166 90.5926 48.2327ZM96.3622 48.9704C96.3622 50.1823 95.3875 51.1834 94.1756 51.1834C92.9637 51.1834 91.9626 50.2086 91.9626 48.9967V48.2591C91.9626 47.9429 92.226 47.6795 92.5422 47.6795H92.9374H95.809C96.1251 47.6795 96.3886 47.9429 96.3886 48.2591L96.3622 48.9704Z" fill="#21252B"/>
  <g opacity="0.15">
    <path opacity="0.15" d="M102.949 117.283H80.5819C80.4501 117.283 80.3711 117.178 80.3711 117.072C80.3711 116.967 80.4765 116.862 80.5819 116.862H102.949C103.081 116.862 103.16 116.967 103.16 117.072C103.16 117.178 103.081 117.283 102.949 117.283Z" fill="black"/>
  </g>
  <path opacity="0.15" d="M94.334 62.0112C94.334 62.0112 95.2824 94.7845 97.7852 116.914H100.999L94.334 62.0112Z" fill="black"/>
  <path opacity="0.15" d="M87.0359 117.046L73.7843 118.838C73.7843 118.838 73.4419 119.786 73.0204 121.182L69.332 122.842V218.817L73.6263 218.844L77.5254 135.198C88.8801 131.141 87.0359 117.046 87.0359 117.046Z" fill="black"/>
  <path opacity="0.15" d="M106.057 131.668C106.083 131.668 106.11 131.641 106.136 131.641L104.213 116.914H97.811L98.9702 127.584C99.3391 130.983 102.922 133.064 106.057 131.668Z" fill="black"/>
  <g opacity="0.15">
    <path opacity="0.15" d="M99.419 66.121H89.2234L88.4594 66.7797C88.275 66.9377 88.0116 66.9641 87.8008 66.806L86.7997 66.121H75.603V67.2802H99.419V66.121Z" fill="#0070b3"/>
    <path opacity="0.15" d="M99.418 71.1003H75.6021V72.2594H99.418V71.1003Z" fill="#0070b3"/>
    <path opacity="0.15" d="M99.418 76.1058H75.6021V77.265H99.418V76.1058Z" fill="black"/>
    <path opacity="0.15" d="M99.418 81.0851H75.6021V82.2442H99.418V81.0851Z" fill="black"/>
    <path opacity="0.15" d="M99.418 86.0906H75.6021V87.2498H99.418V86.0906Z" fill="black"/>
    <path opacity="0.15" d="M99.418 91.0698H75.6021V92.229H99.418V91.0698Z" fill="black"/>
    <path opacity="0.15" d="M99.418 96.0754H75.6021V97.2346H99.418V96.0754Z" fill="black"/>
    <path opacity="0.15" d="M100.604 101.055H75.6021V102.214H100.604V101.055Z" fill="black"/>
    <path opacity="0.15" d="M101.394 106.06H75.6021V107.219H101.394V106.06Z" fill="black"/>
    <path opacity="0.15" d="M102.948 111.039H75.6021V112.199H102.948V111.039Z" fill="black"/>
  </g>
  <path d="M68.1471 129.191L68.7267 94.0732L59.9801 82.376L59.7693 72.7336C59.6903 68.9926 62.2985 65.6995 65.9604 64.9092L80.7137 61.7477C82.7686 67.7808 88.0376 91.9129 87.0101 119.707C86.773 126.346 81.2669 131.615 74.628 131.615H70.5445C69.2009 131.641 68.1207 130.535 68.1471 129.191Z" fill="#21252B"/>
  <path opacity="0.4" d="M75.6026 97.2346L68.7266 94.0995L68.147 129.218C68.1206 130.561 69.2008 131.668 70.5444 131.668H74.6278C75.1021 131.668 75.5499 131.641 75.9978 131.589C75.8924 119.602 75.6026 97.2346 75.6026 97.2346Z" fill="black"/>
  <path d="M109.561 73.9456L106.637 131.167C106.611 131.431 106.4 131.641 106.137 131.641H105.662C103.871 131.641 102.343 130.324 102.053 128.559C98.0486 102.53 94.5974 67.8862 94.3076 62.0376L103.713 65.0409C106.769 65.9893 109.746 69.783 109.561 73.9456Z" fill="#21252B"/>
  <path d="M105.82 106.692L106.743 94.9689H98.3911L99.1024 106.692C99.1288 106.982 99.3659 107.219 99.682 107.219H105.241C105.557 107.193 105.794 106.982 105.82 106.692Z" fill="white"/>
  <path d="M106.769 93.9678H105.847L105.425 92.8877C105.399 92.8086 105.32 92.7823 105.267 92.7823H99.6555C99.5765 92.7823 99.5238 92.835 99.4974 92.8877L99.0759 93.9678H98.3646C98.2592 93.9678 98.1802 94.0468 98.1802 94.1522V94.8109C98.1802 94.9162 98.2592 94.9953 98.3646 94.9953H106.795C106.9 94.9953 106.979 94.9162 106.979 94.8109V94.1522C106.953 94.0468 106.874 93.9678 106.769 93.9678Z" fill="#0070b3"/>
  <path opacity="0.2" d="M106.769 93.9678H105.847L105.425 92.8877C105.399 92.8086 105.32 92.7823 105.267 92.7823H99.6555C99.5765 92.7823 99.5238 92.835 99.4974 92.8877L99.0759 93.9678H98.3646C98.2592 93.9678 98.1802 94.0468 98.1802 94.1522V94.8109C98.1802 94.9162 98.2592 94.9953 98.3646 94.9953H106.795C106.9 94.9953 106.979 94.9162 106.979 94.8109V94.1522C106.953 94.0468 106.874 93.9678 106.769 93.9678Z" fill="white"/>
  <path opacity="0.15" d="M105.768 93.7571H101.131L101.473 92.7823H99.6555C99.5765 92.7823 99.5238 92.835 99.4974 92.8877L99.0759 93.9678H98.3646C98.2592 93.9678 98.1802 94.0468 98.1802 94.1522V94.8109C98.1802 94.9162 98.2592 94.9953 98.3646 94.9953H99.8663C99.998 94.6264 100.156 94.1786 100.156 94.1786C100.182 94.0732 100.288 94.0205 100.393 94.0205H101.052H105.847L105.768 93.7571Z" fill="black"/>
  <path opacity="0.15" d="M106.742 95.2585L106.768 94.9689H98.417L99.1283 106.692C99.1547 106.982 99.3918 107.219 99.7079 107.219H100.103L100.393 95.6803L106.742 95.2585Z" fill="black"/>
  <path d="M102.554 103.715C104.299 103.715 105.715 102.347 105.715 100.659C105.715 98.9715 104.299 97.6034 102.554 97.6034C100.808 97.6034 99.3921 98.9715 99.3921 100.659C99.3921 102.347 100.808 103.715 102.554 103.715Z" fill="#0070b3"/>
  <path d="M95.9147 98.8416L98.5492 97.6034L98.5756 98.183C98.6019 98.6309 98.9707 98.9734 99.4186 98.9734L106.163 98.9207C106.663 98.9207 107.059 99.3159 107.059 99.8164V99.8428C107.059 100.343 106.663 100.765 106.137 100.791C105.267 100.791 104.082 100.818 104.082 100.818L106.137 100.791C106.637 100.791 107.059 101.186 107.059 101.687C107.059 102.187 106.663 102.609 106.163 102.609L104.029 102.635L106.242 102.609C106.716 102.609 107.085 102.978 107.111 103.452C107.111 103.9 106.769 104.269 106.321 104.321C105.425 104.4 104.082 104.506 104.082 104.506L106.479 104.743C106.822 104.769 107.111 105.059 107.111 105.428V105.454C107.111 105.849 106.795 106.166 106.4 106.166C103.607 106.166 89.6709 106.534 89.6709 106.534L92.5162 99.1578L93.8071 99.2368C94.5184 99.2368 95.2561 99.1314 95.9147 98.8416Z" fill="#FC9D9D"/>
  <g opacity="0.15">
    <path opacity="0.15" d="M106.005 100.976H104.53C104.398 100.976 104.319 100.87 104.319 100.765C104.319 100.659 104.424 100.554 104.53 100.554H106.005C106.137 100.554 106.216 100.659 106.216 100.765C106.216 100.87 106.11 100.976 106.005 100.976Z" fill="black"/>
  </g>
  <g opacity="0.15">
    <path opacity="0.15" d="M106.11 102.82H104.608C104.476 102.82 104.397 102.714 104.397 102.609C104.397 102.504 104.503 102.398 104.608 102.398H106.11C106.242 102.398 106.321 102.504 106.321 102.609C106.321 102.714 106.215 102.82 106.11 102.82Z" fill="black"/>
  </g>
  <path d="M59.7954 72.075V102.398C59.7954 105.612 62.509 108.141 65.6967 107.957L93.8859 106.376V99.1841L72.1776 97.8405L72.7572 71.5745" fill="#21252B"/>
  <path opacity="0.4" d="M66.6976 104.453C64.511 104.532 62.5878 102.899 62.5878 100.185L62.983 71.6799C63.1674 68.6766 64.0631 66.3582 66.5396 64.7511L65.9863 64.8829C62.1663 65.6996 59.5845 69.1771 59.7952 72.9708V102.372C59.7952 105.586 62.5088 108.141 65.7229 107.904L93.8858 106.376V104.717L66.6976 104.453Z" fill="black"/>
  <path opacity="0.4" d="M86.7198 98.7626L86.6934 98.3148L75.5758 97.6034L72.9676 76.6854C72.9413 76.501 72.6778 76.501 72.6515 76.7118L72.2036 97.8669L75.6285 98.0777L86.7198 98.7626Z" fill="black"/>
  <path opacity="0.15" d="M132.376 70.6261L138.251 74.7359L137.829 75.1574L137.566 75.5263L132.376 70.6261Z" fill="black"/>
  <path opacity="0.15" d="M93.8857 99.1841L94.5707 103.557C94.7024 104.427 95.4401 105.059 96.3095 105.085L107.137 105.375C107.137 105.375 107.137 106.034 106.426 106.087L93.8857 106.35V99.1841Z" fill="black"/>
  <path opacity="0.4" d="M113.486 99.1315L109.166 91.0172L109.482 82.8502C109.482 82.7185 109.403 82.6131 109.271 82.6131C109.14 82.6131 109.034 82.6921 109.034 82.8239L108.718 90.9908C108.718 91.0172 108.692 91.0435 108.692 91.0699L108.375 96.0491L111.221 101.608C113.434 105.955 119.572 106.113 122.049 101.924L122.259 101.555C119.361 103.373 115.225 102.53 113.486 99.1315Z" fill="black"/>
  <path opacity="0.4" d="M116.174 91.0962L117.122 89.8316L115.857 86.8283L115.594 90.8855C115.568 91.2016 115.989 91.3597 116.174 91.0962Z" fill="black"/>
  <path d="M60.6649 124.66H65.8549L50.2849 236.073H48.2563L60.6649 124.66Z" fill="#61656D"/>
  <path d="M263.68 236.073H261.651L246.082 124.66H251.272L263.68 236.073Z" fill="#61656D"/>
  <path opacity="0.5" d="M48.2563 236.073H49.1257L62.4827 127.795C62.5881 127.031 63.194 126.425 63.958 126.372L65.6441 126.214L65.8549 124.686H60.6649L48.2563 236.073Z" fill="black"/>
  <path opacity="0.5" d="M262.389 236.073L248.532 127.9C248.426 127.11 248.953 126.346 249.743 126.188L251.403 125.845L251.272 124.634H246.082L261.651 236.047H262.389V236.073Z" fill="black"/>
  <path d="M44.7259 124.66H49.9159L34.346 236.073H32.3174L44.7259 124.66Z" fill="#61656D"/>
  <path d="M247.742 236.073H245.713L230.143 124.66H235.333L247.742 236.073Z" fill="#61656D"/>
  <path opacity="0.5" d="M32.3174 236.073H33.1868L38.3768 196.582C38.3768 196.582 38.3768 196.582 39.9838 195.66L49.6788 126.188L49.8896 124.66H44.6996L32.3174 236.073Z" fill="black"/>
  <path opacity="0.5" d="M246.45 236.073L241.392 196.898C243.21 195.634 243.21 195.634 243.21 195.634L235.306 124.634H230.116L245.686 236.047H246.45V236.073Z" fill="black"/>
  <path d="M238.837 99.553C239.084 99.553 239.284 99.3525 239.284 99.1051C239.284 98.8577 239.084 98.6572 238.837 98.6572C238.589 98.6572 238.389 98.8577 238.389 99.1051C238.389 99.3525 238.589 99.553 238.837 99.553Z" fill="white"/>
  <path d="M194.445 69.783L185.593 87.5132L173.527 87.2761L172.447 93.0193L186.041 95.7065C188.254 96.1017 190.493 95.206 191.784 93.3882L198.476 84.0093" fill="#0070b3"/>
  <path d="M158.8 84.9051L155.613 84.4836L151.819 85.59C151.503 85.6954 151.371 86.0116 151.555 86.275C151.687 86.4594 151.924 86.5385 152.161 86.4858L155.797 85.8008L158.063 86.5385L155.797 85.8008L152.636 86.6965C152.372 86.7756 152.267 87.039 152.372 87.2498C152.478 87.4342 152.715 87.5132 152.925 87.4605L156.113 86.8546L159.406 87.8821L156.113 86.8546L153.848 87.7767C153.689 87.8557 153.637 88.0401 153.742 88.1719C153.821 88.2772 153.979 88.3299 154.137 88.2772L156.772 87.645L159.881 88.409L158.8 84.9051Z" fill="#966363"/>
  <path opacity="0.15" d="M158.8 84.9051L155.613 84.4836L151.819 85.59C151.503 85.6954 151.371 86.0116 151.555 86.275C151.687 86.4594 151.924 86.5385 152.161 86.4858L155.797 85.8008L158.063 86.5385L155.797 85.8008L152.636 86.6965C152.372 86.7756 152.267 87.039 152.372 87.2498C152.478 87.4342 152.715 87.5132 152.925 87.4605L156.113 86.8546L159.406 87.8821L156.113 86.8546L153.848 87.7767C153.689 87.8557 153.637 88.0401 153.742 88.1719C153.821 88.2772 153.979 88.3299 154.137 88.2772L156.772 87.645L159.881 88.409L158.8 84.9051Z" fill="black"/>
  <path d="M158.589 83.8777L163.279 86.5912C163.542 86.7493 163.858 86.8283 164.175 86.8547L173.527 87.2762L172.447 93.0194L164.965 91.5441C164.701 91.4914 164.438 91.4914 164.201 91.5441L163.779 91.6231C162.146 92.0446 160.539 91.8602 159.169 91.0435H159.143C158.958 90.9381 158.747 90.8591 158.51 90.8328C157.694 90.7537 155.718 90.543 155.718 90.543C155.586 90.543 155.507 90.4376 155.507 90.3322C155.507 89.8316 155.929 89.3838 156.534 89.3047L157.931 89.1203C158.668 89.0149 159.09 88.33 158.774 87.7504L157.378 85.3003C157.298 85.1422 157.14 85.0368 156.956 84.9841L152.003 83.6932C151.792 83.6405 151.634 83.4561 151.687 83.2717C151.713 83.0346 151.977 82.8765 152.24 82.9029C153.505 83.061 157.351 83.6142 158.247 83.7723C158.379 83.7723 158.484 83.7986 158.589 83.8777Z" fill="#966363"/>
  <path opacity="0.15" d="M185.62 87.5133L187.2 87.5659C187.569 87.5659 187.912 87.3552 188.043 86.9864L190.652 77.4494L185.62 87.5133Z" fill="black"/>
  <path d="M222.608 220.635C222.292 221.768 222.239 222.216 222.266 223.349L222.239 230.936C222.292 232.253 222.661 233.544 223.319 234.703L223.477 234.967C223.873 235.652 224.584 236.047 225.374 236.047H227.561C228.562 236.047 229.431 235.362 229.669 234.387C229.958 233.254 229.985 232.095 229.774 230.962L227.93 222.822C227.798 222.137 227.614 221.346 227.271 220.609H222.608V220.635Z" fill="#0070b3"/>
  <path d="M190.81 187.651L186.99 216.999C186.831 217.948 186.515 218.844 186.067 219.687L179.797 231.489L181.273 233.491L187.016 230.62L192.127 221.399C192.101 219.818 192.338 218.264 192.812 216.762L200.715 187.651H190.81Z" fill="#966363"/>
  <path opacity="0.15" d="M187.015 221.847C187.463 221.004 188.359 218.949 188.491 218L192.627 195.265C192.838 194.158 193.602 193.21 194.629 192.788L199.872 190.628L200.109 189.759L190.203 192.103L186.963 216.973C186.805 217.921 186.489 218.817 186.041 219.66L179.771 231.463L180.666 232.965L187.015 221.847Z" fill="black"/>
  <path d="M175.74 233.333L179.797 231.489C181.984 231.858 184.197 231.015 185.593 229.302L192.127 221.399C193.312 223.928 193.734 226.747 193.312 229.487L192.364 236.047H191.626L191.416 229.302C191.389 228.802 190.783 228.591 190.467 228.986L186.489 233.86C185.356 235.256 183.644 236.047 181.852 236.047H174.607C174.133 236.047 173.791 235.546 173.975 235.098C174.344 234.334 174.976 233.676 175.74 233.333Z" fill="#0070b3"/>
  <path d="M222.292 217.21C222.608 219.95 222.766 222.69 222.713 225.456L222.661 228.749C222.713 230.198 223.899 231.331 225.348 231.331H225.796C227.429 231.331 228.667 229.882 228.457 228.275L227.693 224.376C227.297 222.4 227.166 220.372 227.271 218.369L229.379 180.485L219.13 183.409L222.292 217.21Z" fill="#966363"/>
  <path d="M226.375 66.727L217.708 64.9619L203.587 65.12L198.397 66.5163C195.156 67.5437 193.549 70.3627 193.602 73.7612L194.076 76.2376L192.732 80.8743C191.942 83.8777 192.97 85.6165 195.051 88.0402C195.709 88.8042 196.052 89.1204 196.315 90.5693C196.315 90.5693 197.58 95.3378 197.817 97.3137C198.713 105.033 198.397 110.829 198.397 110.829L225.058 110.776C226.296 110.776 226.823 109.459 226.243 108.379C226.243 108.379 224.426 104.769 224.083 101.713C222.977 91.7549 225.822 79.8996 225.822 79.8996L231.407 73.7085C231.565 70.468 229.458 67.4383 226.375 66.727Z" fill="#0070b3"/>
  <path d="M199.056 110.802L190.204 192.34L229.3 182.329L229.695 148.792C229.853 136.225 228.351 123.685 225.269 111.514L225.085 110.75L199.056 110.802Z" fill="#3F4249"/>
  <g opacity="0.15">
    <path opacity="0.15" d="M212.149 100.396C212.07 100.396 211.991 100.343 211.991 100.264C211.964 100.185 212.043 100.08 212.122 100.08L223.266 97.9196C223.345 97.8932 223.451 97.9723 223.451 98.0513C223.477 98.1303 223.398 98.2357 223.319 98.2357L212.175 100.396C212.175 100.396 212.175 100.396 212.149 100.396Z" fill="black"/>
  </g>
  <path d="M207.697 100.87L204.483 100.238L203.771 100.923L204.615 101.924L207.697 100.87Z" fill="#966363"/>
  <path opacity="0.15" d="M207.697 100.87L204.483 100.238L203.771 100.923L204.615 101.924L207.697 100.87Z" fill="black"/>
  <path opacity="0.15" d="M219.289 184.832L222.292 217.237C222.424 218.369 222.529 219.502 222.582 220.609V220.635C222.687 222.242 222.713 223.849 222.687 225.456L222.634 228.749C222.687 230.146 223.794 231.252 225.164 231.331C223.925 230.356 224.004 228.776 223.978 227.59L221.739 188.336C221.66 187.124 222.345 185.991 223.451 185.491L229.221 182.83L229.247 182.329L219.289 184.832Z" fill="black"/>
  <path opacity="0.15" d="M173.501 87.3815L172.263 90.016C171.841 90.9381 170.84 91.465 169.839 91.3069L165.229 90.5692C164.86 90.4902 164.465 90.5166 164.122 90.6219C163.174 90.9381 161.066 91.4913 159.064 90.9644C159.09 90.9908 159.117 90.9908 159.143 90.9908H159.169C160.539 91.8075 162.146 91.9919 163.78 91.5704L164.201 91.4913C164.465 91.4386 164.728 91.4386 164.965 91.4913L172.447 92.9667L173.501 87.3815Z" fill="black"/>
  <path opacity="0.15" d="M207.117 106.35L211.57 105.401L224.531 104.321L224.663 104.374C225.295 106.192 225.532 106.798 226.033 107.957L224.136 108.036C221.185 108.088 218.235 107.931 215.284 107.588C212.571 107.272 209.831 107.298 207.091 107.693V106.35H207.117Z" fill="black"/>
  <path d="M231.065 71.232L228.351 71.4164C226.191 74.9993 224.9 77.8709 225.032 82.0334L224.847 83.6932L230.09 96.9975L217.26 99.4476L219.315 104.717L236.07 103.61C238.52 103.452 240.259 100.817 239.363 98.3411L231.065 71.232Z" fill="#0070b3"/>
  <path d="M197.844 113.7L198.134 110.802L225.032 110.723L225.77 113.7H197.844Z" fill="#21252B"/>
  <path opacity="0.2" d="M216.074 113.7C211.28 113.7 207.223 117.257 206.59 121.999L197.369 190.496L190.204 192.34L198.713 113.7H216.074Z" fill="black"/>
  <path d="M211.332 111.988L201.532 95.048C201.321 94.6791 200.847 94.4947 200.425 94.6528L186.594 99.3159C186.067 99.5003 185.83 100.08 186.094 100.554L195.341 116.625C195.551 116.967 195.973 117.151 196.394 117.046L210.779 113.252C211.359 113.121 211.622 112.488 211.332 111.988Z" fill="#3F4249"/>
  <path opacity="0.8" d="M211.332 111.988L201.532 95.048C201.321 94.6791 200.847 94.4947 200.425 94.6528L186.594 99.3159C186.067 99.5003 185.83 100.08 186.094 100.554L195.341 116.625C195.551 116.967 195.973 117.151 196.394 117.046L210.779 113.252C211.359 113.121 211.622 112.488 211.332 111.988Z" fill="black"/>
  <path d="M210.858 112.172L201.058 95.2323C200.847 94.8635 200.373 94.6791 199.951 94.8371L186.12 99.5266C185.593 99.711 185.356 100.291 185.619 100.765L194.867 116.835C195.077 117.178 195.499 117.362 195.92 117.257L210.305 113.463C210.858 113.279 211.148 112.646 210.858 112.172Z" fill="#21252B"/>
  <path d="M196.553 103.347C196.368 103.136 196.289 102.925 196.368 102.741C195.947 102.583 195.472 102.556 195.104 102.688C194.471 102.899 194.34 103.478 194.814 103.953C195.288 104.427 196.157 104.638 196.79 104.427C197.159 104.295 197.369 104.032 197.369 103.742C197.053 103.689 196.763 103.531 196.553 103.347Z" fill="#3F4249"/>
  <path opacity="0.4" d="M188.17 101.349C188.304 101.107 188.124 100.752 187.767 100.555C187.41 100.358 187.013 100.394 186.879 100.636C186.745 100.878 186.926 101.234 187.283 101.431C187.639 101.628 188.037 101.591 188.17 101.349Z" fill="black"/>
  <path d="M188.057 101.402C188.19 101.161 188.009 100.805 187.653 100.608C187.296 100.411 186.899 100.447 186.765 100.689C186.632 100.931 186.812 101.287 187.169 101.484C187.526 101.681 187.923 101.644 188.057 101.402Z" fill="#3F4249"/>
  <path opacity="0.5" d="M187.828 101.311C187.92 101.146 187.797 100.903 187.556 100.769C187.313 100.635 187.043 100.661 186.952 100.827C186.86 100.992 186.982 101.235 187.224 101.369C187.466 101.502 187.737 101.477 187.828 101.311Z" fill="black"/>
  <path opacity="0.4" d="M187.121 101.055C187.042 100.87 187.148 100.712 187.332 100.686C187.306 100.686 187.28 100.686 187.253 100.686C187.016 100.686 186.884 100.844 186.963 101.055C187.042 101.265 187.306 101.423 187.543 101.423C187.569 101.423 187.596 101.423 187.622 101.423C187.411 101.397 187.174 101.239 187.121 101.055Z" fill="black"/>
  <path d="M217.233 99.4476L209.777 100.87C209.698 100.897 209.593 100.897 209.514 100.897L204.798 100.818C204.298 100.818 203.823 100.896 203.349 101.054L197.896 103.057C197.659 103.136 197.527 103.399 197.606 103.636C197.685 103.9 197.948 104.058 198.186 103.979L203.402 102.609L198.449 105.322C198.212 105.454 198.107 105.744 198.238 106.008C198.37 106.245 198.633 106.35 198.897 106.244L203.955 104.242L199.397 106.034C199.16 106.139 199.029 106.403 199.108 106.666C199.187 106.93 199.45 107.088 199.714 107.009L204.35 105.744L200.346 106.85C200.135 106.903 200.003 107.14 200.056 107.351C200.109 107.562 200.32 107.72 200.557 107.667L211.226 105.401L219.341 104.717L217.233 99.4476Z" fill="#966363"/>
  <g opacity="0.15">
    <path opacity="0.15" d="M199.371 106.218C199.292 106.218 199.239 106.166 199.213 106.113C199.187 106.034 199.213 105.929 199.318 105.902L203.56 104.216C203.639 104.19 203.744 104.216 203.771 104.321C203.797 104.4 203.771 104.506 203.665 104.532L199.424 106.218C199.398 106.218 199.398 106.218 199.371 106.218Z" fill="black"/>
  </g>
  <g opacity="0.15">
    <path opacity="0.15" d="M200.32 107.008C200.241 107.008 200.188 106.956 200.162 106.877C200.135 106.798 200.188 106.692 200.267 106.666L204.271 105.559C204.351 105.533 204.456 105.586 204.482 105.665C204.509 105.744 204.456 105.849 204.377 105.875L200.372 106.982C200.346 107.008 200.346 107.008 200.32 107.008Z" fill="black"/>
  </g>
  <path opacity="0.15" d="M200.03 107.351C200.082 107.562 200.293 107.72 200.53 107.667L211.2 105.401L219.314 104.717L217.259 99.4476L217.549 102.503C217.602 103.109 217.18 103.636 216.601 103.742L210.489 104.743L200.03 107.351Z" fill="black"/>
  <path opacity="0.6" d="M217.233 99.4476L218.393 99.1841L220.579 104.611L219.288 104.717L217.233 99.4476Z" fill="black"/>
  <path d="M221.738 70.5207C221.986 70.5207 222.186 70.3202 222.186 70.0728C222.186 69.8255 221.986 69.625 221.738 69.625C221.491 69.625 221.291 69.8255 221.291 70.0728C221.291 70.3202 221.491 70.5207 221.738 70.5207Z" fill="white"/>
  <path d="M210.99 72.0223C211.237 72.0223 211.438 71.8216 211.438 71.5745C211.438 71.3271 211.237 71.1266 210.99 71.1266C210.742 71.1266 210.542 71.3271 210.542 71.5745C210.542 71.8216 210.742 72.0223 210.99 72.0223Z" fill="white"/>
  <path d="M226.217 101.871C226.465 101.871 226.665 101.671 226.665 101.423C226.665 101.176 226.465 100.976 226.217 100.976C225.97 100.976 225.77 101.176 225.77 101.423C225.77 101.671 225.97 101.871 226.217 101.871Z" fill="white"/>
  <path d="M222.16 81.1377C222.407 81.1377 222.608 80.937 222.608 80.6899C222.608 80.4425 222.407 80.242 222.16 80.242C221.912 80.242 221.712 80.4425 221.712 80.6899C221.712 80.937 221.912 81.1377 222.16 81.1377Z" fill="white"/>
  <path d="M232.593 81.4275C232.841 81.4275 233.041 81.227 233.041 80.9797C233.041 80.7323 232.841 80.5318 232.593 80.5318C232.345 80.5318 232.145 80.7323 232.145 80.9797C232.145 81.227 232.345 81.4275 232.593 81.4275Z" fill="white"/>
  <path d="M205.484 78.9774C205.732 78.9774 205.932 78.7769 205.932 78.5296C205.932 78.2822 205.732 78.0817 205.484 78.0817C205.236 78.0817 205.036 78.2822 205.036 78.5296C205.036 78.7769 205.236 78.9774 205.484 78.9774Z" fill="white"/>
  <path d="M196.368 82.0071C196.616 82.0071 196.816 81.8066 196.816 81.5593C196.816 81.3119 196.616 81.1114 196.368 81.1114C196.121 81.1114 195.92 81.3119 195.92 81.5593C195.92 81.8066 196.121 82.0071 196.368 82.0071Z" fill="white"/>
  <path d="M192.469 76.9225C192.717 76.9225 192.917 76.7218 192.917 76.4747C192.917 76.2273 192.717 76.0268 192.469 76.0268C192.222 76.0268 192.021 76.2273 192.021 76.4747C192.021 76.7218 192.222 76.9225 192.469 76.9225Z" fill="white"/>
  <path d="M191.126 90.3058C191.373 90.3058 191.573 90.1053 191.573 89.8579C191.573 89.6106 191.373 89.4101 191.126 89.4101C190.878 89.4101 190.678 89.6106 190.678 89.8579C190.678 90.1053 190.878 90.3058 191.126 90.3058Z" fill="white"/>
  <path d="M183.196 93.7044C183.443 93.7044 183.644 93.5039 183.644 93.2565C183.644 93.0091 183.443 92.8086 183.196 92.8086C182.949 92.8086 182.748 93.0091 182.748 93.2565C182.748 93.5039 182.949 93.7044 183.196 93.7044Z" fill="white"/>
  <path d="M177.742 88.8568C177.989 88.8568 178.19 88.6563 178.19 88.409C178.19 88.1616 177.989 87.9611 177.742 87.9611C177.494 87.9611 177.294 88.1616 177.294 88.409C177.294 88.6563 177.494 88.8568 177.742 88.8568Z" fill="white"/>
  <path d="M201.348 68.8873C201.595 68.8873 201.796 68.6866 201.796 68.4394C201.796 68.1921 201.595 67.9916 201.348 67.9916C201.1 67.9916 200.9 68.1921 200.9 68.4394C200.9 68.6866 201.1 68.8873 201.348 68.8873Z" fill="white"/>
  <path d="M212.518 84.6416C212.765 84.6416 212.966 84.4411 212.966 84.1937C212.966 83.9464 212.765 83.7459 212.518 83.7459C212.27 83.7459 212.07 83.9464 212.07 84.1937C212.07 84.4411 212.27 84.6416 212.518 84.6416Z" fill="white"/>
  <path d="M209.12 97.8669C209.367 97.8669 209.568 97.6664 209.568 97.4191C209.568 97.1717 209.367 96.9712 209.12 96.9712C208.872 96.9712 208.672 97.1717 208.672 97.4191C208.672 97.6664 208.872 97.8669 209.12 97.8669Z" fill="white"/>
  <path d="M216.18 107.298C216.427 107.298 216.628 107.098 216.628 106.851C216.628 106.603 216.427 106.403 216.18 106.403C215.932 106.403 215.732 106.603 215.732 106.851C215.732 107.098 215.932 107.298 216.18 107.298Z" fill="white"/>
  <path d="M203.771 90.6483C204.019 90.6483 204.219 90.4478 204.219 90.2005C204.219 89.9531 204.019 89.7526 203.771 89.7526C203.523 89.7526 203.323 89.9531 203.323 90.2005C203.323 90.4478 203.523 90.6483 203.771 90.6483Z" fill="white"/>
  <path d="M200.9 101.134C201.147 101.134 201.347 100.933 201.347 100.686C201.347 100.438 201.147 100.238 200.9 100.238C200.652 100.238 200.452 100.438 200.452 100.686C200.452 100.933 200.652 101.134 200.9 101.134Z" fill="white"/>
  <path d="M230.222 91.5177C230.469 91.5177 230.67 91.317 230.67 91.0698C230.67 90.8225 230.469 90.622 230.222 90.622C229.974 90.622 229.774 90.8225 229.774 91.0698C229.774 91.317 229.974 91.5177 230.222 91.5177Z" fill="white"/>
  <path d="M218.946 93.4672C219.194 93.4672 219.394 93.2668 219.394 93.0194C219.394 92.772 219.194 92.5715 218.946 92.5715C218.698 92.5715 218.498 92.772 218.498 93.0194C218.498 93.2668 218.698 93.4672 218.946 93.4672Z" fill="white"/>
  <path opacity="0.6" d="M216.311 67.4383L219.736 65.357L217.734 64.9355L203.613 65.0936L202.243 65.4624L205.615 67.4646C208.908 69.4405 213.045 69.4142 216.311 67.4383Z" fill="black"/>
  <path d="M217.681 43.1218C220.081 43.1218 222.028 41.1754 222.028 38.7748C222.028 36.374 220.081 34.4279 217.681 34.4279C215.281 34.4279 213.334 36.374 213.334 38.7748C213.334 41.1754 215.281 43.1218 217.681 43.1218Z" fill="#21252B"/>
  <path d="M220.158 42.3577C219.131 43.0691 217.787 43.3325 216.496 42.9637C214.178 42.3051 212.86 39.8813 213.519 37.5629C213.572 37.4049 213.624 37.2731 213.677 37.1151C215.627 37.4049 219.025 39.1436 220.158 42.3577Z" fill="#0070b3"/>
  <path d="M215.547 56.8473C215.337 61.5367 213.94 64.1452 216.548 64.2505C220.711 64.435 224.268 60.773 224.478 56.0836C224.689 51.3941 221.475 47.4424 217.286 47.2843C216.18 51.2888 215.732 52.1581 215.547 56.8473Z" fill="#21252B"/>
  <path d="M213.703 57.0987C214.059 53.0402 210.977 49.4544 206.817 49.0898C202.657 48.7249 198.995 51.7193 198.64 55.778C198.284 59.8365 201.369 63.4223 205.528 63.7869C209.688 64.1515 213.348 61.1571 213.703 57.0987Z" fill="#21252B"/>
  <path d="M215.732 53.6598L215.995 63.144C216.022 63.9081 216.549 64.5667 217.286 64.7774L218.367 65.0672L215.89 66.5953C212.966 68.4131 209.251 68.4394 206.3 66.6743L203.613 65.0672L204.825 64.7248C205.51 64.5403 206.011 63.9344 206.09 63.2494L207.328 51.9737L215.732 53.6598Z" fill="#966363"/>
  <path d="M209.119 60.6676L209.567 60.694C212.807 60.8257 215.521 58.3229 215.653 55.1088L215.995 46.9155C216.048 45.8353 215.205 44.9396 214.125 44.8869L206.458 44.5444C205.062 44.4917 203.876 45.5719 203.824 46.9682L203.508 54.5819C203.402 57.796 205.905 60.5359 209.119 60.6676Z" fill="#966363"/>
  <path d="M209.751 52.3425C210.102 52.3425 210.384 52.0593 210.384 51.7103C210.384 51.3609 210.102 51.078 209.751 51.078C209.401 51.078 209.119 51.3609 209.119 51.7103C209.119 52.0593 209.401 52.3425 209.751 52.3425Z" fill="#21252B"/>
  <path d="M209.488 51.7103C209.561 51.7103 209.619 51.6513 209.619 51.5786C209.619 51.5059 209.561 51.4468 209.488 51.4468C209.414 51.4468 209.356 51.5059 209.356 51.5786C209.356 51.6513 209.414 51.7103 209.488 51.7103Z" fill="white"/>
  <path d="M204.825 52.3425C205.176 52.3425 205.457 52.0593 205.457 51.7103C205.457 51.3609 205.176 51.078 204.825 51.078C204.475 51.078 204.193 51.3609 204.193 51.7103C204.193 52.0593 204.475 52.3425 204.825 52.3425Z" fill="#21252B"/>
  <path d="M204.562 51.6839C204.636 51.6839 204.694 51.6249 204.694 51.5522C204.694 51.4795 204.636 51.4205 204.562 51.4205C204.488 51.4205 204.43 51.4795 204.43 51.5522C204.43 51.6249 204.488 51.6839 204.562 51.6839Z" fill="white"/>
  <g opacity="0.3">
    <path opacity="0.3" d="M207.117 55.3983L207.96 55.4774C208.065 55.4774 208.145 55.3983 208.171 55.3193C208.171 55.2139 208.092 55.1349 208.013 55.1085L207.17 55.0295C206.959 55.0031 206.801 54.8187 206.827 54.608C206.854 54.3972 207.038 54.2391 207.249 54.2391C207.354 54.2391 207.433 54.1601 207.46 54.0811C207.46 53.9757 207.381 53.8967 207.301 53.8703C206.88 53.844 206.511 54.1601 206.485 54.5553C206.379 55.0032 206.696 55.372 207.117 55.3983Z" fill="black"/>
  </g>
  <path d="M201.348 50.7355C202.296 50.1032 201.927 48.8387 201.927 48.8387C201.769 48.3118 201.637 47.7585 201.637 47.1262C201.611 45.1767 202.665 44.4127 203.218 44.1492C203.429 44.0439 203.561 43.8594 203.561 43.6487C203.982 37.563 212.334 36.114 216.707 39.7496C219.341 41.9626 219.947 44.4127 219.737 46.7047C219.737 46.7047 219.578 47.7322 220.501 48.2327L219.368 48.7069C218.92 50.393 218.182 51.9474 217.761 53.1592C217.576 53.6861 216.628 51.5259 216.18 51.2888C216.127 51.2624 215.706 51.842 215.442 52.2108C215.284 52.4479 214.889 52.4216 214.81 52.1318C214.494 51.1043 214.362 50.0242 214.415 48.944L214.468 47.9693C212.334 47.6531 211.517 45.6246 211.517 45.6246C209.409 47.9693 205.879 47.7058 204.456 47.4951C204.114 47.4424 203.824 47.7058 203.798 48.0483L203.64 51.7103C203.64 51.7103 203.086 51.1834 202.56 50.2876L201.585 50.9726L201.348 50.7355Z" fill="#21252B"/>
  <path d="M215.232 55.4249C215.232 55.4249 217.998 55.8728 218.815 53.1856C219.631 50.4721 216.259 49.6817 215.548 52.4216L214.916 55.4249H215.232Z" fill="#966363"/>
  <path opacity="0.3" d="M218.077 51.6576C217.787 51.4205 217.524 51.3415 217.26 51.3678C216.997 51.3942 216.76 51.5522 216.549 51.842C216.338 52.1318 216.18 52.5007 216.154 52.8958L216.127 53.1856C216.101 53.3964 216.47 53.5018 216.496 53.2383C216.549 52.9222 216.549 52.9222 216.549 52.9222C216.549 52.8168 216.654 52.3162 216.865 52.0528C217.023 51.842 217.181 51.7366 217.339 51.7103C217.497 51.684 217.682 51.763 217.892 51.9211C217.971 51.9738 218.077 51.9738 218.156 51.8947C218.182 51.8157 218.156 51.7103 218.077 51.6576Z" fill="black"/>
  <path d="M201.901 52.2108C201.795 53.6071 202.849 54.8453 204.246 54.9507C205.642 55.0561 206.88 54.0023 206.985 52.606C207.012 52.1318 206.933 51.6576 206.722 51.2624C207.249 51.1043 207.749 51.2097 207.987 51.2888C207.881 51.5522 207.802 51.8157 207.776 52.1055C207.67 53.5017 208.724 54.74 210.121 54.8453C211.517 54.9507 212.755 53.8969 212.86 52.5006C212.966 51.1043 211.912 49.8661 210.516 49.7607C209.515 49.6817 208.619 50.1823 208.145 50.9726C207.881 50.8672 207.275 50.7092 206.564 50.9463C206.142 50.3403 205.457 49.9188 204.667 49.8398C203.244 49.7607 202.006 50.8145 201.901 52.2108ZM208.066 52.1318C208.171 50.9199 209.225 49.9979 210.437 50.1032C211.649 50.2086 212.571 51.2624 212.465 52.4743C212.36 53.6862 211.306 54.6082 210.094 54.5029C208.909 54.4238 207.987 53.3437 208.066 52.1318ZM202.243 52.2372C202.349 51.0253 203.403 50.1032 204.614 50.2086C205.826 50.314 206.748 51.3678 206.643 52.5797C206.538 53.7915 205.484 54.7136 204.272 54.6082C203.06 54.5029 202.138 53.4491 202.243 52.2372Z" fill="white"/>
  <path d="M216.074 55.0561C216.38 55.0561 216.627 54.8085 216.627 54.5029C216.627 54.1973 216.38 53.9496 216.074 53.9496C215.769 53.9496 215.521 54.1973 215.521 54.5029C215.521 54.8085 215.769 55.0561 216.074 55.0561Z" fill="#0070b3"/>
  <path opacity="0.15" d="M215.837 54.9771C216.179 55.0034 216.469 54.7663 216.495 54.4238C216.495 54.3184 216.469 54.1867 216.416 54.1077C216.548 54.213 216.627 54.3975 216.627 54.5819C216.601 54.898 216.337 55.1088 216.021 55.0824C215.916 55.0824 215.784 55.0297 215.705 54.9507C215.758 54.9507 215.81 54.9507 215.837 54.9771Z" fill="black"/>
  <path d="M205.089 48.6016C207.565 48.6806 209.251 47.9166 210.226 47.2316C211.306 46.5203 211.78 45.7826 211.807 45.7299C211.859 45.6509 211.833 45.5455 211.754 45.4928C211.675 45.4401 211.57 45.4665 211.517 45.5455C211.491 45.5719 209.62 48.3908 205.089 48.2591C205.01 48.2591 204.931 48.3381 204.931 48.4171C204.931 48.4962 205.01 48.5752 205.089 48.6016Z" fill="#21252B"/>
  <path opacity="0.15" d="M215.784 55.4513H214.889L215.837 57.3481L215.784 55.4513Z" fill="black"/>
  <path opacity="0.15" d="M206.221 59.6929C207.117 60.2198 208.145 60.4569 209.225 60.5096C209.462 60.5096 209.699 60.5096 209.936 60.5096C210.015 60.5096 210.121 60.5096 210.2 60.4832C210.226 60.4832 210.226 60.4832 210.252 60.4832C210.384 60.4569 210.516 60.4569 210.674 60.4305C210.727 60.4305 210.779 60.4042 210.832 60.4042C211.754 60.2461 212.439 59.93 212.887 59.6665C212.966 59.6138 213.071 59.6402 213.124 59.7192C213.177 59.7982 213.15 59.9036 213.071 59.9563C212.492 60.2988 211.596 60.694 210.384 60.8257C209.752 61.2999 208.672 61.8795 207.302 61.8795C206.854 61.8795 206.406 61.8268 205.984 61.7214L206.221 59.6929Z" fill="black"/>
  <path d="M206.642 56.3997C206.563 56.3997 206.511 56.4788 206.537 56.5578C206.853 57.1637 207.459 57.5852 208.171 57.5852C208.882 57.5852 209.488 57.1637 209.804 56.5578C209.83 56.4788 209.804 56.3997 209.699 56.3997H206.642Z" fill="white"/>
  <path opacity="0.6" d="M173.527 87.2498L174.791 87.2761L173.632 93.2565L172.447 93.0194L173.527 87.2498Z" fill="black"/>
  <path opacity="0.15" d="M231.223 96.7603L230.064 96.9711L225.348 85.0104L224.953 84.0093C225.322 82.2969 225.796 80.0575 226.112 78.7139C226.191 78.3978 226.639 78.3715 226.718 78.6876L231.987 95.4431C232.198 96.049 231.829 96.6549 231.223 96.7603Z" fill="black"/>
  <path opacity="0.15" d="M195.051 88.0138C192.97 85.5901 192.627 83.1927 193.417 80.1893L194.26 77.0806L194.972 73.7348C194.972 73.7084 194.972 73.6821 194.972 73.6821C194.972 73.6294 194.919 73.5767 194.84 73.5504C194.761 73.524 194.656 73.5767 194.629 73.6821L193.76 77.6338L193.338 78.9774C193.338 78.9774 189.94 83.8249 190.994 87.5133C191.389 88.8569 191.626 89.7526 190.809 90.8854L189.308 93.0721C187.964 94.3103 185.962 93.9941 185.962 93.9941L172.658 91.8338L172.42 93.0721L184.75 95.4958C184.724 95.4958 184.724 95.4958 184.697 95.4958L186.014 95.7329C187.911 96.0754 189.861 95.4431 191.178 94.0995C191.389 93.8888 191.573 93.678 191.758 93.4145L195.314 88.409C195.235 88.2509 195.156 88.1192 195.051 88.0138Z" fill="black"/>
  <path d="M244.896 122.684C244.896 123.764 244.026 124.66 242.92 124.66H36.1897C35.1096 124.66 34.2139 123.79 34.2139 122.684C34.2139 121.604 35.0833 120.708 36.1897 120.708H242.946C244.026 120.708 244.896 121.604 244.896 122.684Z" fill="#61656D"/>
  <path opacity="0.5" d="M244.896 122.684C244.896 123.764 244.026 124.66 242.92 124.66H36.1897C35.1096 124.66 34.2139 123.79 34.2139 122.684C34.2139 121.604 35.0833 120.708 36.1897 120.708H242.946C244.026 120.708 244.896 121.604 244.896 122.684Z" fill="black"/>
  <path d="M260.413 122.684C260.413 123.764 259.544 124.66 258.437 124.66H73.8636C72.7834 124.66 71.8877 123.79 71.8877 122.684C71.8877 121.604 72.7571 120.708 73.8636 120.708H258.437C259.517 120.708 260.413 121.604 260.413 122.684Z" fill="#61656D"/>
  <path d="M189.176 31.5826H165.439V61.8004H189.176V31.5826Z" fill="white"/>
  <path d="M185.988 34.6387H168.601V58.7708H185.988V34.6387Z" fill="#DDDDDD"/>
  <path d="M164.749 61.8107H165.434V31.5929H164.749V61.8107Z" fill="#DADDDF"/>
  <path d="M180.193 49.9978C182.273 49.9978 183.96 48.311 183.96 46.2305C183.96 44.1497 182.273 42.4631 180.193 42.4631C178.112 42.4631 176.425 44.1497 176.425 46.2305C176.425 48.311 178.112 49.9978 180.193 49.9978Z" fill="#0070b3"/>
  <path opacity="0.2" d="M170.129 56.1626L174.054 49.9979L177.98 56.0836L170.129 56.1626Z" fill="black"/>
  <path opacity="0.2" d="M179.323 37.2468H171.182V45.3874H179.323V37.2468Z" fill="black"/>
  <path d="M190.783 120.181L191.705 108.458H183.354L184.065 120.181C184.091 120.471 184.328 120.708 184.644 120.708H190.203C190.493 120.708 190.756 120.471 190.783 120.181Z" fill="white"/>
  <path d="M191.705 107.456H190.783L190.362 106.376C190.335 106.297 190.256 106.271 190.204 106.271H184.618C184.539 106.271 184.487 106.324 184.46 106.376L184.039 107.456H183.327C183.222 107.456 183.143 107.535 183.143 107.641V108.299C183.143 108.405 183.222 108.484 183.327 108.484H191.758C191.863 108.484 191.942 108.405 191.942 108.299V107.641C191.89 107.535 191.811 107.456 191.705 107.456Z" fill="#0070b3"/>
  <path opacity="0.2" d="M191.705 107.456H190.783L190.362 106.376C190.335 106.297 190.256 106.271 190.204 106.271H184.618C184.539 106.271 184.487 106.324 184.46 106.376L184.039 107.456H183.327C183.222 107.456 183.143 107.535 183.143 107.641V108.299C183.143 108.405 183.222 108.484 183.327 108.484H191.758C191.863 108.484 191.942 108.405 191.942 108.299V107.641C191.89 107.535 191.811 107.456 191.705 107.456Z" fill="white"/>
  <path opacity="0.15" d="M190.704 107.246H186.067L186.41 106.271H184.618C184.539 106.271 184.487 106.324 184.46 106.376L184.039 107.456H183.327C183.222 107.456 183.143 107.535 183.143 107.641V108.299C183.143 108.405 183.222 108.484 183.327 108.484H184.829C184.961 108.115 185.119 107.667 185.119 107.667C185.145 107.562 185.251 107.509 185.356 107.509H186.015H190.809L190.704 107.246Z" fill="black"/>
  <path opacity="0.15" d="M191.679 108.747L191.705 108.458H183.354L184.065 120.181C184.091 120.471 184.328 120.708 184.644 120.708H185.04L185.329 109.169L191.679 108.747Z" fill="black"/>
  <path d="M185.013 113.937C185.013 112.673 186.067 111.645 187.384 111.645C188.701 111.645 189.755 112.673 189.755 113.937" fill="#0070b3"/>
  <path d="M191.205 114.596H183.723L183.855 116.888H191.021L191.205 114.596Z" fill="#0070b3"/>
  <path d="M290.447 236.416H1.23029C1.12491 236.416 1.01953 236.337 1.01953 236.205C1.01953 236.073 1.12491 235.994 1.23029 235.994H290.473C290.578 235.994 290.684 236.073 290.684 236.205C290.684 236.337 290.578 236.416 290.447 236.416Z" fill="#B2B6BB"/>
</svg>
