<svg width="295" height="261" viewBox="0 0 295 261" fill="none"
  xmlns="http://www.w3.org/2000/svg">
  <g clip-path="url(#clip0)">
    <path d="M265.071 259.782L288.708 164.768C289.394 162.014 289.315 159.124 288.477 156.411L248.571 26.9764C247.651 23.9916 245.854 21.3519 243.416 19.3995C240.979 17.4473 238.011 16.2722 234.896 16.0265L31.7541 0.0488093C29.3991 -0.137968 27.0325 0.213016 24.8329 1.07524C22.6334 1.93746 20.6587 3.28835 19.0578 5.02578L-54.1747 84.5134C-55.6757 86.1425 -56.8125 88.0723 -57.5091 90.1751C-58.2057 92.2776 -58.4464 94.5046 -58.215 96.7075L-41.0749 259.785L265.071 259.782Z" fill="#F4F4F4"/>
    <path d="M159.389 85.9071H143.547V259.342H159.389V85.9071Z" fill="#DADDDF"/>
    <path d="M179.009 209.429H152.115V239.482H179.009V209.429Z" fill="#B2B6BB"/>
    <path d="M173.939 209.429H185.177V212.332H184.759V239.482H174.774V212.332H173.939V209.429Z" fill="#858990"/>
    <path d="M173.806 209.429H151.466V212.332H173.806V209.429Z" fill="#B2B6BB"/>
    <path d="M152.115 212.704H175.998L178.408 212.332H152.115V212.704Z" fill="#858990"/>
    <path d="M234.735 112.101H198.463V142.155H234.735V112.101Z" fill="#DADDDF"/>
    <path d="M227.055 112.101H235.367V115.004H234.735V142.155H228.319V115.004H227.055V112.101Z" fill="#B2B6BB"/>
    <path d="M227.882 112.101H197.506V115.004H227.882V112.101Z" fill="#B2B6BB"/>
    <path d="M230.587 115.005H198.463V115.377H230.587V115.005Z" fill="#B2B6BB"/>
    <path d="M242.575 85.9071H141.764V89.5072H239.009V142.245H141.764V146.195H239.009V259.342H242.575V85.9071Z" fill="white"/>
    <path d="M258.417 85.9071H242.575V259.342H258.417V85.9071Z" fill="#DADDDF"/>
    <path d="M143.547 259.34V85.9043H139.981V259.34H143.547Z" fill="white"/>
    <path d="M240.423 239.482H142.444V243.432H240.423V239.482Z" fill="white"/>
    <path d="M234.695 191.03H183.354V239.482H234.695V191.03Z" fill="#DADDDF"/>
    <path d="M226.524 191.03H235.367V195.711H234.695V239.482H227.867V195.711H226.524V191.03Z" fill="#B2B6BB"/>
    <path d="M226.307 191.03H182.335V195.711H226.307V191.03Z" fill="#DADDDF"/>
    <path d="M230.283 195.711H183.354V196.312H230.283V195.711Z" fill="#B2B6BB"/>
    <path d="M214.486 48.0864H17.5059C14.8289 48.0864 12.6587 50.2567 12.6587 52.9336V199.528C12.6587 202.205 14.8289 204.376 17.5059 204.376H214.486C217.163 204.376 219.333 202.205 219.333 199.528V52.9336C219.333 50.2567 217.163 48.0864 214.486 48.0864Z" fill="#0070b3"/>
    <path opacity="0.6" d="M214.486 48.0864H17.5059C14.8289 48.0864 12.6587 50.2567 12.6587 52.9336V199.528C12.6587 202.205 14.8289 204.376 17.5059 204.376H214.486C217.163 204.376 219.333 202.205 219.333 199.528V52.9336C219.333 50.2567 217.163 48.0864 214.486 48.0864Z" fill="white"/>
    <path d="M212.152 48.0864H15.1729C12.4959 48.0864 10.3257 50.2567 10.3257 52.9336V199.528C10.3257 202.205 12.4959 204.376 15.1729 204.376H212.152C214.83 204.376 217 202.205 217 199.528V52.9336C217 50.2567 214.83 48.0864 212.152 48.0864Z" fill="white"/>
    <path d="M15.1729 48.0864H26.419V204.378H15.1729C13.8874 204.378 12.6545 203.868 11.7454 202.959C10.8364 202.05 10.3257 200.817 10.3257 199.531V52.9336C10.3257 51.6482 10.8364 50.4152 11.7454 49.5062C12.6545 48.5971 13.8874 48.0864 15.1729 48.0864Z" fill="#0070b3"/>
    <path d="M21.7067 55.5798H15.0369C14.5132 55.5798 14.0889 56.0036 14.0889 56.5264C14.0889 57.0492 14.5132 57.4729 15.0369 57.4729H21.7067C22.2303 57.4729 22.6547 57.0492 22.6547 56.5264C22.6547 56.0036 22.2303 55.5798 21.7067 55.5798Z" fill="white"/>
    <path d="M20.1239 69.0636H16.6226C16.1661 69.0636 15.7959 69.4335 15.7959 69.8902V73.3916C15.7959 73.8481 16.1661 74.2183 16.6226 74.2183H20.1239C20.5804 74.2183 20.9506 73.8481 20.9506 73.3916V69.8902C20.9506 69.4335 20.5804 69.0636 20.1239 69.0636Z" fill="white"/>
    <path d="M20.1239 85.8002H16.6226C16.1661 85.8002 15.7959 86.1704 15.7959 86.6269V90.1282C15.7959 90.5847 16.1661 90.9549 16.6226 90.9549H20.1239C20.5804 90.9549 20.9506 90.5847 20.9506 90.1282V86.6269C20.9506 86.1704 20.5804 85.8002 20.1239 85.8002Z" fill="#0070b3"/>
    <path d="M20.1239 102.54H16.6226C16.1661 102.54 15.7959 102.91 15.7959 103.366V106.868C15.7959 107.324 16.1661 107.694 16.6226 107.694H20.1239C20.5804 107.694 20.9506 107.324 20.9506 106.868V103.366C20.9506 102.91 20.5804 102.54 20.1239 102.54Z" fill="#0070b3"/>
    <path d="M20.1239 119.276H16.6226C16.1661 119.276 15.7959 119.646 15.7959 120.102V123.604C15.7959 124.061 16.1661 124.43 16.6226 124.43H20.1239C20.5804 124.43 20.9506 124.061 20.9506 123.604V120.102C20.9506 119.646 20.5804 119.276 20.1239 119.276Z" fill="#0070b3"/>
    <path opacity="0.4" d="M20.1239 85.8002H16.6226C16.1661 85.8002 15.7959 86.1704 15.7959 86.6269V90.1282C15.7959 90.5847 16.1661 90.9549 16.6226 90.9549H20.1239C20.5804 90.9549 20.9506 90.5847 20.9506 90.1282V86.6269C20.9506 86.1704 20.5804 85.8002 20.1239 85.8002Z" fill="white"/>
    <path opacity="0.4" d="M20.1239 102.54H16.6226C16.1661 102.54 15.7959 102.91 15.7959 103.366V106.868C15.7959 107.324 16.1661 107.694 16.6226 107.694H20.1239C20.5804 107.694 20.9506 107.324 20.9506 106.868V103.366C20.9506 102.91 20.5804 102.54 20.1239 102.54Z" fill="white"/>
    <path opacity="0.4" d="M20.1239 119.276H16.6226C16.1661 119.276 15.7959 119.646 15.7959 120.102V123.604C15.7959 124.061 16.1661 124.43 16.6226 124.43H20.1239C20.5804 124.43 20.9506 124.061 20.9506 123.604V120.102C20.9506 119.646 20.5804 119.276 20.1239 119.276Z" fill="white"/>
    <path d="M52.1839 54.7954H32.7895C31.8827 54.7954 31.1475 55.5307 31.1475 56.4375C31.1475 57.3446 31.8827 58.0795 32.7895 58.0795H52.1839C53.0907 58.0795 53.826 57.3446 53.826 56.4375C53.826 55.5307 53.0907 54.7954 52.1839 54.7954Z" fill="#868A91"/>
    <path d="M210.403 53.2609H193.28C192.744 53.2609 192.31 53.6954 192.31 54.2314V58.6441C192.31 59.1802 192.744 59.6147 193.28 59.6147H210.403C210.939 59.6147 211.374 59.1802 211.374 58.6441V54.2314C211.374 53.6954 210.939 53.2609 210.403 53.2609Z" fill="#0070b3"/>
    <path d="M186.119 53.2609H168.996C168.46 53.2609 168.026 53.6954 168.026 54.2314V58.6441C168.026 59.1802 168.46 59.6147 168.996 59.6147H186.119C186.655 59.6147 187.09 59.1802 187.09 58.6441V54.2314C187.09 53.6954 186.655 53.2609 186.119 53.2609Z" stroke="#4D61FC" stroke-width="0.282141" stroke-miterlimit="10"/>
    <path d="M22.8131 192.541C22.8131 190.089 20.8257 188.102 18.3736 188.102C15.9218 188.102 13.9341 190.089 13.9341 192.541C13.9341 194.993 15.9218 196.981 18.3736 196.981C20.8257 196.981 22.8131 194.993 22.8131 192.541Z" fill="white"/>
    <path d="M18.3746 192.672C18.0553 192.672 17.7472 192.553 17.511 192.338C17.2746 192.123 17.1267 191.828 17.0966 191.509L17.0119 190.587C16.9938 190.409 17.0133 190.228 17.0692 190.058C17.125 189.888 17.2159 189.731 17.3361 189.598C17.4563 189.465 17.603 189.359 17.7669 189.286C17.9308 189.214 18.108 189.176 18.2872 189.176H18.4593C18.6387 189.176 18.8159 189.214 18.9798 189.286C19.1435 189.359 19.2905 189.465 19.4107 189.598C19.5309 189.731 19.6217 189.888 19.6776 190.058C19.7334 190.228 19.7529 190.409 19.7346 190.587L19.6499 191.509C19.62 191.827 19.4725 192.122 19.2369 192.337C19.001 192.552 18.6938 192.671 18.3746 192.672Z" fill="#0070b3"/>
    <path d="M22.1333 194.904C21.9575 195.187 21.7493 195.449 21.5126 195.683C21.0409 196.155 20.469 196.514 19.8395 196.734C19.2098 196.955 18.5386 197.03 17.8758 196.956C17.2128 196.881 16.5754 196.657 16.0106 196.302C15.446 195.947 14.9686 195.469 14.6143 194.904C14.7226 194.414 14.9952 193.976 15.3868 193.662C15.7781 193.348 16.2651 193.177 16.767 193.177H19.9806C20.4822 193.177 20.9692 193.348 21.3605 193.662C21.7521 193.976 22.0247 194.414 22.1333 194.904Z" fill="#0070b3"/>
    <g opacity="0.4">
      <path opacity="0.4" d="M18.3746 192.672C18.0553 192.672 17.7472 192.553 17.511 192.338C17.2746 192.123 17.1267 191.828 17.0966 191.509L17.0119 190.587C16.9938 190.409 17.0133 190.229 17.0692 190.058C17.125 189.888 17.2159 189.731 17.3361 189.598C17.4563 189.465 17.603 189.359 17.7669 189.286C17.9308 189.214 18.108 189.176 18.2872 189.176H18.4593C18.6387 189.176 18.8159 189.214 18.9798 189.286C19.1435 189.359 19.2905 189.465 19.4107 189.598C19.5309 189.731 19.6217 189.888 19.6776 190.058C19.7334 190.229 19.7529 190.409 19.7346 190.587L19.6499 191.509C19.62 191.827 19.4725 192.122 19.2369 192.337C19.001 192.552 18.6938 192.671 18.3746 192.672Z" fill="white"/>
      <path opacity="0.4" d="M22.1333 194.904C21.9575 195.187 21.7493 195.448 21.5126 195.682C21.0409 196.154 20.469 196.514 19.8395 196.734C19.2098 196.954 18.5386 197.03 17.8758 196.955C17.2128 196.88 16.5754 196.657 16.0106 196.302C15.446 195.947 14.9686 195.469 14.6143 194.904C14.7226 194.414 14.9952 193.976 15.3868 193.662C15.7781 193.348 16.2651 193.177 16.767 193.177H19.9806C20.4822 193.177 20.9692 193.348 21.3605 193.662C21.7521 193.976 22.0247 194.414 22.1333 194.904Z" fill="white"/>
    </g>
    <path d="M86.1621 65.9996H33.6839C32.2831 65.9996 31.1475 67.1352 31.1475 68.536V96.2902C31.1475 97.6911 32.2831 98.8267 33.6839 98.8267H86.1621C87.563 98.8267 88.6986 97.6911 88.6986 96.2902V68.536C88.6986 67.1352 87.563 65.9996 86.1621 65.9996Z" fill="#0070b3"/>
    <path opacity="0.5" d="M86.1621 65.9996H33.6839C32.2831 65.9996 31.1475 67.1352 31.1475 68.536V96.2902C31.1475 97.6911 32.2831 98.8267 33.6839 98.8267H86.1621C87.563 98.8267 88.6986 97.6911 88.6986 96.2902V68.536C88.6986 67.1352 87.563 65.9996 86.1621 65.9996Z" fill="white"/>
    <path d="M71.127 84.6149H38.7683C38.0686 84.6149 37.5015 85.182 37.5015 85.8817V89.8345C37.5015 90.5342 38.0686 91.1014 38.7683 91.1014H71.127C71.8265 91.1014 72.3938 90.5342 72.3938 89.8345V85.8817C72.3938 85.182 71.8265 84.6149 71.127 84.6149Z" fill="white"/>
    <path d="M78.0927 76.0855H51.6166C51.0044 76.0855 50.5078 76.5821 50.5078 77.1943C50.5078 77.8069 51.0044 78.3031 51.6166 78.3031H78.0927C78.7053 78.3031 79.2016 77.8069 79.2016 77.1943C79.2016 76.5821 78.7053 76.0855 78.0927 76.0855Z" fill="#0070b3"/>
    <path opacity="0.3" d="M78.0927 76.0855H51.6166C51.0044 76.0855 50.5078 76.5821 50.5078 77.1943C50.5078 77.8069 51.0044 78.3031 51.6166 78.3031H78.0927C78.7053 78.3031 79.2016 77.8069 79.2016 77.1943C79.2016 76.5821 78.7053 76.0855 78.0927 76.0855Z" fill="white"/>
    <path d="M42.0298 81.723C44.5307 81.723 46.5582 79.6955 46.5582 77.1946C46.5582 74.6937 44.5307 72.6663 42.0298 72.6663C39.5286 72.6663 37.5015 74.6937 37.5015 77.1946C37.5015 79.6955 39.5286 81.723 42.0298 81.723Z" fill="#0070b3"/>
    <path opacity="0.3" d="M42.0298 81.723C44.5307 81.723 46.5582 79.6955 46.5582 77.1946C46.5582 74.6937 44.5307 72.6663 42.0298 72.6663C39.5286 72.6663 37.5015 74.6937 37.5015 77.1946C37.5015 79.6955 39.5286 81.723 42.0298 81.723Z" fill="white"/>
    <path d="M147.48 66.0585H95.0977C93.7 66.0585 92.5669 67.1916 92.5669 68.5893V96.2928C92.5669 97.6905 93.7 98.8236 95.0977 98.8236H147.48C148.878 98.8236 150.011 97.6905 150.011 96.2928V68.5893C150.011 67.1916 148.878 66.0585 147.48 66.0585Z" fill="#0070b3"/>
    <path d="M132.473 84.6403H100.173C99.4752 84.6403 98.9092 85.206 98.9092 85.9043V89.8515C98.9092 90.5495 99.4752 91.1155 100.173 91.1155H132.473C133.171 91.1155 133.737 90.5495 133.737 89.8515V85.9043C133.737 85.206 133.171 84.6403 132.473 84.6403Z" fill="white"/>
    <path d="M139.425 76.1281H112.997C112.386 76.1281 111.891 76.6233 111.891 77.2341C111.891 77.845 112.386 78.3401 112.997 78.3401H139.425C140.036 78.3401 140.531 77.845 140.531 77.2341C140.531 76.6233 140.036 76.1281 139.425 76.1281Z" fill="#0070b3"/>
    <path opacity="0.3" d="M139.425 76.1281H112.997C112.386 76.1281 111.891 76.6233 111.891 77.2341C111.891 77.845 112.386 78.3401 112.997 78.3401H139.425C140.036 78.3401 140.531 77.845 140.531 77.2341C140.531 76.6233 140.036 76.1281 139.425 76.1281Z" fill="white"/>
    <path d="M103.429 81.7568C105.925 81.7568 107.949 79.733 107.949 77.2369C107.949 74.7406 105.925 72.717 103.429 72.717C100.933 72.717 98.9092 74.7406 98.9092 77.2369C98.9092 79.733 100.933 81.7568 103.429 81.7568Z" fill="#0070b3"/>
    <path opacity="0.3" d="M103.429 81.7568C105.925 81.7568 107.949 79.733 107.949 77.2369C107.949 74.7406 105.925 72.717 103.429 72.717C100.933 72.717 98.9092 74.7406 98.9092 77.2369C98.9092 79.733 100.933 81.7568 103.429 81.7568Z" fill="white"/>
    <path d="M208.846 66.0585H156.464C155.066 66.0585 153.933 67.1916 153.933 68.5893V96.2928C153.933 97.6905 155.066 98.8236 156.464 98.8236H208.846C210.243 98.8236 211.377 97.6905 211.377 96.2928V68.5893C211.377 67.1916 210.243 66.0585 208.846 66.0585Z" fill="#B2B6BB"/>
    <path d="M193.839 84.6403H161.539C160.841 84.6403 160.275 85.206 160.275 85.9043V89.8515C160.275 90.5495 160.841 91.1155 161.539 91.1155H193.839C194.536 91.1155 195.103 90.5495 195.103 89.8515V85.9043C195.103 85.206 194.536 84.6403 193.839 84.6403Z" fill="white"/>
    <path d="M200.791 76.1281H174.362C173.753 76.1281 173.256 76.6233 173.256 77.2341C173.256 77.845 173.753 78.3401 174.362 78.3401H200.791C201.403 78.3401 201.897 77.845 201.897 77.2341C201.897 76.6233 201.403 76.1281 200.791 76.1281Z" fill="#0070b3"/>
    <path d="M200.791 76.1281H174.362C173.753 76.1281 173.256 76.6233 173.256 77.2341C173.256 77.845 173.753 78.3401 174.362 78.3401H200.791C201.403 78.3401 201.897 77.845 201.897 77.2341C201.897 76.6233 201.403 76.1281 200.791 76.1281Z" fill="#868A91"/>
    <path d="M164.795 81.7568C167.292 81.7568 169.315 79.733 169.315 77.2369C169.315 74.7406 167.292 72.717 164.795 72.717C162.299 72.717 160.275 74.7406 160.275 77.2369C160.275 79.733 162.299 81.7568 164.795 81.7568Z" fill="#868A91"/>
    <path d="M208.846 102.703H156.464C155.066 102.703 153.933 103.836 153.933 105.234V173.117C153.933 174.515 155.066 175.648 156.464 175.648H208.846C210.243 175.648 211.377 174.515 211.377 173.117V105.234C211.377 103.836 210.243 102.703 208.846 102.703Z" fill="#0070b3"/>
    <path opacity="0.85" d="M208.846 102.703H156.464C155.066 102.703 153.933 103.836 153.933 105.234V173.117C153.933 174.515 155.066 175.648 156.464 175.648H208.846C210.243 175.648 211.377 174.515 211.377 173.117V105.234C211.377 103.836 210.243 102.703 208.846 102.703Z" fill="white"/>
    <path d="M195.735 120.718L195.475 120.436L190.611 124.976L190.871 125.258C192.829 127.347 193.915 130.105 193.909 132.969C193.904 135.833 192.806 138.586 190.84 140.668C188.87 142.749 186.184 144.002 183.326 144.17C180.468 144.337 177.652 143.408 175.455 141.571L175.172 141.326L170.918 146.435L171.2 146.681C174.696 149.602 179.176 151.081 183.724 150.814C188.272 150.547 192.549 148.555 195.678 145.245C198.81 141.934 200.559 137.554 200.574 132.997C200.585 128.441 198.858 124.051 195.746 120.724L195.735 120.718Z" fill="#0070b3"/>
    <path opacity="0.5" d="M195.735 120.718L195.475 120.436L190.611 124.976L190.871 125.258C192.829 127.347 193.915 130.105 193.909 132.969C193.904 135.833 192.806 138.586 190.84 140.668C188.87 142.749 186.184 144.002 183.326 144.17C180.468 144.337 177.652 143.408 175.455 141.571L175.172 141.326L170.918 146.435L171.2 146.681C174.696 149.602 179.176 151.081 183.724 150.814C188.272 150.547 192.549 148.555 195.678 145.245C198.81 141.934 200.559 137.554 200.574 132.997C200.585 128.441 198.858 124.051 195.746 120.724L195.735 120.718Z" fill="white"/>
    <path d="M195.735 120.718C193.582 118.409 190.857 116.714 187.835 115.803L187.468 115.698L187.107 115.597C184.15 114.836 181.047 114.845 178.093 115.622C175.139 116.4 172.434 117.921 170.235 120.041L169.953 120.303L174.566 125.099L174.848 124.834C176.939 122.812 179.738 121.685 182.647 121.691C183.671 121.691 184.692 121.829 185.68 122.103C187.663 122.662 189.455 123.755 190.86 125.263L191.122 125.545L195.986 121.005L195.735 120.718Z" fill="#0070b3"/>
    <path d="M175.454 141.57C174.241 140.558 173.254 139.301 172.559 137.882C171.864 136.463 171.475 134.913 171.419 133.334C171.362 131.754 171.638 130.18 172.23 128.715C172.822 127.25 173.716 125.925 174.853 124.828L175.136 124.566L170.523 119.769L170.241 120.035C168.428 121.779 167.003 123.886 166.059 126.217C165.116 128.55 164.675 131.054 164.765 133.568C164.855 136.083 165.475 138.549 166.583 140.808C167.691 143.066 169.264 145.065 171.197 146.674L171.479 146.917L175.748 141.827L175.454 141.57Z" fill="#61656D"/>
    <path d="M186.816 130.299H178.493C177.703 130.299 177.062 130.94 177.062 131.73V134.131C177.062 134.921 177.703 135.561 178.493 135.561H186.816C187.606 135.561 188.247 134.921 188.247 134.131V131.73C188.247 130.94 187.606 130.299 186.816 130.299Z" fill="#0070b3"/>
    <path opacity="0.4" d="M186.816 130.299H178.493C177.703 130.299 177.062 130.94 177.062 131.73V134.131C177.062 134.921 177.703 135.561 178.493 135.561H186.816C187.606 135.561 188.247 134.921 188.247 134.131V131.73C188.247 130.94 187.606 130.299 186.816 130.299Z" fill="white"/>
    <path d="M73.4737 179.44H34.4169C33.7485 179.44 33.2065 179.981 33.2065 180.65V197.356C33.2065 198.024 33.7485 198.566 34.4169 198.566H73.4737C74.1421 198.566 74.6841 198.024 74.6841 197.356V180.65C74.6841 179.981 74.1421 179.44 73.4737 179.44Z" fill="#0070b3"/>
    <path d="M119.037 179.44H79.9804C79.312 179.44 78.77 179.981 78.77 180.65V197.356C78.77 198.024 79.312 198.566 79.9804 198.566H119.037C119.706 198.566 120.248 198.024 120.248 197.356V180.65C120.248 179.981 119.706 179.44 119.037 179.44Z" fill="#0070b3"/>
    <path d="M164.603 179.44H125.546C124.878 179.44 124.336 179.981 124.336 180.65V197.356C124.336 198.024 124.878 198.566 125.546 198.566H164.603C165.272 198.566 165.813 198.024 165.813 197.356V180.65C165.813 179.981 165.272 179.44 164.603 179.44Z" fill="#0070b3"/>
    <path d="M210.166 179.44H171.109C170.441 179.44 169.899 179.981 169.899 180.65V197.356C169.899 198.024 170.441 198.566 171.109 198.566H210.166C210.835 198.566 211.376 198.024 211.376 197.356V180.65C211.376 179.981 210.835 179.44 210.166 179.44Z" fill="#0070b3"/>
    <g opacity="0.85">
      <path opacity="0.85" d="M73.4737 179.44H34.4169C33.7485 179.44 33.2065 179.981 33.2065 180.65V197.356C33.2065 198.024 33.7485 198.566 34.4169 198.566H73.4737C74.1421 198.566 74.6841 198.024 74.6841 197.356V180.65C74.6841 179.981 74.1421 179.44 73.4737 179.44Z" fill="white"/>
    </g>
    <g opacity="0.85">
      <path opacity="0.85" d="M119.037 179.44H79.9804C79.312 179.44 78.77 179.981 78.77 180.65V197.356C78.77 198.024 79.312 198.566 79.9804 198.566H119.037C119.706 198.566 120.248 198.024 120.248 197.356V180.65C120.248 179.981 119.706 179.44 119.037 179.44Z" fill="white"/>
    </g>
    <g opacity="0.85">
      <path opacity="0.85" d="M164.603 179.44H125.546C124.878 179.44 124.336 179.981 124.336 180.65V197.356C124.336 198.024 124.878 198.566 125.546 198.566H164.603C165.272 198.566 165.813 198.024 165.813 197.356V180.65C165.813 179.981 165.272 179.44 164.603 179.44Z" fill="white"/>
    </g>
    <g opacity="0.85">
      <path opacity="0.85" d="M210.166 179.44H171.109C170.441 179.44 169.899 179.981 169.899 180.65V197.356C169.899 198.024 170.441 198.566 171.109 198.566H210.166C210.835 198.566 211.376 198.024 211.376 197.356V180.65C211.376 179.981 210.835 179.44 210.166 179.44Z" fill="white"/>
    </g>
    <path d="M147.449 102.703H34.4512C33.0535 102.703 31.9204 103.836 31.9204 105.234V173.1C31.9204 174.498 33.0535 175.631 34.4512 175.631H147.449C148.846 175.631 149.98 174.498 149.98 173.1V105.234C149.98 103.836 148.846 102.703 147.449 102.703Z" fill="#0070b3"/>
    <path opacity="0.85" d="M147.449 102.703H34.4512C33.0535 102.703 31.9204 103.836 31.9204 105.234V173.1C31.9204 174.498 33.0535 175.631 34.4512 175.631H147.449C148.846 175.631 149.98 174.498 149.98 173.1V105.234C149.98 103.836 148.846 102.703 147.449 102.703Z" fill="white"/>
    <path opacity="0.2" d="M149.979 155.401H31.9824V155.658H149.979V155.401Z" fill="#0070b3"/>
    <path opacity="0.2" d="M149.979 135.728H31.9824V135.984H149.979V135.728Z" fill="#0070b3"/>
    <path opacity="0.2" d="M149.979 116.051H31.9824V116.308H149.979V116.051Z" fill="#0070b3"/>
    <path opacity="0.4" d="M31.9823 145.67C31.9823 145.67 48.6766 151.894 60.5603 145.67C72.4441 139.446 85.2731 125.243 102.723 140.01C117.237 152.295 124.135 125.243 133.759 125.243C143.383 125.243 149.982 143.498 149.982 143.498V173.1C149.982 173.773 149.715 174.419 149.238 174.896C148.762 175.372 148.116 175.639 147.443 175.639H34.4538C33.7803 175.639 33.1345 175.372 32.6583 174.896C32.182 174.419 31.9146 173.773 31.9146 173.1L31.9823 145.67Z" fill="#0070b3"/>
    <path d="M47.8189 148.692C45.7979 148.685 43.7798 148.541 41.7783 148.26C38.4171 147.804 35.1096 147.016 31.9033 145.91L32.0839 145.428C35.2585 146.521 38.5331 147.299 41.8601 147.752C46.9838 148.455 54.3646 148.627 60.4419 145.445C62.6595 144.282 64.8828 142.86 67.233 141.354C77.2349 134.952 88.5685 127.695 102.89 139.816C105.632 142.135 108.206 143.151 110.762 142.919C115.505 142.493 119.353 137.821 123.077 133.304C126.604 129.027 129.933 124.984 133.756 124.984C143.445 124.984 149.948 142.66 150.222 143.41L149.737 143.585C148.526 140.424 147.024 137.383 145.251 134.5C140.598 127.06 136.431 125.5 133.756 125.5C130.176 125.5 126.923 129.45 123.475 133.634C119.686 138.233 115.767 142.987 110.807 143.433C108.112 143.676 105.41 142.62 102.557 140.208C96.2879 134.901 90.0808 132.912 83.5464 134.131C77.7879 135.206 72.5627 138.552 67.5123 141.785C65.1508 143.297 62.9191 144.725 60.6817 145.896C58.055 147.273 53.8765 148.692 47.8189 148.692Z" fill="#0070b3"/>
    <path d="M90.8425 134.599C91.3038 134.599 91.6776 134.225 91.6776 133.764C91.6776 133.303 91.3038 132.929 90.8425 132.929C90.3812 132.929 90.0073 133.303 90.0073 133.764C90.0073 134.225 90.3812 134.599 90.8425 134.599Z" fill="#0070b3"/>
    <path d="M110.627 144.062C111.088 144.062 111.462 143.689 111.462 143.227C111.462 142.766 111.088 142.392 110.627 142.392C110.166 142.392 109.792 142.766 109.792 143.227C109.792 143.689 110.166 144.062 110.627 144.062Z" fill="#0070b3"/>
    <path d="M134.163 126.079C134.624 126.079 134.998 125.705 134.998 125.244C134.998 124.782 134.624 124.408 134.163 124.408C133.701 124.408 133.328 124.782 133.328 125.244C133.328 125.705 133.701 126.079 134.163 126.079Z" fill="#0070b3"/>
    <path d="M71.1911 140.135C71.6524 140.135 72.0262 139.761 72.0262 139.3C72.0262 138.838 71.6524 138.465 71.1911 138.465C70.7298 138.465 70.356 138.838 70.356 139.3C70.356 139.761 70.7298 140.135 71.1911 140.135Z" fill="#0070b3"/>
    <path d="M51.5969 149.056C52.0579 149.056 52.432 148.682 52.432 148.221C52.432 147.759 52.0579 147.386 51.5969 147.386C51.1356 147.386 50.7617 147.759 50.7617 148.221C50.7617 148.682 51.1356 149.056 51.5969 149.056Z" fill="#0070b3"/>
    <path d="M31.9826 146.627C32.4439 146.627 32.8177 146.253 32.8177 145.792C32.8177 145.331 32.4439 144.957 31.9826 144.957C31.5213 144.957 31.1475 145.331 31.1475 145.792C31.1475 146.253 31.5213 146.627 31.9826 146.627Z" fill="#0070b3"/>
    <path d="M149.979 144.062C150.44 144.062 150.814 143.689 150.814 143.227C150.814 142.766 150.44 142.392 149.979 142.392C149.518 142.392 149.144 142.766 149.144 143.227C149.144 143.689 149.518 144.062 149.979 144.062Z" fill="#0070b3"/>
    <path d="M72.3821 106.955H37.1343C36.2272 106.955 35.4922 107.69 35.4922 108.597C35.4922 109.504 36.2272 110.239 37.1343 110.239H72.3821C73.2889 110.239 74.0242 109.504 74.0242 108.597C74.0242 107.69 73.2889 106.955 72.3821 106.955Z" fill="#868A91"/>
    <path d="M181.531 106.955H159.44C158.533 106.955 157.798 107.69 157.798 108.597C157.798 109.504 158.533 110.239 159.44 110.239H181.531C182.44 110.239 183.173 109.504 183.173 108.597C183.173 107.69 182.44 106.955 181.531 106.955Z" fill="#868A91"/>
    <path d="M160.108 155.401H158.272C157.796 155.401 157.411 155.787 157.411 156.262V158.099C157.411 158.574 157.796 158.959 158.272 158.959H160.108C160.584 158.959 160.969 158.574 160.969 158.099V156.262C160.969 155.787 160.584 155.401 160.108 155.401Z" fill="#0070b3"/>
    <path opacity="0.5" d="M160.108 155.401H158.272C157.796 155.401 157.411 155.787 157.411 156.262V158.099C157.411 158.574 157.796 158.959 158.272 158.959H160.108C160.584 158.959 160.969 158.574 160.969 158.099V156.262C160.969 155.787 160.584 155.401 160.108 155.401Z" fill="white"/>
    <path d="M160.108 162.012H158.272C157.796 162.012 157.411 162.397 157.411 162.872V164.709C157.411 165.185 157.796 165.57 158.272 165.57H160.108C160.584 165.57 160.969 165.185 160.969 164.709V162.872C160.969 162.397 160.584 162.012 160.108 162.012Z" fill="#0070b3"/>
    <path d="M160.108 168.622H158.272C157.796 168.622 157.411 169.008 157.411 169.483V171.32C157.411 171.795 157.796 172.18 158.272 172.18H160.108C160.584 172.18 160.969 171.795 160.969 171.32V169.483C160.969 169.008 160.584 168.622 160.108 168.622Z" fill="#61656D"/>
    <path d="M189.085 156.318H164.369C163.892 156.318 163.506 156.705 163.506 157.182V157.184C163.506 157.661 163.892 158.048 164.369 158.048H189.085C189.562 158.048 189.948 157.661 189.948 157.184V157.182C189.948 156.705 189.562 156.318 189.085 156.318Z" fill="#0070b3"/>
    <path d="M189.085 162.929H164.369C163.892 162.929 163.506 163.315 163.506 163.792V163.795C163.506 164.272 163.892 164.658 164.369 164.658H189.085C189.562 164.658 189.948 164.272 189.948 163.795V163.792C189.948 163.315 189.562 162.929 189.085 162.929Z" fill="#0070b3"/>
    <path d="M189.085 169.539H164.369C163.892 169.539 163.506 169.926 163.506 170.403V170.406C163.506 170.882 163.892 171.269 164.369 171.269H189.085C189.562 171.269 189.948 170.882 189.948 170.406V170.403C189.948 169.926 189.562 169.539 189.085 169.539Z" fill="#0070b3"/>
    <path opacity="0.5" d="M189.085 156.318H164.369C163.892 156.318 163.506 156.705 163.506 157.182V157.184C163.506 157.661 163.892 158.048 164.369 158.048H189.085C189.562 158.048 189.948 157.661 189.948 157.184V157.182C189.948 156.705 189.562 156.318 189.085 156.318Z" fill="white"/>
    <path opacity="0.5" d="M189.085 162.929H164.369C163.892 162.929 163.506 163.315 163.506 163.792V163.795C163.506 164.272 163.892 164.658 164.369 164.658H189.085C189.562 164.658 189.948 164.272 189.948 163.795V163.792C189.948 163.315 189.562 162.929 189.085 162.929Z" fill="white"/>
    <path opacity="0.5" d="M189.085 169.539H164.369C163.892 169.539 163.506 169.926 163.506 170.403V170.406C163.506 170.882 163.892 171.269 164.369 171.269H189.085C189.562 171.269 189.948 170.882 189.948 170.406V170.403C189.948 169.926 189.562 169.539 189.085 169.539Z" fill="white"/>
    <path d="M207.034 156.318H200.226C199.749 156.318 199.363 156.705 199.363 157.182V157.184C199.363 157.661 199.749 158.048 200.226 158.048H207.034C207.511 158.048 207.898 157.661 207.898 157.184V157.182C207.898 156.705 207.511 156.318 207.034 156.318Z" fill="#0070b3"/>
    <path d="M207.034 162.929H200.226C199.749 162.929 199.363 163.315 199.363 163.792V163.795C199.363 164.272 199.749 164.658 200.226 164.658H207.034C207.511 164.658 207.898 164.272 207.898 163.795V163.792C207.898 163.315 207.511 162.929 207.034 162.929Z" fill="#0070b3"/>
    <path d="M207.034 169.539H200.226C199.749 169.539 199.363 169.926 199.363 170.403V170.406C199.363 170.882 199.749 171.269 200.226 171.269H207.034C207.511 171.269 207.898 170.882 207.898 170.406V170.403C207.898 169.926 207.511 169.539 207.034 169.539Z" fill="#0070b3"/>
    <path d="M67.2806 185.072H38.2313C37.7593 185.072 37.3765 185.454 37.3765 185.926C37.3765 186.398 37.7593 186.781 38.2313 186.781H67.2806C67.7529 186.781 68.1355 186.398 68.1355 185.926C68.1355 185.454 67.7529 185.072 67.2806 185.072Z" fill="#0070b3"/>
    <path opacity="0.15" d="M49.3477 190.333H38.5868C37.9185 190.333 37.3765 190.875 37.3765 191.544V193.541C37.3765 194.21 37.9185 194.752 38.5868 194.752H49.3477C50.0161 194.752 50.5581 194.21 50.5581 193.541V191.544C50.5581 190.875 50.0161 190.333 49.3477 190.333Z" fill="white"/>
    <path opacity="0.5" d="M67.2806 185.072H38.2313C37.7593 185.072 37.3765 185.454 37.3765 185.926C37.3765 186.398 37.7593 186.781 38.2313 186.781H67.2806C67.7529 186.781 68.1355 186.398 68.1355 185.926C68.1355 185.454 67.7529 185.072 67.2806 185.072Z" fill="white"/>
    <path d="M114.035 185.072H84.9858C84.5137 185.072 84.1309 185.454 84.1309 185.926C84.1309 186.398 84.5137 186.781 84.9858 186.781H114.035C114.507 186.781 114.89 186.398 114.89 185.926C114.89 185.454 114.507 185.072 114.035 185.072Z" fill="#0070b3"/>
    <path opacity="0.15" d="M96.1021 190.333H85.3413C84.6729 190.333 84.1309 190.875 84.1309 191.544V193.541C84.1309 194.21 84.6729 194.752 85.3413 194.752H96.1021C96.7708 194.752 97.3125 194.21 97.3125 193.541V191.544C97.3125 190.875 96.7708 190.333 96.1021 190.333Z" fill="white"/>
    <path opacity="0.5" d="M114.035 185.072H84.9858C84.5137 185.072 84.1309 185.454 84.1309 185.926C84.1309 186.398 84.5137 186.781 84.9858 186.781H114.035C114.507 186.781 114.89 186.398 114.89 185.926C114.89 185.454 114.507 185.072 114.035 185.072Z" fill="white"/>
    <path d="M159.877 185.072H130.828C130.355 185.072 129.973 185.454 129.973 185.926C129.973 186.398 130.355 186.781 130.828 186.781H159.877C160.349 186.781 160.732 186.398 160.732 185.926C160.732 185.454 160.349 185.072 159.877 185.072Z" fill="#0070b3"/>
    <path opacity="0.15" d="M141.944 190.333H131.183C130.514 190.333 129.973 190.875 129.973 191.544V193.541C129.973 194.21 130.514 194.752 131.183 194.752H141.944C142.612 194.752 143.154 194.21 143.154 193.541V191.544C143.154 190.875 142.612 190.333 141.944 190.333Z" fill="white"/>
    <path opacity="0.5" d="M159.877 185.072H130.828C130.355 185.072 129.973 185.454 129.973 185.926C129.973 186.398 130.355 186.781 130.828 186.781H159.877C160.349 186.781 160.732 186.398 160.732 185.926C160.732 185.454 160.349 185.072 159.877 185.072Z" fill="white"/>
    <path d="M205.16 185.072H176.111C175.64 185.072 175.256 185.454 175.256 185.926C175.256 186.398 175.64 186.781 176.111 186.781H205.16C205.632 186.781 206.015 186.398 206.015 185.926C206.015 185.454 205.632 185.072 205.16 185.072Z" fill="#0070b3"/>
    <path d="M187.228 190.333H176.467C175.798 190.333 175.256 190.875 175.256 191.544V193.541C175.256 194.21 175.798 194.752 176.467 194.752H187.228C187.896 194.752 188.438 194.21 188.438 193.541V191.544C188.438 190.875 187.896 190.333 187.228 190.333Z" fill="#0070b3"/>
    <path d="M49.3477 190.333H38.5868C37.9185 190.333 37.3765 190.875 37.3765 191.544V193.541C37.3765 194.21 37.9185 194.752 38.5868 194.752H49.3477C50.0161 194.752 50.5581 194.21 50.5581 193.541V191.544C50.5581 190.875 50.0161 190.333 49.3477 190.333Z" fill="#0070b3"/>
    <path d="M96.1021 190.333H85.3413C84.6729 190.333 84.1309 190.875 84.1309 191.544V193.541C84.1309 194.21 84.6729 194.752 85.3413 194.752H96.1021C96.7708 194.752 97.3125 194.21 97.3125 193.541V191.544C97.3125 190.875 96.7708 190.333 96.1021 190.333Z" fill="#0070b3"/>
    <path d="M141.944 190.333H131.183C130.514 190.333 129.973 190.875 129.973 191.544V193.541C129.973 194.21 130.514 194.752 131.183 194.752H141.944C142.612 194.752 143.154 194.21 143.154 193.541V191.544C143.154 190.875 142.612 190.333 141.944 190.333Z" fill="#0070b3"/>
    <path d="M187.228 190.333H176.467C175.798 190.333 175.256 190.875 175.256 191.544V193.541C175.256 194.21 175.798 194.752 176.467 194.752H187.228C187.896 194.752 188.438 194.21 188.438 193.541V191.544C188.438 190.875 187.896 190.333 187.228 190.333Z" fill="#0070b3"/>
    <path opacity="0.15" d="M49.3477 190.333H38.5868C37.9185 190.333 37.3765 190.875 37.3765 191.544V193.541C37.3765 194.21 37.9185 194.752 38.5868 194.752H49.3477C50.0161 194.752 50.5581 194.21 50.5581 193.541V191.544C50.5581 190.875 50.0161 190.333 49.3477 190.333Z" fill="white"/>
    <path opacity="0.15" d="M96.1021 190.333H85.3413C84.6729 190.333 84.1309 190.875 84.1309 191.544V193.541C84.1309 194.21 84.6729 194.752 85.3413 194.752H96.1021C96.7708 194.752 97.3125 194.21 97.3125 193.541V191.544C97.3125 190.875 96.7708 190.333 96.1021 190.333Z" fill="white"/>
    <path opacity="0.15" d="M141.944 190.333H131.183C130.514 190.333 129.973 190.875 129.973 191.544V193.541C129.973 194.21 130.514 194.752 131.183 194.752H141.944C142.612 194.752 143.154 194.21 143.154 193.541V191.544C143.154 190.875 142.612 190.333 141.944 190.333Z" fill="white"/>
    <path opacity="0.15" d="M49.3477 190.333H38.5868C37.9185 190.333 37.3765 190.875 37.3765 191.544V193.541C37.3765 194.21 37.9185 194.752 38.5868 194.752H49.3477C50.0161 194.752 50.5581 194.21 50.5581 193.541V191.544C50.5581 190.875 50.0161 190.333 49.3477 190.333Z" fill="white"/>
    <path opacity="0.15" d="M96.1021 190.333H85.3413C84.6729 190.333 84.1309 190.875 84.1309 191.544V193.541C84.1309 194.21 84.6729 194.752 85.3413 194.752H96.1021C96.7708 194.752 97.3125 194.21 97.3125 193.541V191.544C97.3125 190.875 96.7708 190.333 96.1021 190.333Z" fill="white"/>
    <path opacity="0.15" d="M141.944 190.333H131.183C130.514 190.333 129.973 190.875 129.973 191.544V193.541C129.973 194.21 130.514 194.752 131.183 194.752H141.944C142.612 194.752 143.154 194.21 143.154 193.541V191.544C143.154 190.875 142.612 190.333 141.944 190.333Z" fill="white"/>
    <path opacity="0.15" d="M187.228 190.333H176.467C175.798 190.333 175.256 190.875 175.256 191.544V193.541C175.256 194.21 175.798 194.752 176.467 194.752H187.228C187.896 194.752 188.438 194.21 188.438 193.541V191.544C188.438 190.875 187.896 190.333 187.228 190.333Z" fill="white"/>
    <path opacity="0.5" d="M205.16 185.072H176.111C175.64 185.072 175.256 185.454 175.256 185.926C175.256 186.398 175.64 186.781 176.111 186.781H205.16C205.632 186.781 206.015 186.398 206.015 185.926C206.015 185.454 205.632 185.072 205.16 185.072Z" fill="white"/>
    <path d="M-45.9951 259.588H273.324C273.352 259.582 273.38 259.568 273.4 259.545C273.42 259.523 273.428 259.495 273.428 259.464C273.428 259.435 273.42 259.407 273.4 259.385C273.38 259.362 273.352 259.348 273.324 259.342H-45.9951C-46.0244 259.348 -46.0512 259.362 -46.0707 259.385C-46.0899 259.407 -46.1006 259.435 -46.1006 259.464C-46.1006 259.495 -46.0899 259.523 -46.0707 259.545C-46.0512 259.568 -46.0244 259.582 -45.9951 259.588Z" fill="#B1B5BA"/>
    <path d="M118.295 27.445C118.295 24.5923 117.243 21.8397 115.34 19.7146C113.436 17.5895 110.816 16.2412 107.98 15.928L106.702 15.8518C103.628 15.8518 100.679 17.0732 98.5044 19.2474C96.3303 21.4216 95.1089 24.3702 95.1089 27.445C95.1089 30.5198 96.3303 33.4684 98.5044 35.6426C100.679 37.8168 103.628 39.0382 106.702 39.0382H107.98V38.962C110.815 38.6474 113.435 37.2988 115.338 35.174C117.241 33.0492 118.294 30.2974 118.295 27.445Z" fill="#858990"/>
    <path d="M105.777 39.0382C112.179 39.0382 117.37 33.8476 117.37 27.445C117.37 21.0424 112.179 15.8518 105.777 15.8518C99.3742 15.8518 94.1836 21.0424 94.1836 27.445C94.1836 33.8476 99.3742 39.0382 105.777 39.0382Z" fill="#B1B5BA"/>
    <path d="M105.777 37.7597C111.474 37.7597 116.092 33.1417 116.092 27.4447C116.092 21.748 111.474 17.1296 105.777 17.1296C100.08 17.1296 95.4619 21.748 95.4619 27.4447C95.4619 33.1417 100.08 37.7597 105.777 37.7597Z" fill="white"/>
    <path d="M105.777 37.7597C111.474 37.7597 116.092 33.1417 116.092 27.4447C116.092 21.748 111.474 17.1296 105.777 17.1296C100.08 17.1296 95.4619 21.748 95.4619 27.4447C95.4619 33.1417 100.08 37.7597 105.777 37.7597Z" fill="#858990"/>
    <path opacity="0.9" d="M105.777 37.7597C111.474 37.7597 116.092 33.1417 116.092 27.4447C116.092 21.748 111.474 17.1296 105.777 17.1296C100.08 17.1296 95.4619 21.748 95.4619 27.4447C95.4619 33.1417 100.08 37.7597 105.777 37.7597Z" fill="white"/>
    <path d="M105.779 17.1211C105.967 17.1175 106.156 17.1259 106.343 17.1465C103.707 17.2848 101.225 18.4289 99.4082 20.3435C97.5912 22.2581 96.5783 24.7968 96.5783 27.4362C96.5783 30.0757 97.5912 32.6144 99.4082 34.529C101.225 36.4436 103.707 37.5879 106.343 37.7259C106.165 37.7259 105.985 37.7513 105.779 37.7513C103.043 37.7513 100.42 36.6645 98.485 34.7301C96.5507 32.7958 95.4639 30.1719 95.4639 27.4362C95.4639 24.7006 96.5507 22.077 98.485 20.1423C100.42 18.208 103.043 17.1211 105.779 17.1211Z" fill="#858990"/>
    <path d="M105.881 28.2378L102.45 21.4325C102.395 21.3078 102.389 21.1665 102.434 21.0378C102.48 20.9092 102.573 20.8025 102.694 20.7404C102.816 20.6781 102.956 20.6648 103.087 20.7035C103.218 20.7419 103.33 20.829 103.398 20.9472L106.341 26.8073L110.257 24.8888C110.386 24.8278 110.533 24.8202 110.668 24.8682C110.802 24.9161 110.911 25.0154 110.972 25.1441C111.033 25.2728 111.041 25.4203 110.993 25.5546C110.945 25.6886 110.846 25.7984 110.717 25.8593L105.881 28.2378Z" fill="#0070b3"/>
    <path opacity="0.5" d="M114.604 32.7405C115.579 31.1373 116.093 29.2961 116.088 27.4193C116.091 26.0644 115.825 24.7223 115.308 23.4702C114.791 22.2177 114.031 21.0799 113.073 20.1217C112.115 19.1633 110.977 18.4035 109.725 17.8857C108.473 17.368 107.131 17.1025 105.776 17.1042C105.494 17.1042 105.212 17.1296 104.93 17.1296L114.604 32.7405Z" fill="white"/>
    <path opacity="0.5" d="M103.37 17.4036C102.875 17.5252 102.387 17.6787 101.912 17.8635L112.582 35.1785C112.999 34.81 113.384 34.4068 113.733 33.9737L103.37 17.4036Z" fill="white"/>
    <path d="M48.3836 184.73L47.1732 198.044L43.2684 240.997C43.0153 243.15 42.8779 245.317 42.8564 247.487C42.8564 247.969 42.8564 248.452 42.8564 248.937L42.9072 252.108C42.8835 252.777 42.6002 253.412 42.1175 253.874C41.6345 254.34 40.9898 254.597 40.32 254.594H39.8883C39.519 254.591 39.1542 254.512 38.8184 254.357C38.4827 254.205 38.1836 253.982 37.941 253.702C37.6986 253.423 37.5183 253.096 37.4122 252.743C37.3061 252.39 37.2771 252.018 37.3265 251.651L38.0628 247.896C38.4387 245.991 38.5752 244.05 38.4691 242.112L36.9033 197.753V197.627L36.4434 184.603L48.3836 184.73Z" fill="#FC9D9D"/>
    <path opacity="0.15" d="M47.173 198.044L43.2681 240.998C43.0153 243.15 42.8779 245.317 42.8562 247.487C42.3173 248.023 41.485 248.494 41.5725 246.124L44.092 202.77C44.1196 202.31 44.0217 201.851 43.8084 201.443C43.5951 201.034 43.2749 200.691 42.8816 200.451C40.9924 199.337 38.9878 198.43 36.903 197.748C36.6209 197.649 36.4375 197.601 36.4375 197.601L36.8974 197.621L47.173 198.044Z" fill="black"/>
    <path d="M41.5361 247.14C42.4192 247.14 43.1612 246.011 43.2458 246.858C43.274 247.162 43.2994 247.521 43.2994 247.851L43.3276 254.774C43.2946 255.993 42.9425 257.181 42.3063 258.222L42.1709 258.471C41.9742 258.775 41.7042 259.026 41.386 259.198C41.0677 259.373 40.7108 259.464 40.3482 259.464H38.2265C37.7675 259.466 37.3195 259.32 36.9507 259.046C36.5822 258.772 36.3128 258.386 36.1838 257.946C35.9133 256.919 35.8757 255.844 36.0738 254.803L37.84 247.382C37.8936 247.1 37.9783 246.832 38.0601 246.536C38.2801 245.848 38.9432 247.1 39.7134 247.1H41.5361V247.128V247.14Z" fill="#37383A"/>
    <path d="M43.1834 251.361L43.0198 251.169C42.8807 251.008 42.6987 250.892 42.4955 250.833C42.2921 250.774 42.0763 250.774 41.8728 250.833C41.6697 250.892 41.4874 251.008 41.3483 251.169C41.209 251.327 41.1184 251.524 41.0871 251.733L39.8739 259.54H38.5224L38.8046 251.871C38.8071 251.657 38.7481 251.445 38.6344 251.262C38.5207 251.078 38.3571 250.932 38.1627 250.839C37.9683 250.745 37.7516 250.712 37.5378 250.737C37.3242 250.762 37.1224 250.85 36.9565 250.988L38.1133 246.271C38.139 246.172 38.1856 246.079 38.2496 245.997C38.3139 245.918 38.3943 245.85 38.4857 245.805C38.5772 245.757 38.6773 245.732 38.78 245.726C38.8827 245.721 38.9851 245.737 39.0811 245.774L39.713 246.022C40.3326 246.265 41.0194 246.276 41.6457 246.051L42.2805 245.831C42.3903 245.791 42.5074 245.783 42.6219 245.797C42.7368 245.814 42.846 245.859 42.9402 245.926C43.0347 245.994 43.1117 246.082 43.1648 246.186C43.2178 246.288 43.2455 246.403 43.2455 246.519V251.346L43.1834 251.361Z" fill="#21252B"/>
    <path d="M63.6101 87.4727C63.6237 87.6 63.6113 87.7286 63.574 87.8511C63.5365 87.9735 63.4747 88.0869 63.392 88.1848C63.3097 88.2825 63.2081 88.3626 63.0938 88.4201C62.9795 88.4777 62.8548 88.5116 62.727 88.5195V88.5759L62.4731 89.8314L62.4251 90.0656C62.4054 90.1531 62.3856 90.2405 62.3603 90.3223C61.6888 92.887 60.1426 94.23 57.846 94.23H56.6892L56.8105 95.8946C56.867 96.6592 59.6178 96.6451 60.3599 96.837L61.4687 98.3549L52.1383 103.084L40.9062 98.0474L45.4769 96.6592C47.2318 96.0244 48.0585 94.7096 48.6933 93.6206L49.3225 91.7528L47.5027 79.0564L51.9718 77.2366H59.9423L62.0386 82.1177L62.4816 85.8702C62.5149 86.0372 62.5837 86.1949 62.6836 86.3326C62.7835 86.4705 62.9118 86.5851 63.06 86.6686C63.2151 86.7414 63.348 86.8543 63.4448 86.9956C63.5416 87.1372 63.5986 87.3017 63.6101 87.4727Z" fill="#FC9D9D"/>
    <path d="M58.1568 80.4417C57.4768 75.0416 52.7764 73.5434 47.5088 75.1008C42.1481 76.6949 39.781 83.9347 42.0776 89.0753C44.3742 94.2159 51.3882 95.2824 54.9291 93.5895C57.9706 92.1083 58.8396 85.8419 58.1568 80.4417Z" fill="#231F20"/>
    <path opacity="0.15" d="M45.3253 73.5807C40.8336 76.8705 38.8671 84.5616 41.0142 90.3229C40.6559 89.8574 57.2175 94.462 57.7818 94.2306C58.4875 92.9937 59.0551 91.6834 59.4747 90.3229C59.1022 91.412 58.8483 93.198 59.1643 93.7961C59.4041 94.2475 60.417 93.4632 60.417 93.4632C61.2634 90.5148 61.0067 83.5233 60.9305 81.001C59.2828 79.895 47.179 72.3026 45.3253 73.5807Z" fill="black"/>
    <path d="M45.0882 73.5804C46.9523 72.2989 49.166 71.6232 51.4279 71.6449C54.5315 71.5603 62.7531 73.5945 63.1565 81.2123C62.4879 81.7371 61.3819 81.6609 60.8994 82.1067C61.1816 87.7891 59.8386 94.9329 58.7213 97.7091C58.3291 97.348 57.9144 96.984 57.4742 96.6342C58.2377 94.7771 58.7137 92.8143 58.8849 90.8136C58.436 92.6537 57.6726 94.4024 56.6278 95.9824C51.3546 91.9704 43.8948 89.4932 40.9408 90.8785C38.8021 85.1172 40.5824 76.8702 45.0882 73.5804Z" fill="#21252B"/>
    <g opacity="0.15">
      <path opacity="0.15" d="M61.6154 89.5439C61.6013 89.525 61.5841 89.5089 61.5646 89.496C61.5102 89.4613 61.4445 89.4491 61.3813 89.4621C61.3499 89.4669 61.32 89.4785 61.2938 89.496C61.2675 89.5135 61.2452 89.5366 61.2289 89.5637C61.195 89.6125 61.1809 89.6723 61.1885 89.7313C61.1964 89.79 61.2258 89.8441 61.2712 89.8825C61.4123 90.0244 61.5802 90.1364 61.7652 90.212C61.9506 90.2877 62.149 90.3252 62.349 90.3226C62.3744 90.2408 62.3941 90.1534 62.4139 90.0659L62.4618 89.8317C62.3081 89.8506 62.152 89.8345 62.0056 89.7846C61.8589 89.7349 61.7257 89.6526 61.6154 89.5439Z" fill="black"/>
    </g>
    <path d="M62.4315 87.738C61.7685 87.738 61.4102 86.3273 61.4102 84.9814C61.4102 83.6356 61.7685 82.2221 62.4315 82.2221C63.0945 82.2221 63.4529 83.6328 63.4529 84.9814C63.4529 86.3301 63.0776 87.738 62.4315 87.738ZM62.4315 82.555C62.1296 82.555 61.7149 83.4917 61.7149 85.0097C61.7149 86.5276 62.1296 87.4643 62.4315 87.4643C62.7334 87.4643 63.1481 86.5248 63.1481 85.0097C63.1481 83.4946 62.7136 82.555 62.4315 82.555Z" fill="#21252B"/>
    <path d="M84.1928 254.749L82.7821 256.679L77.2521 253.911L72.3316 245.032C72.3496 243.52 72.1228 242.016 71.6601 240.577L61.1588 200.552L60.5352 198.177L56.9746 184.606L70.6895 184.967L72.2074 197.844L77.2662 240.794C77.42 241.7 77.7202 242.575 78.1549 243.384L84.1928 254.749Z" fill="#FA9B9B"/>
    <path opacity="0.15" d="M84.1932 254.749L82.7825 256.679L75.8615 243.579C75.3328 242.578 75.0016 241.481 74.8853 240.354L71.3501 205.803C71.2533 205.025 70.9263 204.294 70.4111 203.703C69.8957 203.112 69.2157 202.689 68.4582 202.488L61.1592 200.552L60.5356 198.177L72.2078 197.844L77.2666 240.794C77.4204 241.7 77.7206 242.575 78.1553 243.384L84.1932 254.749Z" fill="black"/>
    <path d="M89.7991 258.225C89.8388 258.327 89.8535 258.434 89.8419 258.541C89.8306 258.648 89.7934 258.753 89.7336 258.84C89.6735 258.93 89.5928 259.004 89.4983 259.057C89.4035 259.108 89.2977 259.136 89.1896 259.139H82.2151C81.3611 259.142 80.5172 258.956 79.7447 258.589C78.9719 258.225 78.2902 257.695 77.7488 257.034L73.9173 252.34C73.8522 252.258 73.7633 252.196 73.6626 252.168C73.5618 252.137 73.4543 252.139 73.3547 252.17C73.2549 252.204 73.168 252.269 73.1056 252.354C73.0433 252.438 73.0086 252.54 73.006 252.644L72.8029 259.134H72.0919L71.1777 252.822C70.7732 250.17 71.1659 247.459 72.3063 245.032L78.5981 252.65C79.2591 253.463 80.1239 254.086 81.1043 254.456C82.0848 254.825 83.1456 254.93 84.1788 254.755L88.0865 256.532C88.8364 256.879 89.4419 257.48 89.7991 258.225Z" fill="#21252B"/>
    <path d="M44.8591 96.7216L37.0608 98.169C36.0713 98.3617 35.1402 98.7821 34.3412 99.3971C33.5425 100.012 32.8981 100.805 32.459 101.713C32.2266 102.193 32.055 102.702 31.9484 103.225L27.0843 126.905C26.9373 127.622 26.9519 128.363 27.1269 129.074C27.3018 129.785 27.6327 130.448 28.0957 131.016C28.5584 131.583 29.1419 132.04 29.8035 132.354C30.4649 132.667 31.188 132.83 31.9202 132.83H46.7269L46.837 126.372L36.0056 126.186L40.2687 104.179L44.8591 96.7216Z" fill="#3F4249"/>
    <path d="M114.988 96.4025L110.968 100.635L111.25 100.46C111.427 100.347 111.64 100.302 111.847 100.334C112.055 100.366 112.244 100.473 112.379 100.635C112.493 100.777 112.556 100.954 112.556 101.137C112.558 101.261 112.532 101.383 112.481 101.496C112.429 101.608 112.354 101.708 112.26 101.789L112.142 101.876C112.224 101.808 112.319 101.758 112.422 101.728C112.525 101.698 112.633 101.69 112.739 101.704C112.845 101.719 112.946 101.754 113.038 101.809C113.129 101.865 113.208 101.938 113.27 102.026C113.358 102.157 113.409 102.31 113.417 102.468C113.415 102.681 113.33 102.883 113.18 103.033L112.827 103.357C112.906 103.284 112.999 103.228 113.101 103.194C113.203 103.159 113.311 103.148 113.419 103.159C113.526 103.17 113.629 103.204 113.722 103.259C113.814 103.314 113.894 103.387 113.956 103.476C114.047 103.594 114.098 103.738 114.103 103.888C114.102 104.062 114.039 104.23 113.925 104.362L112.655 105.899L112.212 106.464C111.024 107.94 109.432 109.038 107.63 109.624L106.273 110.067L98.1164 116.274L95.0439 111.249L103.17 106.17L108.753 99.9631L114.221 95.5307C114.34 95.4333 114.492 95.3851 114.646 95.3961C114.8 95.4071 114.943 95.4765 115.048 95.5899C115.103 95.6441 115.148 95.7084 115.178 95.7795C115.209 95.8509 115.225 95.9273 115.225 96.0047C115.189 96.1581 115.106 96.2969 114.988 96.4025Z" fill="#FC9D9D"/>
    <path opacity="0.15" d="M106.728 108.625L105.545 109.009C105.417 109.042 105.296 109.103 105.193 109.186L97.0952 115.066L98.0404 116.308L106.197 110.1L107.554 109.658C109.356 109.072 110.948 107.974 112.136 106.498L112.579 105.933L113.849 104.396C113.963 104.264 114.027 104.096 114.027 103.922L112.164 105.815C110.96 107.324 108.516 108.032 106.728 108.625Z" fill="black"/>
    <path d="M39.634 141.771L39.4421 142.564C36.2542 155.209 34.7197 168.214 34.8771 181.254L34.4482 197.576L73.7392 200.169L66.4854 141.827L39.634 141.771Z" fill="#0070b3"/>
    <path d="M38.7061 145.749L39.4707 142.098H66.607L66.9907 145.882L38.7061 145.749Z" fill="#231F20"/>
    <path opacity="0.2" d="M55.8716 145.818C60.4761 145.818 63.2072 148.453 63.8026 151.92L68.7654 199.842L73.7396 200.169L66.9908 145.882L55.8716 145.818Z" fill="black"/>
    <path d="M83.6794 124.25L69.1407 112.874C69.2349 113.529 69.2885 114.188 69.3015 114.849C69.3026 115.429 69.2219 116.005 69.0616 116.562C68.7598 117.569 68.2175 118.488 67.4817 119.24L66.6635 120.128C66.5845 120.21 66.5224 120.306 66.4812 120.411C66.44 120.517 66.4203 120.63 66.4236 120.743L66.5026 142.133L39.4707 142.11L37.3941 112.485L36.8496 102.181C36.8496 100.305 39.2704 97.6304 42.1087 97.2297L46.2252 96.4539C48.423 98.5671 55.8377 98.9423 60.3604 96.8545L64.1355 97.7009C66.3305 98.2652 67.8033 99.2273 69.2761 100.618L86.6955 115.817L97.6172 109.554L100.882 113.997L88.1852 124.25C87.5394 124.748 86.7474 125.017 85.9323 125.017C85.1172 125.017 84.3252 124.748 83.6794 124.25Z" fill="#3F4249"/>
    <path opacity="0.3" d="M66.663 120.128C66.584 120.21 66.5219 120.306 66.4807 120.412C66.4395 120.517 66.4201 120.63 66.4232 120.743L66.5022 142.133H64.7247L64.4933 122.532C64.4868 121.967 64.6821 121.419 65.0443 120.985C65.4063 120.552 65.9114 120.262 66.4683 120.168L66.663 120.128Z" fill="black"/>
    <path d="M53.211 136.921L52.6608 137.006L52.4182 137.505L52.1699 137.009L51.6226 136.932L52.0176 136.54L51.9188 135.996L52.4126 136.25L52.9006 135.99L52.8104 136.537L53.211 136.921Z" fill="white"/>
    <path d="M61.5821 131.307L61.0348 131.389L60.7921 131.888L60.5438 131.391L59.9937 131.315L60.3887 130.926L60.2927 130.378L60.7836 130.635L61.2746 130.373L61.1843 130.92L61.5821 131.307Z" fill="white"/>
    <path d="M42.6895 131.405L42.1422 131.487L41.8995 131.987L41.6512 131.49L41.1011 131.414L41.4961 131.025L41.4001 130.477L41.8911 130.734L42.382 130.472L42.2917 131.019L42.6895 131.405Z" fill="white"/>
    <path d="M52.3672 127.701L51.817 127.785L51.5743 128.282L51.3261 127.788L50.7759 127.709L51.1709 127.32L51.0749 126.775L51.5687 127.029L52.0568 126.77L51.9665 127.317L52.3672 127.701Z" fill="white"/>
    <path d="M42.3287 140.958L41.7813 141.04L41.5387 141.54L41.2904 141.043L40.7402 140.967L41.1352 140.578L41.0393 140.03L41.5302 140.287L42.0211 140.025L41.9309 140.572L42.3287 140.958Z" fill="white"/>
    <path d="M42.9556 118.771L42.4083 118.853L42.1657 119.352L41.9174 118.856L41.3672 118.779L41.7622 118.39L41.6663 117.846L42.1572 118.099L42.6481 117.84L42.555 118.384L42.9556 118.771Z" fill="white"/>
    <path d="M48.8658 115.817L48.3156 115.899L48.073 116.398L47.8247 115.902L47.2773 115.826L47.6723 115.436L47.5736 114.889L48.0674 115.146L48.5555 114.883L48.4652 115.431L48.8658 115.817Z" fill="white"/>
    <path d="M57.731 121.725L57.1809 121.81L56.9382 122.309L56.6899 121.812L56.1426 121.736L56.5376 121.344L56.4388 120.8L56.9326 121.053L57.4207 120.794L57.3304 121.341L57.731 121.725Z" fill="white"/>
    <path d="M63.6416 112.86L63.0914 112.945L62.8487 113.441L62.6005 112.948L62.0503 112.871L62.4453 112.482L62.3494 111.935L62.8431 112.189L63.3312 111.929L63.2409 112.476L63.6416 112.86Z" fill="white"/>
    <path d="M54.7768 106.952L54.2266 107.034L53.984 107.534L53.7357 107.037L53.1855 106.961L53.5806 106.571L53.4846 106.024L53.9758 106.281L54.4668 106.018L54.3765 106.566L54.7768 106.952Z" fill="white"/>
    <path d="M42.9556 106.952L42.4083 107.034L42.1657 107.534L41.9174 107.037L41.3672 106.961L41.7622 106.571L41.6663 106.024L42.1572 106.281L42.6481 106.018L42.555 106.566L42.9556 106.952Z" fill="white"/>
    <path d="M42.9556 99.859L42.4083 99.9408L42.1657 100.44L41.9174 99.9436L41.3672 99.8675L41.7622 99.4781L41.6663 98.9308L42.1572 99.1875L42.6481 98.9251L42.555 99.4725L42.9556 99.859Z" fill="white"/>
    <path d="M34.0904 108.724L33.5431 108.806L33.3004 109.305L33.0521 108.808L32.502 108.732L32.897 108.343L32.801 107.798L33.292 108.052L33.7829 107.793L33.6898 108.34L34.0904 108.724Z" fill="white"/>
    <path d="M37.044 117.589L36.4967 117.671L36.254 118.17L36.0057 117.673L35.4556 117.597L35.8506 117.208L35.7546 116.663L36.2456 116.917L36.7365 116.658L36.6462 117.205L37.044 117.589Z" fill="white"/>
    <path d="M31.1367 123.5L30.5865 123.581L30.3439 124.081L30.0956 123.584L29.5454 123.508L29.9432 123.119L29.8445 122.571L30.3382 122.828L30.8263 122.566L30.736 123.113L31.1367 123.5Z" fill="white"/>
    <path d="M34.0904 129.408L33.5431 129.493L33.3004 129.992L33.0521 129.495L32.502 129.419L32.897 129.03L32.801 128.483L33.292 128.739L33.7829 128.477L33.6898 129.024L34.0904 129.408Z" fill="white"/>
    <path d="M63.6416 101.631L63.0914 101.715L62.8487 102.215L62.6005 101.718L62.0503 101.642L62.4453 101.253L62.3494 100.705L62.8431 100.959L63.3312 100.7L63.2409 101.247L63.6416 101.631Z" fill="white"/>
    <path d="M71.9137 107.542L71.3663 107.624L71.1237 108.123L70.8754 107.627L70.3252 107.55L70.7202 107.161L70.6217 106.617L71.1155 106.87L71.6064 106.611L71.5161 107.158L71.9137 107.542Z" fill="white"/>
    <path d="M64.232 139.455L63.6847 139.539L63.442 140.039L63.1937 139.542L62.6436 139.466L63.0386 139.077L62.9398 138.529L63.4335 138.786L63.9245 138.524L63.8314 139.071L64.232 139.455Z" fill="white"/>
    <path d="M79.0074 110.792L78.4572 110.877L78.2146 111.373L77.9663 110.879L77.4189 110.8L77.8111 110.411L77.7152 109.867L78.2089 110.121L78.6971 109.861L78.6068 110.408L79.0074 110.792Z" fill="white"/>
    <path d="M79.0074 118.178L78.4572 118.263L78.2146 118.762L77.9663 118.266L77.4189 118.19L77.8111 117.8L77.7152 117.253L78.2089 117.51L78.6971 117.247L78.6068 117.795L79.0074 118.178Z" fill="white"/>
    <path d="M84.9189 121.136L84.3687 121.217L84.1261 121.717L83.8778 121.22L83.3276 121.144L83.7226 120.755L83.6267 120.207L84.1205 120.464L84.6086 120.202L84.5183 120.749L84.9189 121.136Z" fill="white"/>
    <path d="M91.4189 121.136L90.8687 121.217L90.6261 121.717L90.3778 121.22L89.8276 121.144L90.2226 120.755L90.1267 120.207L90.6205 120.464L91.1086 120.202L91.0183 120.749L91.4189 121.136Z" fill="white"/>
    <path d="M97.3267 114.042L96.7794 114.127L96.5367 114.626L96.2884 114.13L95.7383 114.051L96.1333 113.661L96.0374 113.117L96.5283 113.371L97.0192 113.111L96.9289 113.659L97.3267 114.042Z" fill="white"/>
    <path opacity="0.3" d="M38.3588 126.211L36.0058 126.177L37.7296 117.281L37.6873 117.307C37.3995 117.482 37.1507 117.715 36.9566 117.991C36.7625 118.267 36.627 118.579 36.5587 118.909L34.9336 126.809C34.9246 126.851 34.9252 126.894 34.9353 126.936C34.9455 126.977 34.9649 127.016 34.992 127.048C35.0191 127.081 35.0532 127.108 35.0922 127.125C35.1308 127.143 35.1732 127.152 35.2158 127.151H38.4237L38.3588 126.211Z" fill="black"/>
    <path opacity="0.3" d="M38.8953 125.966L37.7329 117.267L39.4709 142.098H40.4104L38.8953 125.966Z" fill="black"/>
  </g>
  <defs>
    <clipPath id="clip0">
      <rect width="295" height="260.02" fill="white"/>
    </clipPath>
  </defs>
</svg>
