<svg width="39" height="39" viewBox="0 0 39 39" fill="none" xmlns="http://www.w3.org/2000/svg">
<path d="M38.2702 19.0603C38.2684 22.6982 38.266 26.3362 38.2628 29.9741C38.2628 30.8163 38.2713 31.658 38.2359 32.5009C38.1579 33.6737 37.7477 34.8 37.0533 35.7483C36.3589 36.6966 35.409 37.4277 34.3146 37.8562C33.5667 38.1288 32.7766 38.2675 31.9807 38.2659C23.3596 38.259 14.7384 38.2576 6.11709 38.2615C4.64547 38.2565 3.22458 37.7232 2.11312 36.7586C1.00165 35.7941 0.273528 34.4625 0.0613135 33.0062C0.00643497 32.3084 -0.0116208 31.6081 0.0072124 30.9083C0.000219162 30.7095 0.099597 30.7548 0.221427 30.7949C2.17144 31.4376 4.12218 32.0786 6.07366 32.7181C9.60708 33.8789 13.1396 35.0415 16.6714 36.2058C16.7613 36.2418 16.8594 36.2523 16.955 36.2363C17.0505 36.2203 17.1398 36.1783 17.2131 36.1149C19.8632 34.1382 22.5154 32.1651 25.1696 30.1957C27.9205 28.1507 30.6711 26.1055 33.4213 24.0601C34.645 23.1502 35.8683 22.2399 37.0912 21.329C37.1848 21.281 37.2609 21.2046 37.3084 21.1108C36.9068 20.9746 36.5101 20.8365 36.1114 20.7059C32.6516 19.5681 29.1908 18.43 25.7291 17.2917C25.6481 17.2576 25.5594 17.2464 25.4725 17.2594C25.3856 17.2724 25.304 17.309 25.2366 17.3653C22.0484 19.7455 18.8585 22.1216 15.6669 24.4936C15.6107 24.541 15.5424 24.5718 15.4696 24.5826C15.3969 24.5933 15.3226 24.5835 15.255 24.5544C11.1938 23.2131 7.13185 21.8742 3.06915 20.5377C2.12506 20.227 1.18097 19.9175 0.233204 19.6175C0.160707 19.6053 0.0960022 19.5649 0.0532879 19.5051C0.0105736 19.4453 -0.00666109 19.3709 0.00537028 19.2984C0.0105232 14.8363 0.000215927 10.3739 0.0130982 5.91188C0.0551268 4.67876 0.469509 3.48726 1.20171 2.49417C1.93391 1.50108 2.94963 0.752944 4.11518 0.348204C4.80673 0.116081 5.53154 -0.00153007 6.26101 1.50277e-05C14.8916 0.00565869 23.5223 0.00688636 32.1529 0.00369646C33.6094 0.0182152 35.0135 0.548471 36.116 1.50029C37.2185 2.45211 37.948 3.76387 38.1748 5.20262C38.2581 6.0595 38.2905 6.92056 38.272 7.78128C38.2528 7.81808 38.2396 7.86335 38.1881 7.87219C38.0744 7.86666 37.9627 7.84008 37.8586 7.79379C35.9692 7.17593 34.0799 6.55599 32.1905 5.93396C30.5359 5.38726 28.8812 4.84068 27.2264 4.29423C25.8951 3.85586 24.5634 3.41823 23.2347 2.97177C23.0919 2.91267 22.9355 2.89422 22.7829 2.91845C22.6302 2.94268 22.4872 3.00864 22.3697 3.10906C20.9645 4.18675 19.5323 5.22911 18.1127 6.2873C16.8066 7.26095 15.4982 8.23155 14.1877 9.19907C12.9097 10.1465 11.6366 11.1012 10.3598 12.0494C7.85694 13.9063 5.36329 15.7731 2.8553 17.6222C2.7585 17.6936 2.58587 17.7525 2.59765 17.8633C2.61495 18.0058 2.80635 17.9929 2.92449 18.0315C4.88591 18.676 6.84402 19.3297 8.80764 19.9668C10.4831 20.5104 12.1511 21.0758 13.8258 21.6231C13.9557 21.6754 14.0974 21.6909 14.2355 21.6678C14.3735 21.6448 14.5026 21.5841 14.6084 21.4924C15.8038 20.5767 17.0188 19.6867 18.2279 18.7894C20.1217 17.3839 22.0141 15.9765 23.9049 14.5673C23.9989 14.4904 24.1118 14.4401 24.2319 14.4219C24.352 14.4036 24.4747 14.418 24.5873 14.4635C25.5616 14.7749 26.5296 15.1047 27.5031 15.4205C28.5934 15.772 29.6788 16.1397 30.7679 16.496C32.2976 16.9969 33.8287 17.4945 35.3558 18.0024C36.2359 18.2969 37.1302 18.5472 37.9974 18.8807C38.0968 18.9267 38.23 18.9248 38.2702 19.0603Z" fill="#E36A00"/>
</svg>
