<?xml version="1.0" encoding="utf-8"?>
<!-- Generator: Adobe Illustrator 24.0.1, SVG Export Plug-In . SVG Version: 6.00 Build 0)  -->
<svg version="1.1" id="Capa_1" xmlns="http://www.w3.org/2000/svg" xmlns:xlink="http://www.w3.org/1999/xlink" x="0px" y="0px"
	 viewBox="0 0 792 167.8" style="enable-background:new 0 0 792 167.8;" xml:space="preserve">
<style type="text/css">
	.st0{fill:#0070B3;}
	.st1{fill:#878787;}
</style>
<g>
	<path class="st0" d="M790.7,36.7h-45.4c-0.8,0-1,1.1-0.3,1.4c21.1,10.3,34.6,22.7,45.6,45.2c0.3,0.7,1.4,0.5,1.4-0.3V38
		C792,37.2,791.4,36.7,790.7,36.7z"/>
	<path class="st0" d="M22.3,112.9c1.6,7.5,5.2,13.3,10.9,17.3c5.7,4,12.6,6,20.7,6c8.8,0,15.9-2.5,21.2-7.4
		c2.9-2.7,7.2-3.2,10.6-1.2l2,1.2c5.2,3,6,10.2,1.6,14.3c-9.1,8.4-21,12.6-35.6,12.6c-16.1,0-29-4.9-38.9-14.7
		C4.9,131.2,0,118.8,0,103.8c0-14.7,4.9-27.1,14.6-37s22.3-14.9,37.5-14.9c14.5,0,26.4,5.1,35.7,15.2s13.9,22.5,13.9,36.9l0,0
		c0,4.9-4,8.9-8.9,8.9H22.3z M22.1,95.5h58.1c-1.4-8-4.8-14.1-10-18.2C65,73.2,58.9,71.2,52,71.2c-7.9,0-14.5,2.2-19.8,6.5
		C26.9,82.1,23.6,88,22.1,95.5z"/>
	<path class="st0" d="M142.9,135.4h43.5c2.5,0,4.5,2,4.5,4.5V151c0,2.5-2,4.5-4.5,4.5h-68c-2.5,0-4.5-2-4.5-4.5v-8.2
		c0-0.9,0.3-1.9,0.8-2.6L160.1,72h-39.7c-2.5,0-4.5-2-4.5-4.5V56.4c0-2.5,2-4.5,4.5-4.5h64c2.5,0,4.5,2,4.5,4.5v8.2
		c0,0.9-0.3,1.9-0.8,2.6L142.9,135.4z"/>
	<path class="st1" d="M287.8,51.7h13.8c4.2,0,7.5,3.4,7.5,7.5v96.5h-21.3V139c-8,11.2-19.6,16.8-34.6,16.8c-13.6,0-25.2-5-34.8-15.1
		S204,118.3,204,103.9c0-14.6,4.8-26.9,14.4-36.9c9.6-10,21.2-15,34.8-15c15.3,0,26.2,5.1,34.6,16.6V51.7z M234.3,126.4
		c5.9,6,13.4,9,22.3,9c9,0,16.4-3,22.3-9s8.9-13.5,8.9-22.6s-3-16.6-8.9-22.6s-13.4-9-22.3-9c-9,0-16.4,3-22.3,9
		c-5.9,6-8.9,13.5-8.9,22.6S228.4,120.4,234.3,126.4z"/>
	<path class="st1" d="M395.3,51.7h13.8c4.2,0,7.5,3.4,7.5,7.5v96.5h-21.3v-15.2c-6.5,10.1-16.7,15.2-30.6,15.2
		c-11.3,0-20.5-3.6-27.5-10.9c-7-7.2-10.5-17.2-10.5-29.8V51.7h13.8c4.2,0,7.5,3.4,7.5,7.5v53.6c0,7.4,2,13,5.9,17
		c4,4,9.3,5.9,16.2,5.9c7.5,0,13.6-2.3,18.2-7s6.9-11.8,6.9-21.4V51.7H395.3z"/>
	<path class="st1" d="M517.9,14.9h13.8c4.2,0,7.5,3.4,7.5,7.5v133.3h-21.3V139c-8,11.2-19.6,16.8-34.6,16.8
		c-13.6,0-25.2-5-34.8-15.1c-9.6-10.1-14.4-22.4-14.4-36.8c0-14.6,4.8-26.9,14.4-36.9s21.2-15,34.8-15c15,0,26.5,5.5,34.6,16.6V14.9
		z M464.3,126.4c5.9,6,13.4,9,22.3,9c9,0,16.4-3,22.3-9c5.9-6,8.9-13.5,8.9-22.6s-3-16.6-8.9-22.6s-13.4-9-22.3-9
		c-9,0-16.4,3-22.3,9s-8.9,13.5-8.9,22.6S458.4,120.4,464.3,126.4z"/>
	<path class="st1" d="M556.9,155.7V51.8h13.8c4.2,0,7.5,3.4,7.5,7.5v96.4H556.9z"/>
	<path class="st1" d="M659.7,72.4h-24.5V124c0,4.1,0.9,7,2.8,8.8c1.8,1.8,4.6,2.8,8.2,3c3.6,0.2,8.1,0.2,13.5-0.1v19.2
		c-16.3,2-28.1,0.6-35.2-4.2c-7.1-4.8-10.7-13.7-10.7-26.6V72.4h-18.2V51.8h18.2V33.1l11.7-3.5c4.8-1.4,9.7,2.2,9.7,7.2v15h24.5
		V72.4z"/>
	<circle class="st0" cx="567.5" cy="28.5" r="13.6"/>
	<path class="st1" d="M758.7,60.6c-9.7-7.1-19.4-8.8-27.2-8.7c-5.4,0,0,0-10.2,0c-13.6,0-25.2,5-34.8,15s-14.4,22.3-14.4,36.9
		c0,14.5,4.8,26.8,14.4,36.8c9.6,10.1,21.2,15.1,34.8,15.1c15,0,26.5-5.6,34.6-16.8v16.8h21.3V96.8c0-9.2-3.2-17.7-5.8-21.9
		C768.1,68.9,763.4,64,758.7,60.6z M747,126.4c-5.9,6-13.4,9-22.3,9c-9,0-16.4-3-22.3-9c-5.9-6-8.9-13.5-8.9-22.6s3-16.6,8.9-22.6
		s13.4-9,22.3-9c9,0,16.4,3,22.3,9c5.9,6,8.9,13.5,8.9,22.6S752.9,120.4,747,126.4z"/>
</g>
</svg>
