<?xml version="1.0" encoding="UTF-8"?>
<svg id="Capa_1" data-name="Capa 1" xmlns="http://www.w3.org/2000/svg" xmlns:xlink="http://www.w3.org/1999/xlink" viewBox="0 0 606 527.5">
  <defs>
    <style>
      .cls-1 {
        fill: #3577ba;
        opacity: .17;
      }
    </style>
  </defs>
  <path class="cls-1" d="M308.44,510.68c-9.37,1.29-128.87,15.99-229-55.45-22.4-15.98-56.82-41.28-67.52-84.97-5.13-20.94-2.85-38.11-1.28-49.1,10.74-75.32,66.32-89.97,72.53-145.58,6.11-54.71-45.92-70.88-31.59-105.61C74.58,14.22,206.28,1.59,304.85,36.86c26.34,9.43,21.37,11.92,78.38,40.53,61.57,30.9,160.53,46.25,197.71,98.19,46.2,64.53,4.01,196.14-68.44,252.9-20.03,15.69-42.57,25.82-75.38,40.55-33.28,14.95-76.79,34.49-128.68,41.63Z"/>
  <image width="512" height="512" transform="translate(48.5 -17.5)" xlink:href="../../../../Downloads/agile.png"/>
</svg>