<?xml version="1.0" encoding="UTF-8"?>
<svg id="Sin_XML_v3" data-name="Sin XML v3" xmlns="http://www.w3.org/2000/svg" viewBox="0 0 45 45" fill="curent">
  <defs>
    <style>
      .cls-1 {
        fill: none;
      }

      .cls-1, .cls-2 {
        stroke-width: 0px;
      }
    </style>
  </defs>
  <g>
    <path class="cls-1" d="m10.91,35.05c-.26-.84-.57-1.73-.92-2.68l-1.17,1.17c.25.69.46,1.34.66,1.96.12.36.36.66.68.84l1.08-1.08.21-.21h-.54Zm2.53-6.13l-1.15,1.15c.4,1.06.76,2.07,1.1,3.04l.51-.51.41-.41c.01-.29.02-.58.03-.88-.28-.77-.58-1.57-.9-2.39Zm1.55-19.67c-.28-.41-.75-.65-1.24-.65h-3.06c-.61,0-1.17.38-1.39.95l-1.83,4.64-1.83-4.64c-.22-.57-.78-.95-1.39-.95H1.07c-.5,0-.96.24-1.24.65-.28.42-.34.94-.16,1.4l4.59,11.62c-.91,2.11-1.76,4.15-2.54,6.07-.86,2.12-1.63,4.22-2.29,6.24-.15.46-.07.96.21,1.35.28.39.73.62,1.21.62h2.84l1.94-1.94c.1-.33.22-.68.36-1.05.28-.75.58-1.54.9-2.35.18-.44.35-.87.53-1.3.18.45.37.91.55,1.37.1.24.19.48.28.71l1.15-1.15s-.02-.08-.04-.12c-.62-1.57-1.27-3.09-1.95-4.55-.28.57-.59,1.26-.92,2.05-.33.79-.66,1.6-.99,2.43-.33.83-.63,1.63-.92,2.4-.28.77-.5,1.44-.67,2H.85c.65-2,1.41-4.05,2.26-6.15.85-2.1,1.77-4.3,2.77-6.6L1.07,10.1h3.18l3.21,8.19,3.23-8.19h3.06l-4.76,12.07c1.01,2.23,1.91,4.36,2.7,6.38l1.15-1.15c-.66-1.68-1.42-3.45-2.23-5.27l4.53-11.48c.18-.46.13-.98-.15-1.4Zm-.35,26.84c-.28-.29-.43-.68-.42-1.09.01-.2.01-.41.02-.62l-.32.32c.04.12.08.23.12.35h-.47l-1.5,1.5h1.97c.3,0,.6-.09.84-.26-.08-.06-.16-.12-.24-.2Z"/>
    <path class="cls-2" d="m12.29,30.07c.4,1.06.76,2.07,1.1,3.04l-1.94,1.94h-.54c-.26-.84-.57-1.73-.92-2.68l2.04-2.04.26-.26Z"/>
    <path class="cls-2" d="m11.69,28.55l-2.29,2.29s-.02-.08-.04-.12c-.62-1.57-1.27-3.09-1.95-4.55-.28.57-.59,1.26-.92,2.05-.33.79-.66,1.6-.99,2.43-.33.83-.63,1.63-.92,2.4-.28.77-.5,1.44-.67,2H.85c.65-2,1.41-4.05,2.26-6.15.85-2.1,1.77-4.3,2.77-6.6L1.07,10.1h3.18l3.21,8.19,3.23-8.19h3.06l-4.76,12.07c1.01,2.23,1.91,4.36,2.7,6.38Z"/>
    <path class="cls-2" d="m14.04,35.05h-.47l.35-.35c.04.12.08.23.12.35Z"/>
    <path class="cls-1" d="m14.31,32.19c-.03.74-.05,1.47-.07,2.19l-.32.32c-.16-.51-.34-1.05-.53-1.59l.51-.51.41-.41Z"/>
    <path class="cls-2" d="m14.57,31.93l-.26.26c.01-.29.02-.58.03-.88.08.21.15.42.23.62Z"/>
    <path class="cls-2" d="m13.92,34.7l-.35.35h.47c-.04-.12-.08-.23-.12-.35Zm-4.93-12.53l4.76-12.07h-3.06l-3.23,8.19-3.21-8.19H1.07l4.81,12.2c-1,2.3-1.92,4.5-2.77,6.6-.85,2.1-1.61,4.15-2.26,6.15h3.06c.17-.56.39-1.23.67-2,.29-.77.59-1.57.92-2.4.33-.83.66-1.64.99-2.43.33-.79.64-1.48.92-2.05.68,1.46,1.33,2.98,1.95,4.55.02.04.03.08.04.12l2.29-2.29c-.79-2.02-1.69-4.15-2.7-6.38Zm3.04,8.16l-2.04,2.04c.35.95.66,1.84.92,2.68h.54l1.94-1.94c-.34-.97-.7-1.98-1.1-3.04l-.26.26Z"/>
    <path class="cls-1" d="m20.87,24.39c-.21-.79-.41-1.56-.6-2.3l-1.65,1.65c-.03.78-.05,1.56-.07,2.34-.02.65-.03,1.29-.05,1.92l2.63-2.63c-.09-.32-.17-.65-.26-.98Zm0,0c-.21-.79-.41-1.56-.6-2.3l-1.65,1.65c-.03.78-.05,1.56-.07,2.34-.02.65-.03,1.29-.05,1.92l2.63-2.63c-.09-.32-.17-.65-.26-.98Zm0,0c-.21-.79-.41-1.56-.6-2.3l-1.65,1.65c-.03.78-.05,1.56-.07,2.34-.02.65-.03,1.29-.05,1.92l2.63-2.63c-.09-.32-.17-.65-.26-.98Zm0,0c-.21-.79-.41-1.56-.6-2.3l-1.65,1.65c-.03.78-.05,1.56-.07,2.34-.02.65-.03,1.29-.05,1.92l2.63-2.63c-.09-.32-.17-.65-.26-.98Zm0,0c-.21-.79-.41-1.56-.6-2.3l-1.65,1.65c-.03.78-.05,1.56-.07,2.34-.02.65-.03,1.29-.05,1.92l2.63-2.63c-.09-.32-.17-.65-.26-.98Zm0,0c-.21-.79-.41-1.56-.6-2.3l-1.65,1.65c-.03.78-.05,1.56-.07,2.34-.02.65-.03,1.29-.05,1.92l2.63-2.63c-.09-.32-.17-.65-.26-.98Zm0,0c-.21-.79-.41-1.56-.6-2.3l-1.65,1.65c-.03.78-.05,1.56-.07,2.34-.02.65-.03,1.29-.05,1.92l2.63-2.63c-.09-.32-.17-.65-.26-.98Zm0,0c-.21-.79-.41-1.56-.6-2.3l-1.65,1.65c-.03.78-.05,1.56-.07,2.34-.02.65-.03,1.29-.05,1.92l2.63-2.63c-.09-.32-.17-.65-.26-.98Zm0,0c-.21-.79-.41-1.56-.6-2.3l-1.65,1.65c-.03.78-.05,1.56-.07,2.34-.02.65-.03,1.29-.05,1.92l2.63-2.63c-.09-.32-.17-.65-.26-.98Zm-2.52,10.66h-2.63c.02-.73.04-1.47.07-2.22l-.68.68c.13.37.25.73.36,1.08.15.45.07.95-.21,1.34-.11.14-.23.26-.38.36.25.17.54.26.84.26h2.63c.81,0,1.48-.66,1.5-1.47.04-2.11.09-4.26.14-6.45l-1.54,1.54c-.03,1.65-.07,3.28-.1,4.88Zm2.52-10.66c-.21-.79-.41-1.56-.6-2.3l-1.65,1.65c-.03.78-.05,1.56-.07,2.34-.02.65-.03,1.29-.05,1.92l2.63-2.63c-.09-.32-.17-.65-.26-.98Zm0,0c-.21-.79-.41-1.56-.6-2.3l-1.65,1.65c-.03.78-.05,1.56-.07,2.34-.02.65-.03,1.29-.05,1.92l2.63-2.63c-.09-.32-.17-.65-.26-.98Zm0,0c-.21-.79-.41-1.56-.6-2.3l-1.65,1.65c-.03.78-.05,1.56-.07,2.34-.02.65-.03,1.29-.05,1.92l2.63-2.63c-.09-.32-.17-.65-.26-.98Zm0,0c-.21-.79-.41-1.56-.6-2.3l-1.65,1.65c-.03.78-.05,1.56-.07,2.34-.02.65-.03,1.29-.05,1.92l2.63-2.63c-.09-.32-.17-.65-.26-.98Zm0,0c-.21-.79-.41-1.56-.6-2.3l-1.65,1.65c-.03.78-.05,1.56-.07,2.34-.02.65-.03,1.29-.05,1.92l2.63-2.63c-.09-.32-.17-.65-.26-.98Zm0,0c-.21-.79-.41-1.56-.6-2.3l-1.65,1.65c-.03.78-.05,1.56-.07,2.34-.02.65-.03,1.29-.05,1.92l2.63-2.63c-.09-.32-.17-.65-.26-.98Zm0,0c-.21-.79-.41-1.56-.6-2.3l-1.65,1.65c-.03.78-.05,1.56-.07,2.34-.02.65-.03,1.29-.05,1.92l2.63-2.63c-.09-.32-.17-.65-.26-.98Zm0,0c-.21-.79-.41-1.56-.6-2.3l-1.65,1.65c-.03.78-.05,1.56-.07,2.34-.02.65-.03,1.29-.05,1.92l2.63-2.63c-.09-.32-.17-.65-.26-.98Zm-1.41-5.27c-.21-.78-.39-1.44-.55-1.97-.08,1.44-.15,2.91-.21,4.39l1.12-1.12c-.13-.45-.25-.88-.36-1.3Zm1.41,5.27c-.21-.79-.41-1.56-.6-2.3l-1.65,1.65c-.03.78-.05,1.56-.07,2.34-.02.65-.03,1.29-.05,1.92l2.63-2.63c-.09-.32-.17-.65-.26-.98Zm-1.41-5.27c-.21-.78-.39-1.44-.55-1.97-.08,1.44-.15,2.91-.21,4.39l1.12-1.12c-.13-.45-.25-.88-.36-1.3Zm4.05,5.99c.1.37.19.73.28,1.08.15-.59.3-1.2.47-1.83l-.75.75Zm-4.05-5.99c-.21-.78-.39-1.44-.55-1.97-.08,1.44-.15,2.91-.21,4.39l1.12-1.12c-.13-.45-.25-.88-.36-1.3Zm4.05,5.99c.1.37.19.73.28,1.08.15-.59.3-1.2.47-1.83l-.75.75Zm5.07-7.96c-.09.32-.19.68-.3,1.07l.34-.34c-.01-.25-.03-.49-.04-.73Zm-9.12,1.97c-.21-.78-.39-1.44-.55-1.97-.08,1.44-.15,2.91-.21,4.39l1.12-1.12c-.13-.45-.25-.88-.36-1.3Zm0,0c-.21-.78-.39-1.44-.55-1.97-.08,1.44-.15,2.91-.21,4.39l1.12-1.12c-.13-.45-.25-.88-.36-1.3Zm0,0c-.21-.78-.39-1.44-.55-1.97-.08,1.44-.15,2.91-.21,4.39l1.12-1.12c-.13-.45-.25-.88-.36-1.3Zm0,0c-.21-.78-.39-1.44-.55-1.97-.08,1.44-.15,2.91-.21,4.39l1.12-1.12c-.13-.45-.25-.88-.36-1.3Zm0,0c-.21-.78-.39-1.44-.55-1.97-.08,1.44-.15,2.91-.21,4.39l1.12-1.12c-.13-.45-.25-.88-.36-1.3Zm0,0c-.21-.78-.39-1.44-.55-1.97-.08,1.44-.15,2.91-.21,4.39l1.12-1.12c-.13-.45-.25-.88-.36-1.3Zm3.53-1.91c-.4-1.46-.79-2.85-1.18-4.18-.38-1.33-.74-2.48-1.06-3.41-.2-.61-.77-1.02-1.42-1.02h-2.47c-.78,0-1.43.6-1.49,1.39-.13,1.73-.26,3.63-.37,5.68-.12,2.04-.22,4.16-.32,6.33-.05,1.23-.1,2.47-.15,3.71l1.57-1.57c.02-.69.05-1.38.08-2.07.1-2.17.2-4.28.32-6.32.11-2.04.23-3.92.36-5.65h2.47c.31.91.66,2.03,1.04,3.35.39,1.32.77,2.7,1.17,4.15.08.29.16.58.23.87l1.23-1.23s-.01-.02-.01-.03Zm-4.08-.06c-.08,1.44-.15,2.91-.21,4.39l1.12-1.12c-.13-.45-.25-.88-.36-1.3-.21-.78-.39-1.44-.55-1.97Zm-4.49,11.43c-.03.92-.06,1.84-.08,2.73.08.21.15.42.23.62l1.28-1.28c.02-.66.05-1.33.07-2.01.03-.77.06-1.53.09-2.29l-1.56,1.56c-.01.22-.02.45-.03.67Zm5.04-9.46c-.21-.78-.39-1.44-.55-1.97-.08,1.44-.15,2.91-.21,4.39l1.12-1.12c-.13-.45-.25-.88-.36-1.3Zm0,0c-.21-.78-.39-1.44-.55-1.97-.08,1.44-.15,2.91-.21,4.39l1.12-1.12c-.13-.45-.25-.88-.36-1.3Zm4.89-1.11c-.19.71-.38,1.43-.57,2.16-.11-.42-.22-.84-.33-1.26l-1.23,1.23c.17.62.33,1.25.5,1.89.12.47.24.94.36,1.39l1.9-1.9c.34-1.33.68-2.63,1.03-3.92.16-.59.32-1.16.48-1.73l-2.14,2.14Zm-4.89,1.11c-.21-.78-.39-1.44-.55-1.97-.08,1.44-.15,2.91-.21,4.39l1.12-1.12c-.13-.45-.25-.88-.36-1.3Zm11.17-10.52h-2.41c-.64,0-1.21.41-1.42,1.01-.32.93-.67,2.08-1.06,3.42-.19.67-.39,1.35-.58,2.05l2.18-2.18c.04-.14.08-.27.12-.4.09-.31.18-.6.27-.88.08-.28.17-.54.25-.8.08-.25.16-.49.24-.72h1.92l1.28-1.28c-.23-.14-.5-.22-.79-.22Zm-11.17,10.52c-.21-.78-.39-1.44-.55-1.97-.08,1.44-.15,2.91-.21,4.39l1.12-1.12c-.13-.45-.25-.88-.36-1.3Zm12.68-8.9l-1.4,1.4c.08,1.25.16,2.55.23,3.91l1.42-1.42c-.08-1.35-.17-2.65-.25-3.89Zm-12.68,8.9c-.21-.78-.39-1.44-.55-1.97-.08,1.44-.15,2.91-.21,4.39l1.12-1.12c-.13-.45-.25-.88-.36-1.3Zm4.05,5.99c.1.37.19.73.28,1.08.15-.59.3-1.2.47-1.83l-.75.75Zm5.07-7.96c-.09.32-.19.68-.3,1.07l.34-.34c-.01-.25-.03-.49-.04-.73Zm-5.07,7.96c.1.37.19.73.28,1.08.15-.59.3-1.2.47-1.83l-.75.75Zm5.07-7.96c-.09.32-.19.68-.3,1.07l.34-.34c-.01-.25-.03-.49-.04-.73Zm-5.07,7.96c.1.37.19.73.28,1.08.15-.59.3-1.2.47-1.83l-.75.75Zm5.07-7.96c-.09.32-.19.68-.3,1.07l.34-.34c-.01-.25-.03-.49-.04-.73Zm-5.07,7.96c.1.37.19.73.28,1.08.15-.59.3-1.2.47-1.83l-.75.75Zm5.07-7.96c-.09.32-.19.68-.3,1.07l.34-.34c-.01-.25-.03-.49-.04-.73Zm-5.07,7.96c.1.37.19.73.28,1.08.15-.59.3-1.2.47-1.83l-.75.75Zm5.07-7.96c-.09.32-.19.68-.3,1.07l.34-.34c-.01-.25-.03-.49-.04-.73Zm-5.07,7.96c.1.37.19.73.28,1.08.15-.59.3-1.2.47-1.83l-.75.75Zm5.07-7.96c-.09.32-.19.68-.3,1.07l.34-.34c-.01-.25-.03-.49-.04-.73Zm4.48,11.49c-.07-2.18-.16-4.34-.25-6.49-.1-2.06-.19-4.07-.3-6.04l-1.43,1.43c.08,1.53.16,3.09.23,4.67.09,2.15.18,4.31.26,6.48.07,2.18.14,4.29.2,6.36h-2.63c-.06-2.91-.12-5.89-.2-8.97-.05-2.1-.13-4.17-.22-6.18l-1.23,1.23c-.05.16-.09.34-.14.51-.24.9-.48,1.83-.73,2.79s-.49,1.89-.72,2.79c-.24.9-.45,1.74-.65,2.52-.2.78-.37,1.44-.51,1.99h-1.99c-.14-.55-.31-1.22-.51-2.01-.2-.79-.41-1.64-.65-2.54,0-.04-.02-.08-.03-.12l-1.23,1.23c.16.62.31,1.22.45,1.79.2.8.37,1.47.52,2.03.17.66.76,1.12,1.45,1.12h1.99c.69,0,1.28-.46,1.45-1.12l1.27-4.96c.07,2.71.13,5.35.18,7.93.02.81.68,1.47,1.5,1.47h2.63c.41,0,.79-.17,1.08-.46.28-.29.43-.68.42-1.09-.06-2.06-.13-4.19-.21-6.36Zm-4.48-11.49c-.09.32-.19.68-.3,1.07l.34-.34c-.01-.25-.03-.49-.04-.73Zm-4.32,7.21l-.75.75c.1.37.19.73.28,1.08.15-.59.3-1.2.47-1.83Zm4.32-7.21c-.09.32-.19.68-.3,1.07l.34-.34c-.01-.25-.03-.49-.04-.73Zm-5.07,7.96c.1.37.19.73.28,1.08.15-.59.3-1.2.47-1.83l-.75.75Zm5.07-7.96c-.09.32-.19.68-.3,1.07l.34-.34c-.01-.25-.03-.49-.04-.73Zm-5.07,7.96c.1.37.19.73.28,1.08.15-.59.3-1.2.47-1.83l-.75.75Zm5.07-7.96c-.09.32-.19.68-.3,1.07l.34-.34c-.01-.25-.03-.49-.04-.73Zm-5.07,7.96c.1.37.19.73.28,1.08.15-.59.3-1.2.47-1.83l-.75.75Zm5.07-7.96c-.09.32-.19.68-.3,1.07l.34-.34c-.01-.25-.03-.49-.04-.73Zm-5.07,7.96c.1.37.19.73.28,1.08.15-.59.3-1.2.47-1.83l-.75.75Zm5.07-7.96c-.09.32-.19.68-.3,1.07l.34-.34c-.01-.25-.03-.49-.04-.73Zm-5.07,7.96c.1.37.19.73.28,1.08.15-.59.3-1.2.47-1.83l-.75.75Zm5.07-7.96c-.09.32-.19.68-.3,1.07l.34-.34c-.01-.25-.03-.49-.04-.73Zm-5.07,7.96c.1.37.19.73.28,1.08.15-.59.3-1.2.47-1.83l-.75.75Zm-4.05-5.99c-.21-.78-.39-1.44-.55-1.97-.08,1.44-.15,2.91-.21,4.39l1.12-1.12c-.13-.45-.25-.88-.36-1.3Zm4.05,5.99c.1.37.19.73.28,1.08.15-.59.3-1.2.47-1.83l-.75.75Zm-4.05-5.99c-.21-.78-.39-1.44-.55-1.97-.08,1.44-.15,2.91-.21,4.39l1.12-1.12c-.13-.45-.25-.88-.36-1.3Zm0,0c-.21-.78-.39-1.44-.55-1.97-.08,1.44-.15,2.91-.21,4.39l1.12-1.12c-.13-.45-.25-.88-.36-1.3Z"/>
    <path class="cls-1" d="m15.26,35.93c-.11.14-.23.26-.38.36-.08-.06-.16-.12-.24-.2-.28-.29-.43-.68-.42-1.09.01-.2.01-.41.02-.62l.87-.87c.13.37.25.73.36,1.08.15.45.07.95-.21,1.34Z"/>
    <path class="cls-2" d="m14.57,31.93l-.26.26c.01-.29.02-.58.03-.88.08.21.15.42.23.62Z"/>
    <path class="cls-2" d="m15.79,32.83l2.66-2.66c-.03,1.65-.07,3.28-.1,4.88h-2.63c.02-.73.04-1.47.07-2.22Z"/>
    <path class="cls-2" d="m16.01,26.35l2.61-2.61c-.03.78-.05,1.56-.07,2.34-.02.65-.03,1.29-.05,1.92l-2.65,2.65c.02-.66.05-1.33.07-2.01.03-.77.06-1.53.09-2.29Z"/>
    <path class="cls-2" d="m21.77,18.47l-1.95,1.95c-.13-.45-.25-.88-.36-1.3-.21-.78-.39-1.44-.55-1.97-.08,1.44-.15,2.91-.21,4.39l-2.6,2.6c.02-.69.05-1.38.08-2.07.1-2.17.2-4.28.32-6.32.11-2.04.23-3.92.36-5.65h2.47c.31.91.66,2.03,1.04,3.35.39,1.32.77,2.7,1.17,4.15.08.29.16.58.23.87Z"/>
    <path class="cls-2" d="m23.08,23.42l-1.95,1.95c-.09-.32-.17-.65-.26-.98-.21-.79-.41-1.56-.6-2.3l1.95-1.95c.17.62.33,1.25.5,1.89.12.47.24.94.36,1.39Z"/>
    <path class="cls-2" d="m24.26,24.36l3.23-3.23c-.05.16-.09.34-.14.51-.24.9-.48,1.83-.73,2.79s-.49,1.89-.72,2.79c-.24.9-.45,1.74-.65,2.52-.2.78-.37,1.44-.51,1.99h-1.99c-.14-.55-.31-1.22-.51-2.01-.2-.79-.41-1.64-.65-2.54,0-.04-.02-.08-.03-.12l1.95-1.95c.1.37.19.73.28,1.08.15-.59.3-1.2.47-1.83Z"/>
    <path class="cls-2" d="m30.14,10.1l-2.8,2.8c.04-.14.08-.27.12-.4.09-.31.18-.6.27-.88.08-.28.17-.54.25-.8.08-.25.16-.49.24-.72h1.92Z"/>
    <path class="cls-2" d="m30.97,15.53l-2.35,2.35c-.01-.25-.03-.49-.04-.73-.09.32-.19.68-.3,1.07l-3.3,3.3c.34-1.33.68-2.63,1.03-3.92.16-.59.32-1.16.48-1.73l4.25-4.25c.08,1.25.16,2.55.23,3.91Z"/>
    <path class="cls-2" d="m31.77,35.05h-2.63c-.06-2.91-.12-5.89-.2-8.97-.05-2.1-.13-4.17-.22-6.18l2.36-2.36c.08,1.53.16,3.09.23,4.67.09,2.15.18,4.31.26,6.48.07,2.18.14,4.29.2,6.36Z"/>
    <path class="cls-2" d="m31.57,28.69c-.08-2.17-.17-4.33-.26-6.48-.07-1.58-.15-3.14-.23-4.67l-2.36,2.36c.09,2.01.17,4.08.22,6.18.08,3.08.14,6.06.2,8.97h2.63c-.06-2.07-.13-4.18-.2-6.36Zm-.83-17.07l-4.25,4.25c-.16.57-.32,1.14-.48,1.73-.35,1.29-.69,2.59-1.03,3.92l3.3-3.3c.11-.39.21-.75.3-1.07,0,.24.03.48.04.73l2.35-2.35c-.07-1.36-.15-2.66-.23-3.91Zm-2.52-1.52c-.08.23-.16.47-.24.72-.08.26-.17.52-.25.8-.09.28-.18.57-.27.88-.04.13-.08.26-.12.4l2.8-2.8h-1.92Zm-3.96,14.26c-.17.63-.32,1.24-.47,1.83-.09-.35-.18-.71-.28-1.08l-1.95,1.95s.02.08.03.12c.24.9.45,1.75.65,2.54.2.79.37,1.46.51,2.01h1.99c.14-.55.31-1.21.51-1.99.2-.78.41-1.62.65-2.52.23-.9.47-1.83.72-2.79s.49-1.89.73-2.79c.05-.17.09-.35.14-.51l-3.23,3.23Zm-1.54-2.33c-.17-.64-.33-1.27-.5-1.89l-1.95,1.95c.19.74.39,1.51.6,2.3.09.33.17.66.26.98l1.95-1.95c-.12-.45-.24-.92-.36-1.39Zm-1.18-4.43c-.4-1.45-.78-2.83-1.17-4.15-.38-1.32-.73-2.44-1.04-3.35h-2.47c-.13,1.73-.25,3.61-.36,5.65-.12,2.04-.22,4.15-.32,6.32-.03.69-.06,1.38-.08,2.07l2.6-2.6c.06-1.48.13-2.95.21-4.39.16.53.34,1.19.55,1.97.11.42.23.85.36,1.3l1.95-1.95c-.07-.29-.15-.58-.23-.87Zm-5.62,11.04c-.02.68-.05,1.35-.07,2.01l2.65-2.65c.02-.63.03-1.27.05-1.92.02-.78.04-1.56.07-2.34l-2.61,2.61c-.03.76-.06,1.52-.09,2.29Zm-.13,4.19c-.03.75-.05,1.49-.07,2.22h2.63c.03-1.6.07-3.23.1-4.88l-2.66,2.66Z"/>
    <path class="cls-1" d="m44.15,29.62h-5.11V10.1c0-.15-.02-.3-.08-.44l-1.42,1.42v20.04h6.61v3.93h-9.28V13.75l-1.5,1.5v19.8c0,.83.67,1.5,1.5,1.5h9.28c.83,0,1.5-.67,1.5-1.5v-3.93c0-.83-.67-1.5-1.5-1.5Zm-9.28-19.52h1.53l1.46-1.46c-.1-.03-.21-.04-.32-.04h-2.67c-.83,0-1.5.67-1.5,1.5v3.03l1.5-1.5v-1.53Z"/>
    <polygon class="cls-2" points="36.4 10.1 34.87 11.63 34.87 10.1 36.4 10.1"/>
    <polygon class="cls-2" points="44.15 31.12 44.15 35.05 34.87 35.05 34.87 13.75 37.54 11.08 37.54 31.12 44.15 31.12"/>
    <path class="cls-2" d="m37.54,31.12V11.08l-2.67,2.67v21.3h9.28v-3.93h-6.61Zm-2.67-21.02v1.53l1.53-1.53h-1.53Z"/>
  </g>
  <path class="cls-1" d="m12.07,36.55l-6.41,6.41c-.53.53-1.23.82-1.98.82s-1.46-.29-1.99-.82l-.22-.22c-.53-.53-.82-1.23-.82-1.99s.29-1.45.82-1.98l2.22-2.22h.22c.66,0,1.24-.44,1.43-1.07.08-.27.18-.56.29-.87l2.62-2.62c.2.53.39,1.05.57,1.55l-.95.95-5.34,5.34c-.51.51-.51,1.34,0,1.85l.22.22c.51.51,1.34.51,1.85,0l5.56-5.56c.22.14.48.21.75.21h1.16Z"/>
  <path class="cls-1" d="m5.63,34.61c-.11.31-.21.6-.29.87-.19.63-.77,1.07-1.43,1.07h-.22l1.94-1.94Z"/>
  <path class="cls-1" d="m13.57,35.05l-1.5,1.5h-1.16c-.27,0-.53-.07-.75-.21l1.08-1.08.21-.21h2.12Z"/>
  <path class="cls-1" d="m13.92,34.7l-.35.35h-2.12l1.94-1.94c.19.54.37,1.08.53,1.59Z"/>
  <path class="cls-1" d="m15.11,33.51l-.87.87c.02-.72.04-1.45.07-2.19l.26-.26c.19.54.37,1.07.54,1.58Z"/>
  <path class="cls-1" d="m15.85,30.65c-.02.74-.04,1.46-.06,2.18l-.68.68c-.17-.51-.35-1.04-.54-1.58l1.28-1.28Z"/>
  <path class="cls-1" d="m18.5,28c-.02.73-.03,1.45-.05,2.17l-2.66,2.66c.02-.72.04-1.44.06-2.18l2.65-2.65Z"/>
  <path class="cls-1" d="m21.56,27.06l-1.23,1.23c-.06-.24-.13-.48-.19-.73l-.11-.44c0,.51-.03,1.01-.04,1.51l-1.54,1.54c.02-.72.03-1.44.05-2.17l2.63-2.63c.14.58.29,1.14.43,1.69Z"/>
  <path class="cls-1" d="m20.33,28.29l-.34.34c.01-.5.03-1,.04-1.51l.11.44c.06.25.13.49.19.73Z"/>
  <path class="cls-1" d="m23.51,25.11l-1.95,1.95c-.14-.55-.29-1.11-.43-1.69l1.95-1.95c.15.58.29,1.14.43,1.69Z"/>
  <path class="cls-1" d="m24.98,21.52c-.04.17-.09.34-.13.51-.2.81-.4,1.59-.59,2.33l-.75.75c-.14-.55-.28-1.11-.43-1.69l1.9-1.9Z"/>
  <path class="cls-1" d="m28.28,18.22c-.08.28-.16.59-.25.91-.17.62-.35,1.29-.54,2l-3.23,3.23c.19-.74.39-1.52.59-2.33.04-.17.09-.34.13-.51l3.3-3.3Z"/>
  <path class="cls-1" d="m28.72,19.9l-1.23,1.23c.19-.71.37-1.38.54-2,.09-.32.17-.63.25-.91l.34-.34c.03.66.07,1.34.1,2.02Z"/>
  <path class="cls-1" d="m31.08,17.54l-2.36,2.36c-.03-.68-.07-1.36-.1-2.02l2.35-2.35c.01.12.01.25.02.38.03.54.06,1.08.09,1.63Z"/>
  <path class="cls-1" d="m32.51,16.11l-1.43,1.43c-.03-.55-.06-1.09-.09-1.63-.01-.13-.01-.26-.02-.38l1.42-1.42c.04.56.07,1.14.1,1.72.01.09.01.19.02.28Z"/>
  <path class="cls-1" d="m33.37,13.13v2.12l-.86.86c-.01-.09-.01-.19-.02-.28-.03-.58-.06-1.16-.1-1.72l.98-.98Z"/>
  <polygon class="cls-1" points="34.87 11.63 34.87 13.75 33.37 15.25 33.37 13.13 34.87 11.63"/>
  <polygon class="cls-1" points="37.54 10.1 37.54 11.08 34.87 13.75 34.87 11.63 36.4 10.1 37.54 10.1"/>
  <path class="cls-1" d="m38.11,11.08v-.98h-1.14l1.46-1.46c.53.11.96.51,1.1,1.02l-1.42,1.42Z"/>
  <path class="cls-1" d="m43.78,4.25c0,.75-.29,1.45-.82,1.98l-3.43,3.43c-.14-.51-.57-.91-1.1-1.02l3.47-3.47c.51-.51.51-1.34,0-1.85l-.22-.22c-.51-.51-1.34-.51-1.85,0l-7.12,7.12c-.01-.08-.01-.15-.02-.23-.03-.49-.31-.92-.7-1.17l6.78-6.78c.53-.53,1.23-.82,1.98-.82s1.46.29,1.99.82l.22.22c.53.53.82,1.23.82,1.99Z"/>
  <path class="cls-1" d="m32.71,10.22l-1.4,1.4c-.04-.52-.07-1.02-.11-1.52h-.49l1.28-1.28c.39.25.67.68.7,1.17.01.08.01.15.02.23Z"/>
  <path class="cls-1" d="m30.74,11.62l-4.25,4.25c.23-.83.46-1.64.69-2.42.05-.19.11-.37.16-.55l2.8-2.8h.49c.04.5.07,1,.11,1.52Z"/>
  <path class="cls-1" d="m27.34,12.9c-.05.18-.11.36-.16.55-.23.78-.46,1.59-.69,2.42l-2.14,2.14c.07-.27.15-.53.22-.8.19-.73.39-1.44.59-2.13l2.18-2.18Z"/>
  <path class="cls-1" d="m25.16,15.08c-.2.69-.4,1.4-.59,2.13-.07.27-.15.53-.22.8l-.9.9c-.15-.56-.3-1.11-.45-1.67l2.16-2.16Z"/>
  <path class="cls-1" d="m23.45,18.91l-1.23,1.23c-.14-.56-.29-1.12-.45-1.67l1.23-1.23c.15.56.3,1.11.45,1.67Z"/>
  <path class="cls-1" d="m22.22,20.14l-1.95,1.95c-.05-.16-.09-.31-.13-.47-.11-.41-.22-.81-.32-1.2l1.95-1.95c.16.55.31,1.11.45,1.67Z"/>
  <path class="cls-1" d="m20.27,22.09l-1.65,1.65c.02-.73.05-1.47.08-2.2l1.12-1.12c.1.39.21.79.32,1.2.04.16.08.31.13.47Z"/>
  <path class="cls-1" d="m18.7,21.54c-.03.73-.06,1.47-.08,2.2l-2.61,2.61c.03-.74.05-1.48.09-2.21l2.6-2.6Z"/>
  <path class="cls-1" d="m9.99,32.37l-1.17,1.17c-.18-.5-.37-1.02-.57-1.55l1.15-1.15c.22.53.41,1.04.59,1.53Z"/>
  <path class="cls-1" d="m12.29,30.07l-.26.26-2.04,2.04c-.18-.49-.37-1-.59-1.53l2.29-2.29c.08.18.15.36.22.54.13.33.25.66.38.98Z"/>
  <path class="cls-1" d="m13.44,28.92l-1.15,1.15c-.13-.32-.25-.65-.38-.98-.07-.18-.14-.36-.22-.54l1.15-1.15c.16.39.31.77.46,1.14.05.13.1.26.14.38Z"/>
  <path class="cls-1" d="m14.53,25.71c-.03.73-.06,1.46-.08,2.2l-1.01,1.01c-.04-.12-.09-.25-.14-.38-.15-.37-.3-.75-.46-1.14l1.69-1.69Z"/>
  <path class="cls-1" d="m16.1,24.14c-.04.73-.06,1.47-.09,2.21l-1.56,1.56c.02-.74.05-1.47.08-2.2l1.57-1.57Z"/>
  <path class="cls-2" d="m41.33,5.17l-3.47,3.47-1.46,1.46-1.53,1.53-2.48,2.48-1.42,1.42-2.35,2.35-.34.34-3.3,3.3-1.9,1.9-4.58,4.58-2.65,2.65-1.28,1.28-.26.26-.41.41-.51.51-2.15,2.15-1.08,1.08-5.56,5.56c-.51.51-1.34.51-1.85,0l-.22-.22c-.51-.51-.51-1.34,0-1.85l5.34-5.34,2.12-2.12,2.04-2.04.26-.26L39.26,3.1c.51-.51,1.34-.51,1.85,0l.22.22c.51.51.51,1.34,0,1.85Z"/>
  <path class="cls-2" d="m41.33,5.17l-3.47,3.47-1.46,1.46-1.53,1.53-2.48,2.48-1.42,1.42-2.35,2.35-.34.34-3.3,3.3-1.9,1.9-4.58,4.58-2.65,2.65-1.28,1.28-.26.26-.41.41-.51.51-2.15,2.15-1.08,1.08-5.56,5.56c-.51.51-1.34.51-1.85,0l-.22-.22c-.51-.51-.51-1.34,0-1.85l5.34-5.34,2.12-2.12,2.04-2.04.26-.26L39.26,3.1c.51-.51,1.34-.51,1.85,0l.22.22c.51.51.51,1.34,0,1.85Z"/>
</svg>